  0
SECTION
  2
HEADER
  9
$ACADVER
  1
AC1009
  9
$INSBASE
 10
0.0
 20
0.0
 30
0.0
  9
$EXTMIN
 10
0.0
 20
0.0
 30
0.0
  9
$EXTMAX
 10
0.0
 20
0.0
 30
0.0
  0
ENDSEC
  0
SECTION
  2
TABLES
  0
TABLE
  2
VPORT
 70
0
  0
ENDTAB
  0
TABLE
  2
LTYPE
 70
1
  0
LTYPE
  2
CONTINUOUS
 70
0
  3
Solid line
 72
65
 73
0
 40
0.0
  0
ENDTAB
  0
TABLE
  2
LAYER
 70
1
  0
LAYER
  2
0
 70
64
 62
7
  6
continuous
  0
ENDTAB
  0
TABLE
  2
STYLE
 70
1
  0
STYLE
  2
STANDARD
 70
0
 40
0
 41
1.0
 50
0.0
 71
0
 42
1
 3
ARIAL.TTF
 4

  0
ENDTAB
  0
TABLE
  2
VIEW
 70
0
  0
ENDTAB
  0
ENDSEC
  0
SECTION
  2
BLOCKS
  0
BLOCK
  8
0
  2
SHAPE2DVIEW
 70
0
 10
0.0
 20
0.0
 30
0.0
  3
SHAPE2DVIEW
  0
LINE
  8
0
 62
0
 10
0.0
 20
-44.0
 30
0.0
 11
0.0
 21
44.0
 31
0.0
  0
LINE
  8
0
 62
0
 10
0.0
 20
-44.0
 30
0.0
 11
482.6
 21
-44.0
 31
0.0
  0
LINE
  8
0
 62
0
 10
0.0
 20
44.0
 30
0.0
 11
482.6
 21
44.0
 31
0.0
  0
LINE
  8
0
 62
0
 10
482.6
 20
-44.0
 30
0.0
 11
482.6
 21
44.0
 31
0.0
  0
LINE
  8
0
 62
0
 10
4.4998
 20
-38.0
 30
0.0
 11
4.561330000000001
 21
-38.624023
 31
0.0
  0
LINE
  8
0
 62
0
 10
4.56133
 20
-37.375977
 30
0.0
 11
4.4998
 21
-38.0
 31
0.0
  0
LINE
  8
0
 62
0
 10
4.56133
 20
-38.624023
 30
0.0
 11
4.74395
 21
-39.22461
 31
0.0
  0
LINE
  8
0
 62
0
 10
4.74395
 20
-36.77539
 30
0.0
 11
4.56133
 21
-37.375977
 31
0.0
  0
LINE
  8
0
 62
0
 10
4.74395
 20
-39.22461
 30
0.0
 11
5.03887
 21
-39.777339999999995
 31
0.0
  0
LINE
  8
0
 62
0
 10
5.03887
 20
-36.22266
 30
0.0
 11
4.74395
 21
-36.775389999999994
 31
0.0
  0
LINE
  8
0
 62
0
 10
5.03887
 20
-39.77734
 30
0.0
 11
5.4373
 21
-40.2627
 31
0.0
  0
LINE
  8
0
 62
0
 10
5.4373
 20
-35.7373
 30
0.0
 11
5.03887
 21
-36.22266
 31
0.0
  0
LINE
  8
0
 62
0
 10
5.4373
 20
-40.2627
 30
0.0
 11
5.92266
 21
-40.66113
 31
0.0
  0
LINE
  8
0
 62
0
 10
5.92266
 20
-35.33887
 30
0.0
 11
5.4373
 21
-35.7373
 31
0.0
  0
LINE
  8
0
 62
0
 10
5.92266
 20
-40.66113
 30
0.0
 11
6.475390000000001
 21
-40.95605
 31
0.0
  0
LINE
  8
0
 62
0
 10
6.47539
 20
-35.04395
 30
0.0
 11
5.92266
 21
-35.33887
 31
0.0
  0
LINE
  8
0
 62
0
 10
6.47539
 20
-40.95605
 30
0.0
 11
7.075977
 21
-41.13867
 31
0.0
  0
LINE
  8
0
 62
0
 10
7.075977
 20
-34.86133
 30
0.0
 11
6.47539
 21
-35.04395
 31
0.0
  0
LINE
  8
0
 62
0
 10
7.075977
 20
-41.13867
 30
0.0
 11
7.7
 21
-41.200199999999995
 31
0.0
  0
LINE
  8
0
 62
0
 10
7.7
 20
-34.7998
 30
0.0
 11
7.075977
 21
-34.861329999999995
 31
0.0
  0
LINE
  8
0
 62
0
 10
7.7
 20
-41.2002
 30
0.0
 11
10.9998
 21
-41.2002
 31
0.0
  0
LINE
  8
0
 62
0
 10
10.9998
 20
-34.7998
 30
0.0
 11
7.700000000000001
 21
-34.7998
 31
0.0
  0
LINE
  8
0
 62
0
 10
10.9998
 20
-41.2002
 30
0.0
 11
11.623830000000002
 21
-41.138670000000005
 31
0.0
  0
LINE
  8
0
 62
0
 10
11.62383
 20
-34.86133
 30
0.0
 11
10.9998
 21
-34.799800000000005
 31
0.0
  0
LINE
  8
0
 62
0
 10
11.62383
 20
-41.13867
 30
0.0
 11
12.224409999999999
 21
-40.95605
 31
0.0
  0
LINE
  8
0
 62
0
 10
12.224409999999999
 20
-35.04395
 30
0.0
 11
11.62383
 21
-34.86133
 31
0.0
  0
LINE
  8
0
 62
0
 10
12.224409999999999
 20
-40.95605
 30
0.0
 11
12.77812
 21
-40.66113
 31
0.0
  0
LINE
  8
0
 62
0
 10
12.778120000000001
 20
-35.33887
 30
0.0
 11
12.22441
 21
-35.04395
 31
0.0
  0
LINE
  8
0
 62
0
 10
12.778120000000001
 20
-40.66113
 30
0.0
 11
13.262500000000001
 21
-40.2627
 31
0.0
  0
LINE
  8
0
 62
0
 10
13.2625
 20
-35.7373
 30
0.0
 11
12.77812
 21
-35.33887
 31
0.0
  0
LINE
  8
0
 62
0
 10
13.2625
 20
-40.2627
 30
0.0
 11
13.66094
 21
-39.77734
 31
0.0
  0
LINE
  8
0
 62
0
 10
13.66094
 20
-36.22266
 30
0.0
 11
13.2625
 21
-35.7373
 31
0.0
  0
LINE
  8
0
 62
0
 10
13.66094
 20
-39.77734
 30
0.0
 11
13.95684
 21
-39.224610000000006
 31
0.0
  0
LINE
  8
0
 62
0
 10
13.95684
 20
-36.77539
 30
0.0
 11
13.66094
 21
-36.222660000000005
 31
0.0
  0
LINE
  8
0
 62
0
 10
13.95684
 20
-39.22461
 30
0.0
 11
14.13848
 21
-38.624023
 31
0.0
  0
LINE
  8
0
 62
0
 10
14.138480000000001
 20
-37.375977
 30
0.0
 11
13.956840000000001
 21
-36.77539
 31
0.0
  0
LINE
  8
0
 62
0
 10
14.138480000000001
 20
-38.624023
 30
0.0
 11
14.200000000000001
 21
-38.0
 31
0.0
  0
LINE
  8
0
 62
0
 10
14.2
 20
-38.0
 30
0.0
 11
14.13848
 21
-37.375977
 31
0.0
  0
CIRCLE
  8
0
 62
0
 10
53.6
 20
-32.3
 30
0.0
 40
1.375
  0
CIRCLE
  8
0
 62
0
 10
166.4
 20
-32.3
 30
0.0
 40
1.375
  0
CIRCLE
  8
0
 62
0
 10
191.5
 20
-32.3
 30
0.0
 40
1.375
  0
CIRCLE
  8
0
 62
0
 10
35.0
 20
-18.0
 30
0.0
 40
6.25
  0
CIRCLE
  8
0
 62
0
 10
380.5
 20
-32.3
 30
0.0
 40
1.375
  0
LINE
  8
0
 62
0
 10
468.39979999999997
 20
-38.0
 30
0.0
 11
468.46133
 21
-38.624023
 31
0.0
  0
LINE
  8
0
 62
0
 10
468.46133
 20
-37.375977
 30
0.0
 11
468.39979999999997
 21
-38.0
 31
0.0
  0
LINE
  8
0
 62
0
 10
468.46133
 20
-38.624023
 30
0.0
 11
468.64394999999996
 21
-39.22461
 31
0.0
  0
LINE
  8
0
 62
0
 10
468.64394999999996
 20
-36.77539
 30
0.0
 11
468.46133
 21
-37.375977
 31
0.0
  0
LINE
  8
0
 62
0
 10
468.64394999999996
 20
-39.22461
 30
0.0
 11
468.93886999999995
 21
-39.777339999999995
 31
0.0
  0
LINE
  8
0
 62
0
 10
468.93886999999995
 20
-36.22266
 30
0.0
 11
468.64394999999996
 21
-36.775389999999994
 31
0.0
  0
LINE
  8
0
 62
0
 10
468.93886999999995
 20
-39.77734
 30
0.0
 11
469.33729999999997
 21
-40.2627
 31
0.0
  0
LINE
  8
0
 62
0
 10
469.33729999999997
 20
-35.7373
 30
0.0
 11
468.93886999999995
 21
-36.22266
 31
0.0
  0
LINE
  8
0
 62
0
 10
469.33729999999997
 20
-40.2627
 30
0.0
 11
469.82266
 21
-40.66113
 31
0.0
  0
LINE
  8
0
 62
0
 10
469.82266
 20
-35.33887
 30
0.0
 11
469.33729999999997
 21
-35.7373
 31
0.0
  0
LINE
  8
0
 62
0
 10
469.82266
 20
-40.66113
 30
0.0
 11
470.37539
 21
-40.95605
 31
0.0
  0
LINE
  8
0
 62
0
 10
470.37539
 20
-35.04395
 30
0.0
 11
469.82266
 21
-35.33887
 31
0.0
  0
LINE
  8
0
 62
0
 10
470.37539
 20
-40.95605
 30
0.0
 11
470.975977
 21
-41.13867
 31
0.0
  0
LINE
  8
0
 62
0
 10
470.97597699999994
 20
-34.86133
 30
0.0
 11
470.3753899999999
 21
-35.04395
 31
0.0
  0
LINE
  8
0
 62
0
 10
470.97597699999994
 20
-41.13867
 30
0.0
 11
471.59999999999997
 21
-41.200199999999995
 31
0.0
  0
LINE
  8
0
 62
0
 10
471.59999999999997
 20
-34.7998
 30
0.0
 11
470.97597699999994
 21
-34.861329999999995
 31
0.0
  0
LINE
  8
0
 62
0
 10
471.59999999999997
 20
-41.2002
 30
0.0
 11
474.89979999999997
 21
-41.2002
 31
0.0
  0
LINE
  8
0
 62
0
 10
474.89979999999997
 20
-34.7998
 30
0.0
 11
471.59999999999997
 21
-34.7998
 31
0.0
  0
LINE
  8
0
 62
0
 10
474.89979999999997
 20
-41.2002
 30
0.0
 11
475.52383
 21
-41.138670000000005
 31
0.0
  0
LINE
  8
0
 62
0
 10
475.52383
 20
-34.86133
 30
0.0
 11
474.89979999999997
 21
-34.799800000000005
 31
0.0
  0
LINE
  8
0
 62
0
 10
475.52383
 20
-41.13867
 30
0.0
 11
476.12440999999995
 21
-40.95605
 31
0.0
  0
LINE
  8
0
 62
0
 10
476.12440999999995
 20
-35.04395
 30
0.0
 11
475.52383
 21
-34.86133
 31
0.0
  0
LINE
  8
0
 62
0
 10
476.12440999999995
 20
-40.95605
 30
0.0
 11
476.67812
 21
-40.66113
 31
0.0
  0
LINE
  8
0
 62
0
 10
476.67812
 20
-35.33887
 30
0.0
 11
476.12440999999995
 21
-35.04395
 31
0.0
  0
LINE
  8
0
 62
0
 10
476.67812
 20
-40.66113
 30
0.0
 11
477.16249999999997
 21
-40.2627
 31
0.0
  0
LINE
  8
0
 62
0
 10
477.16249999999997
 20
-35.7373
 30
0.0
 11
476.67812
 21
-35.33887
 31
0.0
  0
LINE
  8
0
 62
0
 10
477.16249999999997
 20
-40.2627
 30
0.0
 11
477.56093999999996
 21
-39.77734
 31
0.0
  0
LINE
  8
0
 62
0
 10
477.56093999999996
 20
-36.22266
 30
0.0
 11
477.16249999999997
 21
-35.7373
 31
0.0
  0
LINE
  8
0
 62
0
 10
477.56093999999996
 20
-39.77734
 30
0.0
 11
477.85684
 21
-39.224610000000006
 31
0.0
  0
LINE
  8
0
 62
0
 10
477.85684
 20
-36.77539
 30
0.0
 11
477.56093999999996
 21
-36.222660000000005
 31
0.0
  0
LINE
  8
0
 62
0
 10
477.85684
 20
-39.22461
 30
0.0
 11
478.03848
 21
-38.624023
 31
0.0
  0
LINE
  8
0
 62
0
 10
478.03848
 20
-37.375977
 30
0.0
 11
477.85684
 21
-36.77539
 31
0.0
  0
LINE
  8
0
 62
0
 10
478.03848
 20
-38.624023
 30
0.0
 11
478.09999999999997
 21
-38.0
 31
0.0
  0
LINE
  8
0
 62
0
 10
478.09999999999997
 20
-38.0
 30
0.0
 11
478.03848
 21
-37.375977
 31
0.0
  0
CIRCLE
  8
0
 62
0
 10
413.0
 20
-22.0
 30
0.0
 40
3.0
  0
CIRCLE
  8
0
 62
0
 10
455.6066017177982
 20
-25.606601717798213
 30
0.0
 40
1.3749999999999998
  0
CIRCLE
  8
0
 62
0
 10
445.0
 20
-15.0
 30
0.0
 40
12.25
  0
CIRCLE
  8
0
 62
0
 10
434.3933982822018
 20
-4.3933982822017885
 30
0.0
 40
1.375
  0
ARC
  8
0
 62
0
 10
61.1
 20
-13.2
 30
0.0
 40
1.5
 50
-180.0
 51
-90.0
  0
LINE
  8
0
 62
0
 10
61.1
 20
-14.7
 30
0.0
 11
114.89999999999999
 21
-14.7
 31
0.0
  0
ARC
  8
0
 62
0
 10
114.9
 20
-13.2
 30
0.0
 40
1.5
 50
-90.0
 51
-0.0
  0
LINE
  8
0
 62
0
 10
116.4
 20
-13.2
 30
0.0
 11
116.4
 21
13.2
 31
0.0
  0
ARC
  8
0
 62
0
 10
114.89999999999999
 20
13.2
 30
0.0
 40
1.5
 50
-0.0
 51
90.0
  0
LINE
  8
0
 62
0
 10
61.1
 20
14.7
 30
0.0
 11
114.9
 21
14.7
 31
0.0
  0
ARC
  8
0
 62
0
 10
61.1
 20
13.2
 30
0.0
 40
1.5
 50
90.0
 51
-180.0
  0
LINE
  8
0
 62
0
 10
59.6
 20
-13.2
 30
0.0
 11
59.6
 21
13.2
 31
0.0
  0
CIRCLE
  8
0
 62
0
 10
148.0
 20
0.0
 30
0.0
 40
3.6
  0
CIRCLE
  8
0
 62
0
 10
35.0
 20
22.0
 30
0.0
 40
6.25
  0
CIRCLE
  8
0
 62
0
 10
53.6
 20
32.3
 30
0.0
 40
1.375
  0
LINE
  8
0
 62
0
 10
4.4998
 20
38.0
 30
0.0
 11
4.561330000000001
 21
37.375977
 31
0.0
  0
LINE
  8
0
 62
0
 10
4.56133
 20
38.624023
 30
0.0
 11
4.4998
 21
38.0
 31
0.0
  0
LINE
  8
0
 62
0
 10
4.56133
 20
37.375977
 30
0.0
 11
4.74395
 21
36.77539
 31
0.0
  0
LINE
  8
0
 62
0
 10
4.74395
 20
39.22461
 30
0.0
 11
4.56133
 21
38.624023
 31
0.0
  0
LINE
  8
0
 62
0
 10
4.74395
 20
36.77539
 30
0.0
 11
5.03887
 21
36.222660000000005
 31
0.0
  0
LINE
  8
0
 62
0
 10
5.03887
 20
39.77734
 30
0.0
 11
4.74395
 21
39.224610000000006
 31
0.0
  0
LINE
  8
0
 62
0
 10
5.03887
 20
36.22266
 30
0.0
 11
5.4373
 21
35.7373
 31
0.0
  0
LINE
  8
0
 62
0
 10
5.4373
 20
40.2627
 30
0.0
 11
5.03887
 21
39.77734
 31
0.0
  0
LINE
  8
0
 62
0
 10
5.4373
 20
35.7373
 30
0.0
 11
5.92266
 21
35.33887
 31
0.0
  0
LINE
  8
0
 62
0
 10
5.92266
 20
40.66113
 30
0.0
 11
5.4373
 21
40.2627
 31
0.0
  0
LINE
  8
0
 62
0
 10
5.92266
 20
35.33887
 30
0.0
 11
6.475390000000001
 21
35.04395
 31
0.0
  0
LINE
  8
0
 62
0
 10
6.47539
 20
40.95605
 30
0.0
 11
5.92266
 21
40.66113
 31
0.0
  0
LINE
  8
0
 62
0
 10
6.47539
 20
35.04395
 30
0.0
 11
7.075977
 21
34.86133
 31
0.0
  0
LINE
  8
0
 62
0
 10
7.075977
 20
41.13867
 30
0.0
 11
6.47539
 21
40.95605
 31
0.0
  0
LINE
  8
0
 62
0
 10
7.075977
 20
34.86133
 30
0.0
 11
7.7
 21
34.799800000000005
 31
0.0
  0
LINE
  8
0
 62
0
 10
7.7
 20
41.2002
 30
0.0
 11
7.075977
 21
41.138670000000005
 31
0.0
  0
LINE
  8
0
 62
0
 10
7.7
 20
34.7998
 30
0.0
 11
10.9998
 21
34.7998
 31
0.0
  0
LINE
  8
0
 62
0
 10
10.9998
 20
41.2002
 30
0.0
 11
7.700000000000001
 21
41.2002
 31
0.0
  0
LINE
  8
0
 62
0
 10
10.9998
 20
34.7998
 30
0.0
 11
11.623830000000002
 21
34.861329999999995
 31
0.0
  0
LINE
  8
0
 62
0
 10
11.62383
 20
41.13867
 30
0.0
 11
10.9998
 21
41.200199999999995
 31
0.0
  0
LINE
  8
0
 62
0
 10
11.62383
 20
34.86133
 30
0.0
 11
12.224409999999999
 21
35.04395
 31
0.0
  0
LINE
  8
0
 62
0
 10
12.224409999999999
 20
40.95605
 30
0.0
 11
11.62383
 21
41.13867
 31
0.0
  0
LINE
  8
0
 62
0
 10
12.224409999999999
 20
35.04395
 30
0.0
 11
12.77812
 21
35.33887
 31
0.0
  0
LINE
  8
0
 62
0
 10
12.778120000000001
 20
40.66113
 30
0.0
 11
12.22441
 21
40.95605
 31
0.0
  0
LINE
  8
0
 62
0
 10
12.778120000000001
 20
35.33887
 30
0.0
 11
13.262500000000001
 21
35.7373
 31
0.0
  0
LINE
  8
0
 62
0
 10
13.2625
 20
40.2627
 30
0.0
 11
12.77812
 21
40.66113
 31
0.0
  0
LINE
  8
0
 62
0
 10
13.2625
 20
35.7373
 30
0.0
 11
13.66094
 21
36.22266
 31
0.0
  0
LINE
  8
0
 62
0
 10
13.66094
 20
39.77734
 30
0.0
 11
13.2625
 21
40.2627
 31
0.0
  0
LINE
  8
0
 62
0
 10
13.66094
 20
36.22266
 30
0.0
 11
13.95684
 21
36.775389999999994
 31
0.0
  0
LINE
  8
0
 62
0
 10
13.95684
 20
39.22461
 30
0.0
 11
13.66094
 21
39.777339999999995
 31
0.0
  0
LINE
  8
0
 62
0
 10
13.95684
 20
36.77539
 30
0.0
 11
14.13848
 21
37.375977
 31
0.0
  0
LINE
  8
0
 62
0
 10
14.138480000000001
 20
38.624023
 30
0.0
 11
13.956840000000001
 21
39.22461
 31
0.0
  0
LINE
  8
0
 62
0
 10
14.138480000000001
 20
37.375977
 30
0.0
 11
14.200000000000001
 21
38.0
 31
0.0
  0
LINE
  8
0
 62
0
 10
14.2
 20
38.0
 30
0.0
 11
14.13848
 21
38.624023
 31
0.0
  0
CIRCLE
  8
0
 62
0
 10
166.4
 20
32.3
 30
0.0
 40
1.375
  0
CIRCLE
  8
0
 62
0
 10
191.5
 20
32.3
 30
0.0
 40
1.375
  0
ARC
  8
0
 62
0
 10
183.5
 20
-20.8
 30
0.0
 40
6.0
 50
-180.0
 51
-90.0
  0
LINE
  8
0
 62
0
 10
183.5
 20
-26.8
 30
0.0
 11
388.5
 21
-26.8
 31
0.0
  0
ARC
  8
0
 62
0
 10
388.5
 20
-20.8
 30
0.0
 40
6.0
 50
-90.0
 51
-0.0
  0
LINE
  8
0
 62
0
 10
394.5
 20
-20.8
 30
0.0
 11
394.5
 21
20.8
 31
0.0
  0
ARC
  8
0
 62
0
 10
388.5
 20
20.8
 30
0.0
 40
6.0
 50
-0.0
 51
90.0
  0
LINE
  8
0
 62
0
 10
183.5
 20
26.8
 30
0.0
 11
388.5
 21
26.8
 31
0.0
  0
ARC
  8
0
 62
0
 10
183.5
 20
20.8
 30
0.0
 40
6.0
 50
90.0
 51
-180.0
  0
LINE
  8
0
 62
0
 10
177.5
 20
-20.8
 30
0.0
 11
177.5
 21
20.8
 31
0.0
  0
CIRCLE
  8
0
 62
0
 10
455.6066017177982
 20
4.393398282201787
 30
0.0
 40
1.3749999999999998
  0
ARC
  8
0
 62
0
 10
408.5
 20
13.0
 30
0.0
 40
1.5
 50
-180.0
 51
-90.0
  0
LINE
  8
0
 62
0
 10
408.5
 20
11.5
 30
0.0
 11
417.5
 21
11.5
 31
0.0
  0
ARC
  8
0
 62
0
 10
417.5
 20
13.0
 30
0.0
 40
1.5
 50
-90.0
 51
-0.0
  0
LINE
  8
0
 62
0
 10
419.0
 20
13.0
 30
0.0
 11
419.0
 21
23.0
 31
0.0
  0
ARC
  8
0
 62
0
 10
417.5
 20
23.0
 30
0.0
 40
1.5
 50
-0.0
 51
90.0
  0
LINE
  8
0
 62
0
 10
408.5
 20
24.5
 30
0.0
 11
417.5
 21
24.5
 31
0.0
  0
ARC
  8
0
 62
0
 10
408.5
 20
23.0
 30
0.0
 40
1.5
 50
90.0
 51
-180.0
  0
LINE
  8
0
 62
0
 10
407.0
 20
13.0
 30
0.0
 11
407.0
 21
23.0
 31
0.0
  0
CIRCLE
  8
0
 62
0
 10
445.0
 20
15.0
 30
0.0
 40
12.25
  0
CIRCLE
  8
0
 62
0
 10
413.0
 20
30.5
 30
0.0
 40
1.375
  0
CIRCLE
  8
0
 62
0
 10
434.3933982822018
 20
25.606601717798213
 30
0.0
 40
1.375
  0
CIRCLE
  8
0
 62
0
 10
380.5
 20
32.3
 30
0.0
 40
1.375
  0
LINE
  8
0
 62
0
 10
468.39979999999997
 20
38.0
 30
0.0
 11
468.46133
 21
37.375977
 31
0.0
  0
LINE
  8
0
 62
0
 10
468.46133
 20
38.624023
 30
0.0
 11
468.39979999999997
 21
38.0
 31
0.0
  0
LINE
  8
0
 62
0
 10
468.46133
 20
37.375977
 30
0.0
 11
468.64394999999996
 21
36.77539
 31
0.0
  0
LINE
  8
0
 62
0
 10
468.64394999999996
 20
39.22461
 30
0.0
 11
468.46133
 21
38.624023
 31
0.0
  0
LINE
  8
0
 62
0
 10
468.64394999999996
 20
36.77539
 30
0.0
 11
468.93886999999995
 21
36.222660000000005
 31
0.0
  0
LINE
  8
0
 62
0
 10
468.93886999999995
 20
39.77734
 30
0.0
 11
468.64394999999996
 21
39.224610000000006
 31
0.0
  0
LINE
  8
0
 62
0
 10
468.93886999999995
 20
36.22266
 30
0.0
 11
469.33729999999997
 21
35.7373
 31
0.0
  0
LINE
  8
0
 62
0
 10
469.33729999999997
 20
40.2627
 30
0.0
 11
468.93886999999995
 21
39.77734
 31
0.0
  0
LINE
  8
0
 62
0
 10
469.33729999999997
 20
35.7373
 30
0.0
 11
469.82266
 21
35.33887
 31
0.0
  0
LINE
  8
0
 62
0
 10
469.82266
 20
40.66113
 30
0.0
 11
469.33729999999997
 21
40.2627
 31
0.0
  0
LINE
  8
0
 62
0
 10
469.82266
 20
35.33887
 30
0.0
 11
470.37539
 21
35.04395
 31
0.0
  0
LINE
  8
0
 62
0
 10
470.37539
 20
40.95605
 30
0.0
 11
469.82266
 21
40.66113
 31
0.0
  0
LINE
  8
0
 62
0
 10
470.37539
 20
35.04395
 30
0.0
 11
470.975977
 21
34.86133
 31
0.0
  0
LINE
  8
0
 62
0
 10
470.97597699999994
 20
41.13867
 30
0.0
 11
470.3753899999999
 21
40.95605
 31
0.0
  0
LINE
  8
0
 62
0
 10
470.97597699999994
 20
34.86133
 30
0.0
 11
471.59999999999997
 21
34.799800000000005
 31
0.0
  0
LINE
  8
0
 62
0
 10
471.59999999999997
 20
41.2002
 30
0.0
 11
470.97597699999994
 21
41.138670000000005
 31
0.0
  0
LINE
  8
0
 62
0
 10
471.59999999999997
 20
34.7998
 30
0.0
 11
474.89979999999997
 21
34.7998
 31
0.0
  0
LINE
  8
0
 62
0
 10
474.89979999999997
 20
41.2002
 30
0.0
 11
471.59999999999997
 21
41.2002
 31
0.0
  0
LINE
  8
0
 62
0
 10
474.89979999999997
 20
34.7998
 30
0.0
 11
475.52383
 21
34.861329999999995
 31
0.0
  0
LINE
  8
0
 62
0
 10
475.52383
 20
41.13867
 30
0.0
 11
474.89979999999997
 21
41.200199999999995
 31
0.0
  0
LINE
  8
0
 62
0
 10
475.52383
 20
34.86133
 30
0.0
 11
476.12440999999995
 21
35.04395
 31
0.0
  0
LINE
  8
0
 62
0
 10
476.12440999999995
 20
40.95605
 30
0.0
 11
475.52383
 21
41.13867
 31
0.0
  0
LINE
  8
0
 62
0
 10
476.12440999999995
 20
35.04395
 30
0.0
 11
476.67812
 21
35.33887
 31
0.0
  0
LINE
  8
0
 62
0
 10
476.67812
 20
40.66113
 30
0.0
 11
476.12440999999995
 21
40.95605
 31
0.0
  0
LINE
  8
0
 62
0
 10
476.67812
 20
35.33887
 30
0.0
 11
477.16249999999997
 21
35.7373
 31
0.0
  0
LINE
  8
0
 62
0
 10
477.16249999999997
 20
40.2627
 30
0.0
 11
476.67812
 21
40.66113
 31
0.0
  0
LINE
  8
0
 62
0
 10
477.16249999999997
 20
35.7373
 30
0.0
 11
477.56093999999996
 21
36.22266
 31
0.0
  0
LINE
  8
0
 62
0
 10
477.56093999999996
 20
39.77734
 30
0.0
 11
477.16249999999997
 21
40.2627
 31
0.0
  0
LINE
  8
0
 62
0
 10
477.56093999999996
 20
36.22266
 30
0.0
 11
477.85684
 21
36.775389999999994
 31
0.0
  0
LINE
  8
0
 62
0
 10
477.85684
 20
39.22461
 30
0.0
 11
477.56093999999996
 21
39.777339999999995
 31
0.0
  0
LINE
  8
0
 62
0
 10
477.85684
 20
36.77539
 30
0.0
 11
478.03848
 21
37.375977
 31
0.0
  0
LINE
  8
0
 62
0
 10
478.03848
 20
38.624023
 30
0.0
 11
477.85684
 21
39.22461
 31
0.0
  0
LINE
  8
0
 62
0
 10
478.03848
 20
37.375977
 30
0.0
 11
478.09999999999997
 21
38.0
 31
0.0
  0
LINE
  8
0
 62
0
 10
478.09999999999997
 20
38.0
 30
0.0
 11
478.03848
 21
38.624023
 31
0.0
  0
ENDBLK
  0
ENDSEC
  0
SECTION
  2
ENTITIES
  0
INSERT
  2
SHAPE2DVIEW
  8
0
 62
0
 10
0.0
 20
0.0
 30
0.0
  0
ENDSEC
  0
EOF
