  0
SECTION
  2
HEADER
  9
$ACADVER
  1
AC1015
  9
$ACADMAINTVER
 70
6
  9
$DWGCODEPAGE
  3
ANSI_1252
  9
$INSBASE
 10
0.0
 20
0.0
 30
0.0
  9
$EXTMIN
 10
-100
 20
-100
 30
-100
  9
$EXTMAX
 10
100
 20
100
 30
100
  9
$LIMMIN
 10
0.0
 20
0.0
  9
$LIMMAX
 10
420.0
 20
297.0
  9
$ORTHOMODE
 70
0
  9
$REGENMODE
 70
1
  9
$FILLMODE
 70
1
  9
$QTEXTMODE
 70
0
  9
$MIRRTEXT
 70
1
  9
$LTSCALE
 40
1.0
  9
$ATTMODE
 70
1
  9
$TEXTSIZE
 40
2.5
  9
$TRACEWID
 40
1.0
  9
$TEXTSTYLE
  7
Standard
  9
$CLAYER
  8
0
  9
$CELTYPE
  6
ByLayer
  9
$CECOLOR
 62
256
  9
$CELTSCALE
 40
1.0
  9
$DISPSILH
 70
0
  9
$DIMSCALE
 40
1.0
  9
$DIMASZ
 40
2.5
  9
$DIMEXO
 40
0.625
  9
$DIMDLI
 40
3.75
  9
$DIMRND
 40
0.0
  9
$DIMDLE
 40
0.0
  9
$DIMEXE
 40
1.25
  9
$DIMTP
 40
0.0
  9
$DIMTM
 40
0.0
  9
$DIMTXT
 40
2.5
  9
$DIMCEN
 40
2.5
  9
$DIMTSZ
 40
0.0
  9
$DIMTOL
 70
0
  9
$DIMLIM
 70
0
  9
$DIMTIH
 70
0
  9
$DIMTOH
 70
0
  9
$DIMSE1
 70
0
  9
$DIMSE2
 70
0
  9
$DIMTAD
 70
1
  9
$DIMZIN
 70
8
  9
$DIMBLK
  1

  9
$DIMASO
 70
1
  9
$DIMSHO
 70
1
  9
$DIMPOST
  1

  9
$DIMAPOST
  1

  9
$DIMALT
 70
0
  9
$DIMALTD
 70
3
  9
$DIMALTF
 40
0.03937007874
  9
$DIMLFAC
 40
1.0
  9
$DIMTOFL
 70
1
  9
$DIMTVP
 40
0.0
  9
$DIMTIX
 70
0
  9
$DIMSOXD
 70
0
  9
$DIMSAH
 70
0
  9
$DIMBLK1
  1

  9
$DIMBLK2
  1

  9
$DIMSTYLE
  2
ISO-25
  9
$DIMCLRD
 70
0
  9
$DIMCLRE
 70
0
  9
$DIMCLRT
 70
0
  9
$DIMTFAC
 40
1.0
  9
$DIMGAP
 40
0.625
  9
$DIMJUST
 70
0
  9
$DIMSD1
 70
0
  9
$DIMSD2
 70
0
  9
$DIMTOLJ
 70
0
  9
$DIMTZIN
 70
8
  9
$DIMALTZ
 70
0
  9
$DIMALTTZ
 70
0
  9
$DIMUPT
 70
0
  9
$DIMDEC
 70
2
  9
$DIMTDEC
 70
2
  9
$DIMALTU
 70
2
  9
$DIMALTTD
 70
3
  9
$DIMTXSTY
  7
Standard
  9
$DIMAUNIT
 70
0
  9
$DIMADEC
 70
0
  9
$DIMALTRND
 40
0.0
  9
$DIMAZIN
 70
0
  9
$DIMDSEP
 70
44
  9
$DIMATFIT
 70
3
  9
$DIMFRAC
 70
0
  9
$DIMLDRBLK
  1

  9
$DIMLUNIT
 70
2
  9
$DIMLWD
 70
-2
  9
$DIMLWE
 70
-2
  9
$DIMTMOVE
 70
0
  9
$LUNITS
 70
2
  9
$LUPREC
 70
4
  9
$SKETCHINC
 40
1.0
  9
$FILLETRAD
 40
10.0
  9
$AUNITS
 70
0
  9
$AUPREC
 70
2
  9
$MENU
  1
.
  9
$ELEVATION
 40
0.0
  9
$PELEVATION
 40
0.0
  9
$THICKNESS
 40
0.0
  9
$LIMCHECK
 70
0
  9
$CHAMFERA
 40
0.0
  9
$CHAMFERB
 40
0.0
  9
$CHAMFERC
 40
0.0
  9
$CHAMFERD
 40
0.0
  9
$SKPOLY
 70
0
  9
$TDCREATE
 40
2459260.7594791665
  9
$TDUCREATE
 40
2458532.153996898
  9
$TDUPDATE
 40
2459260.7594791665
  9
$TDUUPDATE
 40
2458532.1544311
  9
$TDINDWG
 40
0.0
  9
$TDUSRTIMER
 40
0.0
  9
$USRTIMER
 70
1
  9
$ANGBASE
 50
0.0
  9
$ANGDIR
 70
0
  9
$PDMODE
 70
0
  9
$PDSIZE
 40
0.0
  9
$PLINEWID
 40
0.0
  9
$SPLFRAME
 70
0
  9
$SPLINETYPE
 70
6
  9
$SPLINESEGS
 70
8
  9
$HANDSEED
  5
48
  9
$SURFTAB1
 70
6
  9
$SURFTAB2
 70
6
  9
$SURFTYPE
 70
6
  9
$SURFU
 70
6
  9
$SURFV
 70
6
  9
$UCSBASE
  2

  9
$UCSNAME
  2

  9
$UCSORG
 10
0.0
 20
0.0
 30
0.0
  9
$UCSXDIR
 10
1.0
 20
0.0
 30
0.0
  9
$UCSYDIR
 10
0.0
 20
1.0
 30
0.0
  9
$UCSORTHOREF
  2

  9
$UCSORTHOVIEW
 70
0
  9
$UCSORGTOP
 10
0.0
 20
0.0
 30
0.0
  9
$UCSORGBOTTOM
 10
0.0
 20
0.0
 30
0.0
  9
$UCSORGLEFT
 10
0.0
 20
0.0
 30
0.0
  9
$UCSORGRIGHT
 10
0.0
 20
0.0
 30
0.0
  9
$UCSORGFRONT
 10
0.0
 20
0.0
 30
0.0
  9
$UCSORGBACK
 10
0.0
 20
0.0
 30
0.0
  9
$PUCSBASE
  2

  9
$PUCSNAME
  2

  9
$PUCSORG
 10
0.0
 20
0.0
 30
0.0
  9
$PUCSXDIR
 10
1.0
 20
0.0
 30
0.0
  9
$PUCSYDIR
 10
0.0
 20
1.0
 30
0.0
  9
$PUCSORTHOREF
  2

  9
$PUCSORTHOVIEW
 70
0
  9
$PUCSORGTOP
 10
0.0
 20
0.0
 30
0.0
  9
$PUCSORGBOTTOM
 10
0.0
 20
0.0
 30
0.0
  9
$PUCSORGLEFT
 10
0.0
 20
0.0
 30
0.0
  9
$PUCSORGRIGHT
 10
0.0
 20
0.0
 30
0.0
  9
$PUCSORGFRONT
 10
0.0
 20
0.0
 30
0.0
  9
$PUCSORGBACK
 10
0.0
 20
0.0
 30
0.0
  9
$USERI1
 70
0
  9
$USERI2
 70
0
  9
$USERI3
 70
0
  9
$USERI4
 70
0
  9
$USERI5
 70
0
  9
$USERR1
 40
0.0
  9
$USERR2
 40
0.0
  9
$USERR3
 40
0.0
  9
$USERR4
 40
0.0
  9
$USERR5
 40
0.0
  9
$WORLDVIEW
 70
1
  9
$SHADEDGE
 70
3
  9
$SHADEDIF
 70
70
  9
$TILEMODE
 70
1
  9
$MAXACTVP
 70
64
  9
$PINSBASE
 10
0.0
 20
0.0
 30
0.0
  9
$PLIMCHECK
 70
0
  9
$PEXTMIN
 10
1e+20
 20
1e+20
 30
1e+20
  9
$PEXTMAX
 10
-1e+20
 20
-1e+20
 30
-1e+20
  9
$PLIMMIN
 10
0.0
 20
0.0
  9
$PLIMMAX
 10
420.0
 20
297.0
  9
$UNITMODE
 70
0
  9
$VISRETAIN
 70
1
  9
$PLINEGEN
 70
0
  9
$PSLTSCALE
 70
1
  9
$TREEDEPTH
 70
3020
  9
$CMLSTYLE
  2
Standard
  9
$CMLJUST
 70
0
  9
$CMLSCALE
 40
20.0
  9
$PROXYGRAPHICS
 70
1
  9
$MEASUREMENT
 70
1
  9
$CELWEIGHT
370
-1
  9
$ENDCAPS
280
0
  9
$JOINSTYLE
280
0
  9
$LWDISPLAY
290
0
  9
$INSUNITS
 70
6
  9
$HYPERLINKBASE
  1

  9
$STYLESHEET
  1

  9
$XEDIT
290
1
  9
$CEPSNTYPE
380
0
  9
$PSTYLEMODE
290
1
  9
$FINGERPRINTGUID
  2
5CF8F2FC-6EF0-11EB-AB0C-8C859081EEE8
  9
$VERSIONGUID
  2
5CFE547C-6EF0-11EB-AB0C-8C859081EEE8
  9
$EXTNAMES
290
1
  9
$PSVPSCALE
 40
0.0
  9
$OLESTARTUP
290
0
  0
ENDSEC
  0
SECTION
  2
CLASSES
  0
CLASS
  1
ACDBDICTIONARYWDFLT
  2
AcDbDictionaryWithDefault
  3
ObjectDBX Classes
 90
0
280
0
281
0
  0
CLASS
  1
SUN
  2
AcDbSun
  3
SCENEOE
 90
1153
280
0
281
0
  0
CLASS
  1
VISUALSTYLE
  2
AcDbVisualStyle
  3
ObjectDBX Classes
 90
4095
280
0
281
0
  0
CLASS
  1
MATERIAL
  2
AcDbMaterial
  3
ObjectDBX Classes
 90
1153
280
0
281
0
  0
CLASS
  1
SCALE
  2
AcDbScale
  3
ObjectDBX Classes
 90
1153
280
0
281
0
  0
CLASS
  1
TABLESTYLE
  2
AcDbTableStyle
  3
ObjectDBX Classes
 90
4095
280
0
281
0
  0
CLASS
  1
MLEADERSTYLE
  2
AcDbMLeaderStyle
  3
ACDB_MLEADERSTYLE_CLASS
 90
4095
280
0
281
0
  0
CLASS
  1
DICTIONARYVAR
  2
AcDbDictionaryVar
  3
ObjectDBX Classes
 90
0
280
0
281
0
  0
CLASS
  1
CELLSTYLEMAP
  2
AcDbCellStyleMap
  3
ObjectDBX Classes
 90
1152
280
0
281
0
  0
CLASS
  1
MENTALRAYRENDERSETTINGS
  2
AcDbMentalRayRenderSettings
  3
SCENEOE
 90
1024
280
0
281
0
  0
CLASS
  1
ACDBDETAILVIEWSTYLE
  2
AcDbDetailViewStyle
  3
ObjectDBX Classes
 90
1025
280
0
281
0
  0
CLASS
  1
ACDBSECTIONVIEWSTYLE
  2
AcDbSectionViewStyle
  3
ObjectDBX Classes
 90
1025
280
0
281
0
  0
CLASS
  1
RASTERVARIABLES
  2
AcDbRasterVariables
  3
ISM
 90
0
280
0
281
0
  0
CLASS
  1
ACDBPLACEHOLDER
  2
AcDbPlaceHolder
  3
ObjectDBX Classes
 90
0
280
0
281
0
  0
CLASS
  1
LAYOUT
  2
AcDbLayout
  3
ObjectDBX Classes
 90
0
280
0
281
0
  0
ENDSEC
  0
SECTION
  2
TABLES
  0
TABLE
  2
VPORT
  5
8
330
0
100
AcDbSymbolTable
 70
1
  0
VPORT
  5
23
330
8
100
AcDbSymbolTableRecord
100
AcDbViewportTableRecord
  2
*Active
 70
0
 10
0.0
 20
0.0
 11
1.0
 21
1.0
 12
70.0
 22
50.0
 13
0.0
 23
0.0
 14
0.5
 24
0.5
 15
0.5
 25
0.5
 16
0.0
 26
0.0
 36
1.0
 17
0.0
 27
0.0
 37
0.0
 40
1.0
 41
1.34
 42
50.0
 43
0.0
 44
0.0
 50
0.0
 51
0.0
 71
0
 72
1000
 73
1
 74
3
 75
0
 76
0
 77
0
 78
0
281
0
 65
0
146
0.0
  0
ENDTAB
  0
TABLE
  2
LTYPE
  5
2
330
0
100
AcDbSymbolTable
 70
3
  0
LTYPE
  5
24
330
2
100
AcDbSymbolTableRecord
100
AcDbLinetypeTableRecord
  2
ByBlock
 70
0
  3

 72
65
 73
0
 40
0.0
  0
LTYPE
  5
25
330
2
100
AcDbSymbolTableRecord
100
AcDbLinetypeTableRecord
  2
ByLayer
 70
0
  3

 72
65
 73
0
 40
0.0
  0
LTYPE
  5
26
330
2
100
AcDbSymbolTableRecord
100
AcDbLinetypeTableRecord
  2
Continuous
 70
0
  3

 72
65
 73
0
 40
0.0
  0
ENDTAB
  0
TABLE
  2
LAYER
  5
1
330
0
100
AcDbSymbolTable
 70
2
  0
LAYER
  5
27
330
1
100
AcDbSymbolTableRecord
100
AcDbLayerTableRecord
  2
0
 70
0
 62
7
  6
Continuous
370
-3
390
13
  0
LAYER
  5
28
330
1
100
AcDbSymbolTableRecord
100
AcDbLayerTableRecord
  2
Defpoints
 70
0
 62
7
  6
Continuous
290
0
370
-3
390
13
  0
ENDTAB
  0
TABLE
  2
STYLE
  5
5
330
0
100
AcDbSymbolTable
 70
1
  0
STYLE
  5
29
330
5
100
AcDbSymbolTableRecord
100
AcDbTextStyleTableRecord
  2
Standard
 70
0
 40
0.0
 41
1.0
 50
0.0
 71
0
 42
2.5
  3
txt
  4

  0
ENDTAB
  0
TABLE
  2
VIEW
  5
7
330
0
100
AcDbSymbolTable
 70
0
  0
ENDTAB
  0
TABLE
  2
UCS
  5
6
330
0
100
AcDbSymbolTable
 70
0
  0
ENDTAB
  0
TABLE
  2
APPID
  5
3
330
0
100
AcDbSymbolTable
 70
1
  0
APPID
  5
2A
330
3
100
AcDbSymbolTableRecord
100
AcDbRegAppTableRecord
  2
ACAD
 70
0
  0
ENDTAB
  0
TABLE
  2
DIMSTYLE
  5
4
330
0
100
AcDbSymbolTable
 70
1
100
AcDbDimStyleTable
  0
DIMSTYLE
105
2B
330
4
100
AcDbSymbolTableRecord
100
AcDbDimStyleTableRecord
  2
Standard
 70
0
  3

  4

 40
1.0
 41
2.5
 42
0.625
 43
3.75
 44
1.25
 45
0.0
 46
0.0
 47
0.0
 48
0.0
140
2.5
141
2.5
142
0.0
143
0.03937007874
144
1.0
145
0.0
146
1.0
147
0.625
148
0.0
 71
0
 72
0
 73
0
 74
0
 75
0
 76
0
 77
1
 78
8
 79
0
170
0
171
3
172
1
173
0
174
0
175
0
176
0
177
0
178
0
179
0
271
0
272
2
273
2
274
3
275
0
276
0
277
2
278
44
279
0
280
0
281
0
282
0
283
0
284
8
285
0
286
0
288
0
289
3
371
-2
372
-2
  0
ENDTAB
  0
TABLE
  2
BLOCK_RECORD
  5
9
330
0
100
AcDbSymbolTable
 70
2
  0
BLOCK_RECORD
  5
17
330
9
100
AcDbSymbolTableRecord
100
AcDbBlockTableRecord
  2
*Model_Space
340
1A
  0
BLOCK_RECORD
  5
1B
330
9
100
AcDbSymbolTableRecord
100
AcDbBlockTableRecord
  2
*Paper_Space
340
1E
  0
ENDTAB
  0
ENDSEC
  0
SECTION
  2
BLOCKS
  0
BLOCK
  5
18
330
17
100
AcDbEntity
  8
0
100
AcDbBlockBegin
  2
*Model_Space
 70
0
 10
0.0
 20
0.0
 30
0.0
  3
*Model_Space
  1

  0
ENDBLK
  5
19
330
17
100
AcDbEntity
  8
0
100
AcDbBlockEnd
  0
BLOCK
  5
1C
330
1B
100
AcDbEntity
  8
0
100
AcDbBlockBegin
  2
*Paper_Space
 70
0
 10
0.0
 20
0.0
 30
0.0
  3
*Paper_Space
  1

  0
ENDBLK
  5
1D
330
1B
100
AcDbEntity
  8
0
100
AcDbBlockEnd
  0
ENDSEC
  0
SECTION
  2
ENTITIES
  0
LWPOLYLINE
  5
2D
330
17
100
AcDbEntity
  8
0
100
AcDbPolyline
 90
5
 70
0
 43
0.0
 10
482.6
 20
0.0
 10
0.0
 20
0.0
 10
0.0
 20
88.0
 10
482.6
 20
88.0
 10
482.6
 20
0.0
  0
LWPOLYLINE
  5
2E
330
17
100
AcDbEntity
  8
0
100
AcDbPolyline
 90
104
 70
0
 43
0.0
 10
7.74976
 20
9.1996
 10
7.55075
 20
9.1965
 10
7.35231
 20
9.18105
 10
7.15521
 20
9.15327
 10
6.96024
 20
9.11331
 10
6.76811
 20
9.06129
 10
6.57959
 20
8.99744
 10
6.3954
 20
8.92198
 10
6.21626
 20
8.83524
 10
6.04288
 20
8.7375
 10
5.87589
 20
8.62918
 10
5.71596
 20
8.5107
 10
5.56371
 20
8.38249
 10
5.41972
 20
8.24507
 10
5.28456
 20
8.09897
 10
5.15874
 20
7.94473
 10
5.04276
 20
7.78299
 10
4.93704
 20
7.61433
 10
4.84203
 20
7.43944
 10
4.75806
 20
7.25899
 10
4.68549
 20
7.07364
 10
4.62457
 20
6.88416
 10
4.57555
 20
6.69125
 10
4.53862
 20
6.49567
 10
4.51392
 20
6.29817
 10
4.50154
 20
6.09952
 10
4.50154
 20
5.90047
 10
4.51392
 20
5.70181
 10
4.53862
 20
5.50432
 10
4.57555
 20
5.30873
 10
4.62457
 20
5.11583
 10
4.68549
 20
4.92635
 10
4.75806
 20
4.741
 10
4.84203
 20
4.56055
 10
4.93704
 20
4.38565
 10
5.04276
 20
4.217
 10
5.15874
 20
4.05525
 10
5.28456
 20
3.90102
 10
5.41972
 20
3.75491
 10
5.56371
 20
3.61749
 10
5.71596
 20
3.48929
 10
5.87589
 20
3.3708
 10
6.04288
 20
3.26248
 10
6.21626
 20
3.16475
 10
6.3954
 20
3.078
 10
6.57959
 20
3.00255
 10
6.76811
 20
2.93869
 10
6.96024
 20
2.88667
 10
7.15521
 20
2.84671
 10
7.35231
 20
2.81894
 10
7.55075
 20
2.80348
 10
7.74976
 20
2.80038
 10
11.0498
 20
2.80038
 10
11.2486
 20
2.80966
 10
11.4464
 20
2.83128
 10
11.6426
 20
2.86517
 10
11.8362
 20
2.91119
 10
12.0266
 20
2.96915
 10
12.2131
 20
3.03883
 10
12.3948
 20
3.11998
 10
12.5712
 20
3.21227
 10
12.7414
 20
3.31534
 10
12.905
 20
3.4288
 10
13.0611
 20
3.55222
 10
13.2093
 20
3.68509
 10
13.349
 20
3.82692
 10
13.4795
 20
3.97716
 10
13.6005
 20
4.13522
 10
13.7114
 20
4.30051
 10
13.8118
 20
4.47235
 10
13.9014
 20
4.65012
 10
13.9797
 20
4.83311
 10
14.0464
 20
5.02061
 10
14.1014
 20
5.2119
 10
14.1444
 20
5.40623
 10
14.1753
 20
5.60287
 10
14.1938
 20
5.80106
 10
14.2
 20
6.0
 10
14.1938
 20
6.19893
 10
14.1753
 20
6.39711
 10
14.1444
 20
6.59375
 10
14.1014
 20
6.78809
 10
14.0464
 20
6.97937
 10
13.9797
 20
7.16687
 10
13.9014
 20
7.34987
 10
13.8118
 20
7.52763
 10
13.7114
 20
7.69948
 10
13.6005
 20
7.86476
 10
13.4795
 20
8.02283
 10
13.349
 20
8.17307
 10
13.2093
 20
8.3149
 10
13.0611
 20
8.44777
 10
12.905
 20
8.57118
 10
12.7414
 20
8.68465
 10
12.5712
 20
8.78772
 10
12.3948
 20
8.88
 10
12.2131
 20
8.96115
 10
12.0266
 20
9.03084
 10
11.8362
 20
9.08879
 10
11.6426
 20
9.13481
 10
11.4464
 20
9.1687
 10
11.2486
 20
9.19032
 10
11.0498
 20
9.1996
 10
7.74976
 20
9.1996
  0
LWPOLYLINE
  5
2F
330
17
100
AcDbEntity
  8
0
100
AcDbPolyline
 90
104
 70
0
 43
0.0
 10
471.65
 20
9.1996
 10
471.451
 20
9.1965
 10
471.252
 20
9.18105
 10
471.055
 20
9.15327
 10
470.86
 20
9.11331
 10
470.668
 20
9.06129
 10
470.48
 20
8.99744
 10
470.295
 20
8.92198
 10
470.116
 20
8.83524
 10
469.943
 20
8.7375
 10
469.776
 20
8.62918
 10
469.616
 20
8.5107
 10
469.464
 20
8.38249
 10
469.32
 20
8.24507
 10
469.185
 20
8.09897
 10
469.059
 20
7.94473
 10
468.943
 20
7.78299
 10
468.837
 20
7.61433
 10
468.742
 20
7.43944
 10
468.658
 20
7.25899
 10
468.585
 20
7.07364
 10
468.525
 20
6.88416
 10
468.476
 20
6.69125
 10
468.439
 20
6.49567
 10
468.414
 20
6.29817
 10
468.402
 20
6.09952
 10
468.402
 20
5.90047
 10
468.414
 20
5.70181
 10
468.439
 20
5.50432
 10
468.476
 20
5.30873
 10
468.525
 20
5.11583
 10
468.585
 20
4.92635
 10
468.658
 20
4.741
 10
468.742
 20
4.56055
 10
468.837
 20
4.38565
 10
468.943
 20
4.217
 10
469.059
 20
4.05525
 10
469.185
 20
3.90102
 10
469.32
 20
3.75491
 10
469.464
 20
3.61749
 10
469.616
 20
3.48929
 10
469.776
 20
3.3708
 10
469.943
 20
3.26248
 10
470.116
 20
3.16475
 10
470.295
 20
3.078
 10
470.48
 20
3.00255
 10
470.668
 20
2.93869
 10
470.86
 20
2.88667
 10
471.055
 20
2.84671
 10
471.252
 20
2.81894
 10
471.451
 20
2.80348
 10
471.65
 20
2.80038
 10
474.95
 20
2.80038
 10
475.149
 20
2.80966
 10
475.346
 20
2.83128
 10
475.543
 20
2.86517
 10
475.736
 20
2.91119
 10
475.927
 20
2.96915
 10
476.113
 20
3.03883
 10
476.295
 20
3.11998
 10
476.471
 20
3.21227
 10
476.641
 20
3.31534
 10
476.805
 20
3.4288
 10
476.961
 20
3.55222
 10
477.109
 20
3.68509
 10
477.249
 20
3.82692
 10
477.38
 20
3.97716
 10
477.501
 20
4.13522
 10
477.611
 20
4.30051
 10
477.712
 20
4.47235
 10
477.801
 20
4.65012
 10
477.88
 20
4.83311
 10
477.946
 20
5.02061
 10
478.001
 20
5.2119
 10
478.044
 20
5.40623
 10
478.075
 20
5.60287
 10
478.094
 20
5.80106
 10
478.1
 20
6.0
 10
478.094
 20
6.19893
 10
478.075
 20
6.39711
 10
478.044
 20
6.59375
 10
478.001
 20
6.78809
 10
477.946
 20
6.97937
 10
477.88
 20
7.16687
 10
477.801
 20
7.34987
 10
477.712
 20
7.52763
 10
477.611
 20
7.69948
 10
477.501
 20
7.86476
 10
477.38
 20
8.02283
 10
477.249
 20
8.17307
 10
477.109
 20
8.3149
 10
476.961
 20
8.44777
 10
476.805
 20
8.57118
 10
476.641
 20
8.68465
 10
476.471
 20
8.78772
 10
476.295
 20
8.88
 10
476.113
 20
8.96115
 10
475.927
 20
9.03084
 10
475.736
 20
9.08879
 10
475.543
 20
9.13481
 10
475.346
 20
9.1687
 10
475.149
 20
9.19032
 10
474.95
 20
9.1996
 10
471.65
 20
9.1996
  0
LWPOLYLINE
  5
30
330
17
100
AcDbEntity
  8
0
100
AcDbPolyline
 90
45
 70
0
 43
0.0
 10
53.4043
 20
13.061
 10
53.2126
 20
13.0193
 10
53.0288
 20
12.9507
 10
52.8566
 20
12.8567
 10
52.6996
 20
12.7392
 10
52.5609
 20
12.6004
 10
52.4433
 20
12.4434
 10
52.3493
 20
12.2712
 10
52.2807
 20
12.0874
 10
52.239
 20
11.8957
 10
52.225
 20
11.7
 10
52.239
 20
11.5043
 10
52.2807
 20
11.3126
 10
52.3493
 20
11.1288
 10
52.4433
 20
10.9566
 10
52.5609
 20
10.7996
 10
52.6996
 20
10.6609
 10
52.8566
 20
10.5433
 10
53.0288
 20
10.4493
 10
53.2126
 20
10.3807
 10
53.4043
 20
10.339
 10
53.6
 20
10.325
 10
53.7957
 20
10.339
 10
53.9874
 20
10.3807
 10
54.1712
 20
10.4493
 10
54.3434
 20
10.5433
 10
54.5004
 20
10.6609
 10
54.6392
 20
10.7996
 10
54.7567
 20
10.9566
 10
54.8508
 20
11.1288
 10
54.9193
 20
11.3126
 10
54.961
 20
11.5043
 10
54.975
 20
11.7
 10
54.961
 20
11.8957
 10
54.9193
 20
12.0874
 10
54.8508
 20
12.2712
 10
54.7567
 20
12.4434
 10
54.6392
 20
12.6004
 10
54.5004
 20
12.7392
 10
54.3434
 20
12.8567
 10
54.1712
 20
12.9507
 10
53.9874
 20
13.0193
 10
53.7957
 20
13.061
 10
53.6
 20
13.075
 10
53.4043
 20
13.061
  0
LWPOLYLINE
  5
31
330
17
100
AcDbEntity
  8
0
100
AcDbPolyline
 90
45
 70
0
 43
0.0
 10
166.204
 20
13.061
 10
166.013
 20
13.0193
 10
165.829
 20
12.9507
 10
165.657
 20
12.8567
 10
165.5
 20
12.7392
 10
165.361
 20
12.6004
 10
165.243
 20
12.4434
 10
165.149
 20
12.2712
 10
165.081
 20
12.0874
 10
165.039
 20
11.8957
 10
165.025
 20
11.7
 10
165.039
 20
11.5043
 10
165.081
 20
11.3126
 10
165.149
 20
11.1288
 10
165.243
 20
10.9566
 10
165.361
 20
10.7996
 10
165.5
 20
10.6609
 10
165.657
 20
10.5433
 10
165.829
 20
10.4493
 10
166.013
 20
10.3807
 10
166.204
 20
10.339
 10
166.4
 20
10.325
 10
166.596
 20
10.339
 10
166.787
 20
10.3807
 10
166.971
 20
10.4493
 10
167.143
 20
10.5433
 10
167.3
 20
10.6609
 10
167.439
 20
10.7996
 10
167.557
 20
10.9566
 10
167.651
 20
11.1288
 10
167.719
 20
11.3126
 10
167.761
 20
11.5043
 10
167.775
 20
11.7
 10
167.761
 20
11.8957
 10
167.719
 20
12.0874
 10
167.651
 20
12.2712
 10
167.557
 20
12.4434
 10
167.439
 20
12.6004
 10
167.3
 20
12.7392
 10
167.143
 20
12.8567
 10
166.971
 20
12.9507
 10
166.787
 20
13.0193
 10
166.596
 20
13.061
 10
166.4
 20
13.075
 10
166.204
 20
13.061
  0
LWPOLYLINE
  5
32
330
17
100
AcDbEntity
  8
0
100
AcDbPolyline
 90
45
 70
0
 43
0.0
 10
191.304
 20
13.061
 10
191.113
 20
13.0193
 10
190.929
 20
12.9507
 10
190.757
 20
12.8567
 10
190.6
 20
12.7392
 10
190.461
 20
12.6004
 10
190.343
 20
12.4434
 10
190.249
 20
12.2712
 10
190.181
 20
12.0874
 10
190.139
 20
11.8957
 10
190.125
 20
11.7
 10
190.139
 20
11.5043
 10
190.181
 20
11.3126
 10
190.249
 20
11.1288
 10
190.343
 20
10.9566
 10
190.461
 20
10.7996
 10
190.6
 20
10.6609
 10
190.757
 20
10.5433
 10
190.929
 20
10.4493
 10
191.113
 20
10.3807
 10
191.304
 20
10.339
 10
191.5
 20
10.325
 10
191.696
 20
10.339
 10
191.887
 20
10.3807
 10
192.071
 20
10.4493
 10
192.243
 20
10.5433
 10
192.4
 20
10.6609
 10
192.539
 20
10.7996
 10
192.657
 20
10.9566
 10
192.751
 20
11.1288
 10
192.819
 20
11.3126
 10
192.861
 20
11.5043
 10
192.875
 20
11.7
 10
192.861
 20
11.8957
 10
192.819
 20
12.0874
 10
192.751
 20
12.2712
 10
192.657
 20
12.4434
 10
192.539
 20
12.6004
 10
192.4
 20
12.7392
 10
192.243
 20
12.8567
 10
192.071
 20
12.9507
 10
191.887
 20
13.0193
 10
191.696
 20
13.061
 10
191.5
 20
13.075
 10
191.304
 20
13.061
  0
LWPOLYLINE
  5
33
330
17
100
AcDbEntity
  8
0
100
AcDbPolyline
 90
45
 70
0
 43
0.0
 10
380.304
 20
13.061
 10
380.113
 20
13.0193
 10
379.929
 20
12.9507
 10
379.757
 20
12.8567
 10
379.6
 20
12.7392
 10
379.461
 20
12.6004
 10
379.343
 20
12.4434
 10
379.249
 20
12.2712
 10
379.181
 20
12.0874
 10
379.139
 20
11.8957
 10
379.125
 20
11.7
 10
379.139
 20
11.5043
 10
379.181
 20
11.3126
 10
379.249
 20
11.1288
 10
379.343
 20
10.9566
 10
379.461
 20
10.7996
 10
379.6
 20
10.6609
 10
379.757
 20
10.5433
 10
379.929
 20
10.4493
 10
380.113
 20
10.3807
 10
380.304
 20
10.339
 10
380.5
 20
10.325
 10
380.696
 20
10.339
 10
380.887
 20
10.3807
 10
381.071
 20
10.4493
 10
381.243
 20
10.5433
 10
381.4
 20
10.6609
 10
381.539
 20
10.7996
 10
381.657
 20
10.9566
 10
381.751
 20
11.1288
 10
381.819
 20
11.3126
 10
381.861
 20
11.5043
 10
381.875
 20
11.7
 10
381.861
 20
11.8957
 10
381.819
 20
12.0874
 10
381.751
 20
12.2712
 10
381.657
 20
12.4434
 10
381.539
 20
12.6004
 10
381.4
 20
12.7392
 10
381.243
 20
12.8567
 10
381.071
 20
12.9507
 10
380.887
 20
13.0193
 10
380.696
 20
13.061
 10
380.5
 20
13.075
 10
380.304
 20
13.061
  0
LWPOLYLINE
  5
34
330
17
100
AcDbEntity
  8
0
100
AcDbPolyline
 90
181
 70
0
 43
0.0
 10
444.572
 20
41.2425
 10
444.145
 20
41.2202
 10
443.72
 20
41.1829
 10
443.295
 20
41.1308
 10
442.873
 20
41.0639
 10
442.453
 20
40.9823
 10
442.036
 20
40.8861
 10
441.623
 20
40.7755
 10
441.215
 20
40.6504
 10
440.81
 20
40.5112
 10
440.411
 20
40.358
 10
440.017
 20
40.1909
 10
439.63
 20
40.0102
 10
439.249
 20
39.8161
 10
438.875
 20
39.6088
 10
438.508
 20
39.3886
 10
438.15
 20
39.1557
 10
437.8
 20
38.9104
 10
437.458
 20
38.6531
 10
437.126
 20
38.384
 10
436.803
 20
38.1035
 10
436.49
 20
37.8119
 10
436.188
 20
37.5096
 10
435.896
 20
37.1968
 10
435.616
 20
36.8741
 10
435.347
 20
36.5418
 10
435.09
 20
36.2004
 10
434.844
 20
35.8501
 10
434.611
 20
35.4915
 10
434.391
 20
35.125
 10
434.184
 20
34.751
 10
433.99
 20
34.37
 10
433.809
 20
33.9825
 10
433.642
 20
33.5889
 10
433.489
 20
33.1897
 10
433.35
 20
32.7854
 10
433.225
 20
32.3766
 10
433.114
 20
31.9635
 10
433.018
 20
31.5469
 10
432.936
 20
31.1272
 10
432.869
 20
30.7049
 10
432.817
 20
30.2805
 10
432.78
 20
29.8545
 10
432.757
 20
29.4275
 10
432.75
 20
29.0
 10
432.757
 20
28.5725
 10
432.78
 20
28.1455
 10
432.817
 20
27.7195
 10
432.869
 20
27.2951
 10
432.936
 20
26.8728
 10
433.018
 20
26.4531
 10
433.114
 20
26.0365
 10
433.225
 20
25.6234
 10
433.35
 20
25.2146
 10
433.489
 20
24.8103
 10
433.642
 20
24.4111
 10
433.809
 20
24.0175
 10
433.99
 20
23.63
 10
434.184
 20
23.249
 10
434.391
 20
22.875
 10
434.611
 20
22.5085
 10
434.844
 20
22.1499
 10
435.09
 20
21.7996
 10
435.347
 20
21.4582
 10
435.616
 20
21.1259
 10
435.896
 20
20.8032
 10
436.188
 20
20.4904
 10
436.49
 20
20.1881
 10
436.803
 20
19.8965
 10
437.126
 20
19.616
 10
437.458
 20
19.3469
 10
437.8
 20
19.0896
 10
438.15
 20
18.8443
 10
438.508
 20
18.6114
 10
438.875
 20
18.3912
 10
439.249
 20
18.1839
 10
439.63
 20
17.9898
 10
440.017
 20
17.8091
 10
440.411
 20
17.642
 10
440.81
 20
17.4888
 10
441.215
 20
17.3496
 10
441.623
 20
17.2245
 10
442.036
 20
17.1139
 10
442.453
 20
17.0177
 10
442.873
 20
16.9361
 10
443.295
 20
16.8692
 10
443.72
 20
16.8171
 10
444.145
 20
16.7798
 10
444.572
 20
16.7575
 10
445.0
 20
16.75
 10
445.428
 20
16.7575
 10
445.855
 20
16.7798
 10
446.28
 20
16.8171
 10
446.705
 20
16.8692
 10
447.127
 20
16.9361
 10
447.547
 20
17.0177
 10
447.964
 20
17.1139
 10
448.377
 20
17.2245
 10
448.785
 20
17.3496
 10
449.19
 20
17.4888
 10
449.589
 20
17.642
 10
449.983
 20
17.8091
 10
450.37
 20
17.9898
 10
450.751
 20
18.1839
 10
451.125
 20
18.3912
 10
451.492
 20
18.6114
 10
451.85
 20
18.8443
 10
452.2
 20
19.0896
 10
452.542
 20
19.3469
 10
452.874
 20
19.616
 10
453.197
 20
19.8965
 10
453.51
 20
20.1881
 10
453.812
 20
20.4904
 10
454.104
 20
20.8032
 10
454.384
 20
21.1259
 10
454.653
 20
21.4582
 10
454.91
 20
21.7996
 10
455.156
 20
22.1499
 10
455.389
 20
22.5085
 10
455.609
 20
22.875
 10
455.816
 20
23.249
 10
456.01
 20
23.63
 10
456.191
 20
24.0175
 10
456.358
 20
24.4111
 10
456.511
 20
24.8103
 10
456.65
 20
25.2146
 10
456.775
 20
25.6234
 10
456.886
 20
26.0365
 10
456.982
 20
26.4531
 10
457.064
 20
26.8728
 10
457.131
 20
27.2951
 10
457.183
 20
27.7195
 10
457.22
 20
28.1455
 10
457.243
 20
28.5725
 10
457.25
 20
29.0
 10
457.243
 20
29.4275
 10
457.22
 20
29.8545
 10
457.183
 20
30.2805
 10
457.131
 20
30.7049
 10
457.064
 20
31.1272
 10
456.982
 20
31.5469
 10
456.886
 20
31.9635
 10
456.775
 20
32.3766
 10
456.65
 20
32.7854
 10
456.511
 20
33.1897
 10
456.358
 20
33.5889
 10
456.191
 20
33.9825
 10
456.01
 20
34.37
 10
455.816
 20
34.751
 10
455.609
 20
35.125
 10
455.389
 20
35.4915
 10
455.156
 20
35.8501
 10
454.91
 20
36.2004
 10
454.653
 20
36.5418
 10
454.384
 20
36.8741
 10
454.104
 20
37.1968
 10
453.812
 20
37.5096
 10
453.51
 20
37.8119
 10
453.197
 20
38.1035
 10
452.874
 20
38.384
 10
452.542
 20
38.6531
 10
452.2
 20
38.9104
 10
451.85
 20
39.1557
 10
451.492
 20
39.3886
 10
451.125
 20
39.6088
 10
450.751
 20
39.8161
 10
450.37
 20
40.0102
 10
449.983
 20
40.1909
 10
449.589
 20
40.358
 10
449.19
 20
40.5112
 10
448.785
 20
40.6504
 10
448.377
 20
40.7755
 10
447.964
 20
40.8861
 10
447.547
 20
40.9823
 10
447.127
 20
41.0639
 10
446.705
 20
41.1308
 10
446.28
 20
41.1829
 10
445.855
 20
41.2202
 10
445.428
 20
41.2425
 10
445.0
 20
41.25
 10
444.572
 20
41.2425
  0
LWPOLYLINE
  5
35
330
17
100
AcDbEntity
  8
0
100
AcDbPolyline
 90
45
 70
0
 43
0.0
 10
455.508
 20
19.7649
 10
455.314
 20
19.737
 10
455.126
 20
19.6817
 10
454.948
 20
19.6002
 10
454.783
 20
19.4942
 10
454.634
 20
19.3657
 10
454.506
 20
19.2174
 10
454.4
 20
19.0524
 10
454.318
 20
18.8739
 10
454.263
 20
18.6857
 10
454.235
 20
18.4915
 10
454.235
 20
18.2953
 10
454.263
 20
18.1011
 10
454.318
 20
17.9129
 10
454.4
 20
17.7344
 10
454.506
 20
17.5694
 10
454.634
 20
17.4211
 10
454.783
 20
17.2927
 10
454.948
 20
17.1866
 10
455.126
 20
17.1051
 10
455.314
 20
17.0498
 10
455.508
 20
17.0219
 10
455.705
 20
17.0219
 10
455.899
 20
17.0498
 10
456.087
 20
17.1051
 10
456.266
 20
17.1866
 10
456.431
 20
17.2927
 10
456.579
 20
17.4211
 10
456.707
 20
17.5694
 10
456.813
 20
17.7344
 10
456.895
 20
17.9129
 10
456.95
 20
18.1011
 10
456.978
 20
18.2953
 10
456.978
 20
18.4915
 10
456.95
 20
18.6857
 10
456.895
 20
18.8739
 10
456.813
 20
19.0524
 10
456.707
 20
19.2174
 10
456.579
 20
19.3657
 10
456.431
 20
19.4942
 10
456.266
 20
19.6002
 10
456.087
 20
19.6817
 10
455.899
 20
19.737
 10
455.705
 20
19.7649
 10
455.508
 20
19.7649
  0
LWPOLYLINE
  5
36
330
17
100
AcDbEntity
  8
0
100
AcDbPolyline
 90
185
 70
0
 43
0.0
 10
183.5
 20
70.8
 10
183.291
 20
70.7963
 10
183.081
 20
70.7854
 10
182.873
 20
70.7671
 10
182.665
 20
70.7416
 10
182.458
 20
70.7088
 10
182.253
 20
70.6689
 10
182.048
 20
70.6218
 10
181.846
 20
70.5676
 10
181.646
 20
70.5063
 10
181.448
 20
70.4381
 10
181.252
 20
70.3631
 10
181.06
 20
70.2813
 10
180.87
 20
70.1927
 10
180.683
 20
70.0977
 10
180.5
 20
69.9961
 10
180.32
 20
69.8883
 10
180.145
 20
69.7742
 10
179.973
 20
69.6541
 10
179.806
 20
69.528
 10
179.643
 20
69.3963
 10
179.485
 20
69.2589
 10
179.332
 20
69.116
 10
179.184
 20
68.9679
 10
179.041
 20
68.8148
 10
178.904
 20
68.6567
 10
178.772
 20
68.494
 10
178.646
 20
68.3267
 10
178.526
 20
68.1552
 10
178.412
 20
67.9795
 10
178.304
 20
67.8
 10
178.202
 20
67.6168
 10
178.107
 20
67.4302
 10
178.019
 20
67.2404
 10
177.937
 20
67.0476
 10
177.862
 20
66.8521
 10
177.794
 20
66.6541
 10
177.732
 20
66.4538
 10
177.678
 20
66.2515
 10
177.631
 20
66.0475
 10
177.591
 20
65.8419
 10
177.558
 20
65.635
 10
177.533
 20
65.4272
 10
177.515
 20
65.2185
 10
177.504
 20
65.0094
 10
177.5
 20
64.8
 10
177.5
 20
23.2
 10
177.504
 20
22.9906
 10
177.515
 20
22.7815
 10
177.533
 20
22.5728
 10
177.558
 20
22.365
 10
177.591
 20
22.1581
 10
177.631
 20
21.9525
 10
177.678
 20
21.7485
 10
177.732
 20
21.5462
 10
177.794
 20
21.3459
 10
177.862
 20
21.1479
 10
177.937
 20
20.9524
 10
178.019
 20
20.7596
 10
178.107
 20
20.5698
 10
178.202
 20
20.3832
 10
178.304
 20
20.2
 10
178.412
 20
20.0205
 10
178.526
 20
19.8448
 10
178.646
 20
19.6733
 10
178.772
 20
19.506
 10
178.904
 20
19.3433
 10
179.041
 20
19.1852
 10
179.184
 20
19.0321
 10
179.332
 20
18.884
 10
179.485
 20
18.7411
 10
179.643
 20
18.6037
 10
179.806
 20
18.472
 10
179.973
 20
18.3459
 10
180.145
 20
18.2258
 10
180.32
 20
18.1117
 10
180.5
 20
18.0039
 10
180.683
 20
17.9023
 10
180.87
 20
17.8073
 10
181.06
 20
17.7187
 10
181.252
 20
17.6369
 10
181.448
 20
17.5619
 10
181.646
 20
17.4937
 10
181.846
 20
17.4324
 10
182.048
 20
17.3782
 10
182.253
 20
17.3311
 10
182.458
 20
17.2912
 10
182.665
 20
17.2584
 10
182.873
 20
17.2329
 10
183.081
 20
17.2146
 10
183.291
 20
17.2037
 10
183.5
 20
17.2
 10
388.5
 20
17.2
 10
388.709
 20
17.2037
 10
388.919
 20
17.2146
 10
389.127
 20
17.2329
 10
389.335
 20
17.2584
 10
389.542
 20
17.2912
 10
389.747
 20
17.3311
 10
389.952
 20
17.3782
 10
390.154
 20
17.4324
 10
390.354
 20
17.4937
 10
390.552
 20
17.5619
 10
390.748
 20
17.6369
 10
390.94
 20
17.7187
 10
391.13
 20
17.8073
 10
391.317
 20
17.9023
 10
391.5
 20
18.0039
 10
391.68
 20
18.1117
 10
391.855
 20
18.2258
 10
392.027
 20
18.3459
 10
392.194
 20
18.472
 10
392.357
 20
18.6037
 10
392.515
 20
18.7411
 10
392.668
 20
18.884
 10
392.816
 20
19.0321
 10
392.959
 20
19.1852
 10
393.096
 20
19.3433
 10
393.228
 20
19.506
 10
393.354
 20
19.6733
 10
393.474
 20
19.8448
 10
393.588
 20
20.0205
 10
393.696
 20
20.2
 10
393.798
 20
20.3832
 10
393.893
 20
20.5698
 10
393.981
 20
20.7596
 10
394.063
 20
20.9524
 10
394.138
 20
21.1479
 10
394.206
 20
21.3459
 10
394.268
 20
21.5462
 10
394.322
 20
21.7485
 10
394.369
 20
21.9525
 10
394.409
 20
22.1581
 10
394.442
 20
22.365
 10
394.467
 20
22.5728
 10
394.485
 20
22.7815
 10
394.496
 20
22.9906
 10
394.5
 20
23.2
 10
394.5
 20
64.8
 10
394.496
 20
65.0094
 10
394.485
 20
65.2185
 10
394.467
 20
65.4272
 10
394.442
 20
65.635
 10
394.409
 20
65.8419
 10
394.369
 20
66.0475
 10
394.322
 20
66.2515
 10
394.268
 20
66.4538
 10
394.206
 20
66.6541
 10
394.138
 20
66.8521
 10
394.063
 20
67.0476
 10
393.981
 20
67.2404
 10
393.893
 20
67.4302
 10
393.798
 20
67.6168
 10
393.696
 20
67.8
 10
393.588
 20
67.9795
 10
393.474
 20
68.1552
 10
393.354
 20
68.3267
 10
393.228
 20
68.494
 10
393.096
 20
68.6567
 10
392.959
 20
68.8148
 10
392.816
 20
68.9679
 10
392.668
 20
69.116
 10
392.515
 20
69.2589
 10
392.357
 20
69.3963
 10
392.194
 20
69.528
 10
392.027
 20
69.6541
 10
391.855
 20
69.7742
 10
391.68
 20
69.8883
 10
391.5
 20
69.9961
 10
391.317
 20
70.0977
 10
391.13
 20
70.1927
 10
390.94
 20
70.2813
 10
390.748
 20
70.3631
 10
390.552
 20
70.4381
 10
390.354
 20
70.5063
 10
390.154
 20
70.5676
 10
389.952
 20
70.6218
 10
389.747
 20
70.6689
 10
389.542
 20
70.7088
 10
389.335
 20
70.7416
 10
389.127
 20
70.7671
 10
388.919
 20
70.7854
 10
388.709
 20
70.7963
 10
388.5
 20
70.8
 10
183.5
 20
70.8
  0
LWPOLYLINE
  5
37
330
17
100
AcDbEntity
  8
0
100
AcDbPolyline
 90
96
 70
0
 43
0.0
 10
412.752
 20
24.9898
 10
412.555
 20
24.9669
 10
412.36
 20
24.931
 10
412.168
 20
24.8823
 10
411.979
 20
24.821
 10
411.795
 20
24.7473
 10
411.616
 20
24.6617
 10
411.443
 20
24.5644
 10
411.277
 20
24.4559
 10
411.118
 20
24.3366
 10
410.968
 20
24.2072
 10
410.827
 20
24.0681
 10
410.695
 20
23.9199
 10
410.573
 20
23.7634
 10
410.462
 20
23.5991
 10
410.362
 20
23.4279
 10
410.273
 20
23.2504
 10
410.196
 20
23.0674
 10
410.132
 20
22.8798
 10
410.08
 20
22.6883
 10
410.041
 20
22.4938
 10
410.015
 20
22.2971
 10
410.002
 20
22.0992
 10
410.002
 20
21.9008
 10
410.015
 20
21.7029
 10
410.041
 20
21.5062
 10
410.08
 20
21.3117
 10
410.132
 20
21.1203
 10
410.196
 20
20.9326
 10
410.273
 20
20.7497
 10
410.362
 20
20.5722
 10
410.462
 20
20.4009
 10
410.573
 20
20.2366
 10
410.695
 20
20.0801
 10
410.827
 20
19.9319
 10
410.968
 20
19.7928
 10
411.118
 20
19.6634
 10
411.277
 20
19.5441
 10
411.443
 20
19.4356
 10
411.616
 20
19.3383
 10
411.795
 20
19.2527
 10
411.979
 20
19.179
 10
412.168
 20
19.1178
 10
412.36
 20
19.069
 10
412.555
 20
19.0332
 10
412.752
 20
19.0103
 10
412.95
 20
19.0004
 10
413.149
 20
19.0037
 10
413.346
 20
19.0201
 10
413.543
 20
19.0495
 10
413.736
 20
19.0918
 10
413.927
 20
19.1468
 10
414.114
 20
19.2143
 10
414.295
 20
19.294
 10
414.471
 20
19.3856
 10
414.641
 20
19.4885
 10
414.803
 20
19.6024
 10
414.958
 20
19.7269
 10
415.104
 20
19.8612
 10
415.24
 20
20.0049
 10
415.367
 20
20.1574
 10
415.484
 20
20.3179
 10
415.59
 20
20.4857
 10
415.684
 20
20.6602
 10
415.767
 20
20.8405
 10
415.837
 20
21.0259
 10
415.896
 20
21.2156
 10
415.941
 20
21.4087
 10
415.974
 20
21.6043
 10
415.993
 20
21.8017
 10
416.0
 20
22.0
 10
415.993
 20
22.1983
 10
415.974
 20
22.3957
 10
415.941
 20
22.5914
 10
415.896
 20
22.7845
 10
415.837
 20
22.9741
 10
415.767
 20
23.1595
 10
415.684
 20
23.3398
 10
415.59
 20
23.5143
 10
415.484
 20
23.6822
 10
415.367
 20
23.8427
 10
415.24
 20
23.9951
 10
415.104
 20
24.1388
 10
414.958
 20
24.2731
 10
414.803
 20
24.3976
 10
414.641
 20
24.5115
 10
414.471
 20
24.6145
 10
414.295
 20
24.706
 10
414.114
 20
24.7857
 10
413.927
 20
24.8532
 10
413.736
 20
24.9082
 10
413.543
 20
24.9505
 10
413.346
 20
24.9799
 10
413.149
 20
24.9963
 10
412.95
 20
24.9996
 10
412.752
 20
24.9898
  0
LWPOLYLINE
  5
38
330
17
100
AcDbEntity
  8
0
100
AcDbPolyline
 90
159
 70
0
 43
0.0
 10
34.9006
 20
30.999
 10
34.7019
 20
30.9911
 10
34.5037
 20
30.9753
 10
34.3063
 20
30.9517
 10
34.11
 20
30.9202
 10
33.9151
 20
30.8809
 10
33.7219
 20
30.8339
 10
33.5307
 20
30.7793
 10
33.3419
 20
30.7171
 10
33.1557
 20
30.6474
 10
32.9724
 20
30.5704
 10
32.7923
 20
30.4862
 10
32.6157
 20
30.3949
 10
32.4428
 20
30.2966
 10
32.274
 20
30.1916
 10
32.1095
 20
30.0799
 10
31.9496
 20
29.9617
 10
31.7945
 20
29.8373
 10
31.6445
 20
29.7068
 10
31.4998
 20
29.5705
 10
31.3606
 20
29.4285
 10
31.2272
 20
29.2811
 10
31.0997
 20
29.1286
 10
30.9784
 20
28.971
 10
30.8635
 20
28.8088
 10
30.7551
 20
28.6421
 10
30.6534
 20
28.4713
 10
30.5586
 20
28.2965
 10
30.4708
 20
28.1181
 10
30.3902
 20
27.9364
 10
30.3168
 20
27.7516
 10
30.2509
 20
27.564
 10
30.1925
 20
27.3739
 10
30.1416
 20
27.1817
 10
30.0985
 20
26.9876
 10
30.0631
 20
26.792
 10
30.0355
 20
26.5951
 10
30.0158
 20
26.3973
 10
30.004
 20
26.1988
 10
30.0
 20
26.0
 10
30.004
 20
25.8012
 10
30.0158
 20
25.6028
 10
30.0355
 20
25.4049
 10
30.0631
 20
25.208
 10
30.0985
 20
25.0124
 10
30.1416
 20
24.8183
 10
30.1925
 20
24.6261
 10
30.2509
 20
24.436
 10
30.3168
 20
24.2485
 10
30.3902
 20
24.0636
 10
30.4708
 20
23.8819
 10
30.5586
 20
23.7035
 10
30.6534
 20
23.5288
 10
30.7551
 20
23.3579
 10
30.8635
 20
23.1912
 10
30.9784
 20
23.029
 10
31.0997
 20
22.8715
 10
31.2272
 20
22.7189
 10
31.3606
 20
22.5715
 10
31.4998
 20
22.4295
 10
31.6445
 20
22.2932
 10
31.7945
 20
22.1627
 10
31.9496
 20
22.0383
 10
32.1095
 20
21.9202
 10
32.274
 20
21.8085
 10
32.4428
 20
21.7034
 10
32.6157
 20
21.6051
 10
32.7923
 20
21.5138
 10
32.9724
 20
21.4296
 10
33.1557
 20
21.3526
 10
33.3419
 20
21.2829
 10
33.5307
 20
21.2207
 10
33.7219
 20
21.1661
 10
33.9151
 20
21.1191
 10
34.11
 20
21.0798
 10
34.3063
 20
21.0484
 10
34.5037
 20
21.0247
 10
34.7019
 20
21.0089
 10
34.9006
 20
21.001
 10
35.0994
 20
21.001
 10
35.2981
 20
21.0089
 10
35.4963
 20
21.0247
 10
35.6937
 20
21.0484
 10
35.89
 20
21.0798
 10
36.0849
 20
21.1191
 10
36.2781
 20
21.1661
 10
36.4692
 20
21.2207
 10
36.6581
 20
21.2829
 10
36.8443
 20
21.3526
 10
37.0276
 20
21.4296
 10
37.2077
 20
21.5138
 10
37.3843
 20
21.6051
 10
37.5572
 20
21.7034
 10
37.726
 20
21.8085
 10
37.8905
 20
21.9202
 10
38.0504
 20
22.0383
 10
38.2055
 20
22.1627
 10
38.3555
 20
22.2932
 10
38.5002
 20
22.4295
 10
38.6394
 20
22.5715
 10
38.7728
 20
22.7189
 10
38.9003
 20
22.8715
 10
39.0216
 20
23.029
 10
39.1365
 20
23.1912
 10
39.2449
 20
23.3579
 10
39.3466
 20
23.5288
 10
39.4414
 20
23.7035
 10
39.5292
 20
23.8819
 10
39.6098
 20
24.0636
 10
39.6832
 20
24.2485
 10
39.7491
 20
24.436
 10
39.8075
 20
24.6261
 10
39.8583
 20
24.8183
 10
39.9015
 20
25.0124
 10
39.9369
 20
25.208
 10
39.9644
 20
25.4049
 10
39.9842
 20
25.6028
 10
39.996
 20
25.8012
 10
40.0
 20
26.0
 10
39.996
 20
26.1988
 10
39.9842
 20
26.3973
 10
39.9644
 20
26.5951
 10
39.9369
 20
26.792
 10
39.9015
 20
26.9876
 10
39.8583
 20
27.1817
 10
39.8075
 20
27.3739
 10
39.7491
 20
27.564
 10
39.6832
 20
27.7516
 10
39.6098
 20
27.9364
 10
39.5292
 20
28.1181
 10
39.4414
 20
28.2965
 10
39.3466
 20
28.4713
 10
39.2449
 20
28.6421
 10
39.1365
 20
28.8088
 10
39.0216
 20
28.971
 10
38.9003
 20
29.1286
 10
38.7728
 20
29.2811
 10
38.6394
 20
29.4285
 10
38.5002
 20
29.5705
 10
38.3555
 20
29.7068
 10
38.2055
 20
29.8373
 10
38.0504
 20
29.9617
 10
37.8905
 20
30.0799
 10
37.726
 20
30.1916
 10
37.5572
 20
30.2966
 10
37.3843
 20
30.3949
 10
37.2077
 20
30.4862
 10
37.0276
 20
30.5704
 10
36.8443
 20
30.6474
 10
36.6581
 20
30.7171
 10
36.4692
 20
30.7793
 10
36.2781
 20
30.8339
 10
36.0849
 20
30.8809
 10
35.89
 20
30.9202
 10
35.6937
 20
30.9517
 10
35.4963
 20
30.9753
 10
35.2981
 20
30.9911
 10
35.0994
 20
30.999
 10
34.9006
 20
30.999
  0
LWPOLYLINE
  5
39
330
17
100
AcDbEntity
  8
0
100
AcDbPolyline
 90
53
 70
0
 43
0.0
 10
61.1
 20
58.7
 10
60.9042
 20
58.6872
 10
60.7118
 20
58.6489
 10
60.526
 20
58.5858
 10
60.35
 20
58.499
 10
60.1869
 20
58.39
 10
60.0394
 20
58.2607
 10
59.91
 20
58.1131
 10
59.801
 20
57.95
 10
59.7142
 20
57.774
 10
59.6511
 20
57.5882
 10
59.6128
 20
57.3958
 10
59.6
 20
57.2
 10
59.6
 20
30.8
 10
59.6128
 20
30.6042
 10
59.6511
 20
30.4118
 10
59.7142
 20
30.226
 10
59.801
 20
30.05
 10
59.91
 20
29.8869
 10
60.0394
 20
29.7393
 10
60.1869
 20
29.61
 10
60.35
 20
29.501
 10
60.526
 20
29.4142
 10
60.7118
 20
29.3511
 10
60.9042
 20
29.3128
 10
61.1
 20
29.3
 10
114.9
 20
29.3
 10
115.096
 20
29.3128
 10
115.288
 20
29.3511
 10
115.474
 20
29.4142
 10
115.65
 20
29.501
 10
115.813
 20
29.61
 10
115.961
 20
29.7393
 10
116.09
 20
29.8869
 10
116.199
 20
30.05
 10
116.286
 20
30.226
 10
116.349
 20
30.4118
 10
116.387
 20
30.6042
 10
116.4
 20
30.8
 10
116.4
 20
57.2
 10
116.387
 20
57.3958
 10
116.349
 20
57.5882
 10
116.286
 20
57.774
 10
116.199
 20
57.95
 10
116.09
 20
58.1131
 10
115.961
 20
58.2607
 10
115.813
 20
58.39
 10
115.65
 20
58.499
 10
115.474
 20
58.5858
 10
115.288
 20
58.6489
 10
115.096
 20
58.6872
 10
114.9
 20
58.7
 10
61.1
 20
58.7
  0
LWPOLYLINE
  5
3A
330
17
100
AcDbEntity
  8
0
100
AcDbPolyline
 90
45
 70
0
 43
0.0
 10
434.295
 20
40.9781
 10
434.101
 20
40.9502
 10
433.913
 20
40.8949
 10
433.734
 20
40.8134
 10
433.569
 20
40.7073
 10
433.421
 20
40.5789
 10
433.293
 20
40.4306
 10
433.187
 20
40.2656
 10
433.105
 20
40.0871
 10
433.05
 20
39.8989
 10
433.022
 20
39.7047
 10
433.022
 20
39.5085
 10
433.05
 20
39.3143
 10
433.105
 20
39.1261
 10
433.187
 20
38.9476
 10
433.293
 20
38.7826
 10
433.421
 20
38.6343
 10
433.569
 20
38.5058
 10
433.734
 20
38.3998
 10
433.913
 20
38.3183
 10
434.101
 20
38.263
 10
434.295
 20
38.2351
 10
434.492
 20
38.2351
 10
434.686
 20
38.263
 10
434.874
 20
38.3183
 10
435.052
 20
38.3998
 10
435.217
 20
38.5058
 10
435.366
 20
38.6343
 10
435.494
 20
38.7826
 10
435.6
 20
38.9476
 10
435.682
 20
39.1261
 10
435.737
 20
39.3143
 10
435.765
 20
39.5085
 10
435.765
 20
39.7047
 10
435.737
 20
39.8989
 10
435.682
 20
40.0871
 10
435.6
 20
40.2656
 10
435.494
 20
40.4306
 10
435.366
 20
40.5789
 10
435.217
 20
40.7073
 10
435.052
 20
40.8134
 10
434.874
 20
40.8949
 10
434.686
 20
40.9502
 10
434.492
 20
40.9781
 10
434.295
 20
40.9781
  0
LWPOLYLINE
  5
3B
330
17
100
AcDbEntity
  8
0
100
AcDbPolyline
 90
115
 70
0
 43
0.0
 10
147.901
 20
47.5986
 10
147.703
 20
47.5877
 10
147.506
 20
47.5659
 10
147.31
 20
47.5332
 10
147.116
 20
47.4898
 10
146.925
 20
47.4359
 10
146.738
 20
47.3714
 10
146.554
 20
47.2968
 10
146.374
 20
47.2121
 10
146.2
 20
47.1177
 10
146.031
 20
47.0138
 10
145.868
 20
46.9007
 10
145.711
 20
46.7789
 10
145.562
 20
46.6486
 10
145.42
 20
46.5103
 10
145.285
 20
46.3643
 10
145.159
 20
46.2112
 10
145.042
 20
46.0513
 10
144.933
 20
45.8852
 10
144.834
 20
45.7134
 10
144.744
 20
45.5364
 10
144.665
 20
45.3547
 10
144.595
 20
45.1689
 10
144.536
 20
44.9796
 10
144.487
 20
44.7872
 10
144.449
 20
44.5925
 10
144.422
 20
44.396
 10
144.405
 20
44.1983
 10
144.4
 20
44.0
 10
144.405
 20
43.8017
 10
144.422
 20
43.604
 10
144.449
 20
43.4075
 10
144.487
 20
43.2128
 10
144.536
 20
43.0204
 10
144.595
 20
42.8311
 10
144.665
 20
42.6453
 10
144.744
 20
42.4636
 10
144.834
 20
42.2866
 10
144.933
 20
42.1148
 10
145.042
 20
41.9487
 10
145.159
 20
41.7888
 10
145.285
 20
41.6357
 10
145.42
 20
41.4897
 10
145.562
 20
41.3514
 10
145.711
 20
41.2211
 10
145.868
 20
41.0993
 10
146.031
 20
40.9862
 10
146.2
 20
40.8823
 10
146.374
 20
40.7879
 10
146.554
 20
40.7032
 10
146.738
 20
40.6286
 10
146.925
 20
40.5641
 10
147.116
 20
40.5102
 10
147.31
 20
40.4668
 10
147.506
 20
40.4341
 10
147.703
 20
40.4123
 10
147.901
 20
40.4014
 10
148.099
 20
40.4014
 10
148.297
 20
40.4123
 10
148.494
 20
40.4341
 10
148.69
 20
40.4668
 10
148.884
 20
40.5102
 10
149.075
 20
40.5641
 10
149.262
 20
40.6286
 10
149.446
 20
40.7032
 10
149.626
 20
40.7879
 10
149.8
 20
40.8823
 10
149.969
 20
40.9862
 10
150.132
 20
41.0993
 10
150.289
 20
41.2211
 10
150.438
 20
41.3514
 10
150.58
 20
41.4897
 10
150.715
 20
41.6357
 10
150.841
 20
41.7888
 10
150.958
 20
41.9487
 10
151.067
 20
42.1148
 10
151.166
 20
42.2866
 10
151.256
 20
42.4636
 10
151.335
 20
42.6453
 10
151.405
 20
42.8311
 10
151.464
 20
43.0204
 10
151.513
 20
43.2128
 10
151.551
 20
43.4075
 10
151.578
 20
43.604
 10
151.595
 20
43.8017
 10
151.6
 20
44.0
 10
151.595
 20
44.1983
 10
151.578
 20
44.396
 10
151.551
 20
44.5925
 10
151.513
 20
44.7872
 10
151.464
 20
44.9796
 10
151.405
 20
45.1689
 10
151.335
 20
45.3547
 10
151.256
 20
45.5364
 10
151.166
 20
45.7134
 10
151.067
 20
45.8852
 10
150.958
 20
46.0513
 10
150.841
 20
46.2112
 10
150.715
 20
46.3643
 10
150.58
 20
46.5103
 10
150.438
 20
46.6486
 10
150.289
 20
46.7789
 10
150.132
 20
46.9007
 10
149.969
 20
47.0138
 10
149.8
 20
47.1177
 10
149.626
 20
47.2121
 10
149.446
 20
47.2968
 10
149.262
 20
47.3714
 10
149.075
 20
47.4359
 10
148.884
 20
47.4898
 10
148.69
 20
47.5332
 10
148.494
 20
47.5659
 10
148.297
 20
47.5877
 10
148.099
 20
47.5986
 10
147.901
 20
47.5986
  0
LWPOLYLINE
  5
3C
330
17
100
AcDbEntity
  8
0
100
AcDbPolyline
 90
181
 70
0
 43
0.0
 10
444.572
 20
71.2425
 10
444.145
 20
71.2202
 10
443.72
 20
71.1829
 10
443.295
 20
71.1308
 10
442.873
 20
71.0639
 10
442.453
 20
70.9823
 10
442.036
 20
70.8861
 10
441.623
 20
70.7755
 10
441.215
 20
70.6504
 10
440.81
 20
70.5112
 10
440.411
 20
70.358
 10
440.017
 20
70.1909
 10
439.63
 20
70.0102
 10
439.249
 20
69.8161
 10
438.875
 20
69.6088
 10
438.508
 20
69.3886
 10
438.15
 20
69.1557
 10
437.8
 20
68.9104
 10
437.458
 20
68.6531
 10
437.126
 20
68.384
 10
436.803
 20
68.1035
 10
436.49
 20
67.8119
 10
436.188
 20
67.5096
 10
435.896
 20
67.1968
 10
435.616
 20
66.8741
 10
435.347
 20
66.5418
 10
435.09
 20
66.2004
 10
434.844
 20
65.8501
 10
434.611
 20
65.4915
 10
434.391
 20
65.125
 10
434.184
 20
64.751
 10
433.99
 20
64.37
 10
433.809
 20
63.9825
 10
433.642
 20
63.5889
 10
433.489
 20
63.1897
 10
433.35
 20
62.7854
 10
433.225
 20
62.3766
 10
433.114
 20
61.9635
 10
433.018
 20
61.5469
 10
432.936
 20
61.1272
 10
432.869
 20
60.7049
 10
432.817
 20
60.2805
 10
432.78
 20
59.8545
 10
432.757
 20
59.4275
 10
432.75
 20
59.0
 10
432.757
 20
58.5725
 10
432.78
 20
58.1455
 10
432.817
 20
57.7195
 10
432.869
 20
57.2951
 10
432.936
 20
56.8728
 10
433.018
 20
56.4531
 10
433.114
 20
56.0365
 10
433.225
 20
55.6234
 10
433.35
 20
55.2145
 10
433.489
 20
54.8102
 10
433.642
 20
54.4111
 10
433.809
 20
54.0175
 10
433.99
 20
53.6299
 10
434.184
 20
53.249
 10
434.391
 20
52.875
 10
434.611
 20
52.5085
 10
434.844
 20
52.1499
 10
435.09
 20
51.7996
 10
435.347
 20
51.4581
 10
435.616
 20
51.1258
 10
435.896
 20
50.8031
 10
436.188
 20
50.4904
 10
436.49
 20
50.1881
 10
436.803
 20
49.8965
 10
437.126
 20
49.616
 10
437.458
 20
49.3469
 10
437.8
 20
49.0895
 10
438.15
 20
48.8443
 10
438.508
 20
48.6114
 10
438.875
 20
48.3912
 10
439.249
 20
48.1839
 10
439.63
 20
47.9898
 10
440.017
 20
47.8091
 10
440.411
 20
47.642
 10
440.81
 20
47.4888
 10
441.215
 20
47.3495
 10
441.623
 20
47.2245
 10
442.036
 20
47.1139
 10
442.453
 20
47.0177
 10
442.873
 20
46.9361
 10
443.295
 20
46.8692
 10
443.72
 20
46.8171
 10
444.145
 20
46.7798
 10
444.572
 20
46.7575
 10
445.0
 20
46.75
 10
445.428
 20
46.7575
 10
445.855
 20
46.7798
 10
446.28
 20
46.8171
 10
446.705
 20
46.8692
 10
447.127
 20
46.9361
 10
447.547
 20
47.0177
 10
447.964
 20
47.1139
 10
448.377
 20
47.2245
 10
448.785
 20
47.3495
 10
449.19
 20
47.4888
 10
449.589
 20
47.642
 10
449.983
 20
47.8091
 10
450.37
 20
47.9898
 10
450.751
 20
48.1839
 10
451.125
 20
48.3912
 10
451.492
 20
48.6114
 10
451.85
 20
48.8443
 10
452.2
 20
49.0895
 10
452.542
 20
49.3469
 10
452.874
 20
49.616
 10
453.197
 20
49.8965
 10
453.51
 20
50.1881
 10
453.812
 20
50.4904
 10
454.104
 20
50.8031
 10
454.384
 20
51.1258
 10
454.653
 20
51.4581
 10
454.91
 20
51.7996
 10
455.156
 20
52.1499
 10
455.389
 20
52.5085
 10
455.609
 20
52.875
 10
455.816
 20
53.249
 10
456.01
 20
53.6299
 10
456.191
 20
54.0175
 10
456.358
 20
54.4111
 10
456.511
 20
54.8102
 10
456.65
 20
55.2145
 10
456.775
 20
55.6234
 10
456.886
 20
56.0365
 10
456.982
 20
56.4531
 10
457.064
 20
56.8728
 10
457.131
 20
57.2951
 10
457.183
 20
57.7195
 10
457.22
 20
58.1455
 10
457.243
 20
58.5725
 10
457.25
 20
59.0
 10
457.243
 20
59.4275
 10
457.22
 20
59.8545
 10
457.183
 20
60.2805
 10
457.131
 20
60.7049
 10
457.064
 20
61.1272
 10
456.982
 20
61.5469
 10
456.886
 20
61.9635
 10
456.775
 20
62.3766
 10
456.65
 20
62.7854
 10
456.511
 20
63.1897
 10
456.358
 20
63.5889
 10
456.191
 20
63.9825
 10
456.01
 20
64.37
 10
455.816
 20
64.751
 10
455.609
 20
65.125
 10
455.389
 20
65.4915
 10
455.156
 20
65.8501
 10
454.91
 20
66.2004
 10
454.653
 20
66.5418
 10
454.384
 20
66.8741
 10
454.104
 20
67.1968
 10
453.812
 20
67.5096
 10
453.51
 20
67.8119
 10
453.197
 20
68.1035
 10
452.874
 20
68.384
 10
452.542
 20
68.6531
 10
452.2
 20
68.9104
 10
451.85
 20
69.1557
 10
451.492
 20
69.3886
 10
451.125
 20
69.6088
 10
450.751
 20
69.8161
 10
450.37
 20
70.0102
 10
449.983
 20
70.1909
 10
449.589
 20
70.358
 10
449.19
 20
70.5112
 10
448.785
 20
70.6504
 10
448.377
 20
70.7755
 10
447.964
 20
70.8861
 10
447.547
 20
70.9823
 10
447.127
 20
71.0639
 10
446.705
 20
71.1308
 10
446.28
 20
71.1829
 10
445.855
 20
71.2202
 10
445.428
 20
71.2425
 10
445.0
 20
71.25
 10
444.572
 20
71.2425
  0
LWPOLYLINE
  5
3D
330
17
100
AcDbEntity
  8
0
100
AcDbPolyline
 90
45
 70
0
 43
0.0
 10
455.508
 20
49.7649
 10
455.314
 20
49.737
 10
455.126
 20
49.6817
 10
454.948
 20
49.6002
 10
454.783
 20
49.4941
 10
454.634
 20
49.3657
 10
454.506
 20
49.2174
 10
454.4
 20
49.0524
 10
454.318
 20
48.8739
 10
454.263
 20
48.6857
 10
454.235
 20
48.4915
 10
454.235
 20
48.2953
 10
454.263
 20
48.1011
 10
454.318
 20
47.9129
 10
454.4
 20
47.7344
 10
454.506
 20
47.5694
 10
454.634
 20
47.4211
 10
454.783
 20
47.2926
 10
454.948
 20
47.1866
 10
455.126
 20
47.1051
 10
455.314
 20
47.0498
 10
455.508
 20
47.0219
 10
455.705
 20
47.0219
 10
455.899
 20
47.0498
 10
456.087
 20
47.1051
 10
456.266
 20
47.1866
 10
456.431
 20
47.2926
 10
456.579
 20
47.4211
 10
456.707
 20
47.5694
 10
456.813
 20
47.7344
 10
456.895
 20
47.9129
 10
456.95
 20
48.1011
 10
456.978
 20
48.2953
 10
456.978
 20
48.4915
 10
456.95
 20
48.6857
 10
456.895
 20
48.8739
 10
456.813
 20
49.0524
 10
456.707
 20
49.2174
 10
456.579
 20
49.3657
 10
456.431
 20
49.4941
 10
456.266
 20
49.6002
 10
456.087
 20
49.6817
 10
455.899
 20
49.737
 10
455.705
 20
49.7649
 10
455.508
 20
49.7649
  0
LWPOLYLINE
  5
3E
330
17
100
AcDbEntity
  8
0
100
AcDbPolyline
 90
53
 70
0
 43
0.0
 10
408.5
 20
68.5
 10
408.304
 20
68.4872
 10
408.112
 20
68.4489
 10
407.926
 20
68.3858
 10
407.75
 20
68.299
 10
407.587
 20
68.19
 10
407.439
 20
68.0607
 10
407.31
 20
67.9131
 10
407.201
 20
67.75
 10
407.114
 20
67.574
 10
407.051
 20
67.3882
 10
407.013
 20
67.1958
 10
407.0
 20
67.0
 10
407.0
 20
57.0
 10
407.013
 20
56.8042
 10
407.051
 20
56.6118
 10
407.114
 20
56.426
 10
407.201
 20
56.25
 10
407.31
 20
56.0869
 10
407.439
 20
55.9393
 10
407.587
 20
55.81
 10
407.75
 20
55.701
 10
407.926
 20
55.6142
 10
408.112
 20
55.5511
 10
408.304
 20
55.5128
 10
408.5
 20
55.5
 10
417.5
 20
55.5
 10
417.696
 20
55.5128
 10
417.888
 20
55.5511
 10
418.074
 20
55.6142
 10
418.25
 20
55.701
 10
418.413
 20
55.81
 10
418.561
 20
55.9393
 10
418.69
 20
56.0869
 10
418.799
 20
56.25
 10
418.886
 20
56.426
 10
418.949
 20
56.6118
 10
418.987
 20
56.8042
 10
419.0
 20
57.0
 10
419.0
 20
67.0
 10
418.987
 20
67.1958
 10
418.949
 20
67.3882
 10
418.886
 20
67.574
 10
418.799
 20
67.75
 10
418.69
 20
67.9131
 10
418.561
 20
68.0607
 10
418.413
 20
68.19
 10
418.25
 20
68.299
 10
418.074
 20
68.3858
 10
417.888
 20
68.4489
 10
417.696
 20
68.4872
 10
417.5
 20
68.5
 10
408.5
 20
68.5
  0
LWPOLYLINE
  5
3F
330
17
100
AcDbEntity
  8
0
100
AcDbPolyline
 90
159
 70
0
 43
0.0
 10
34.9006
 20
70.999
 10
34.7019
 20
70.9911
 10
34.5037
 20
70.9753
 10
34.3063
 20
70.9516
 10
34.11
 20
70.9202
 10
33.9151
 20
70.8809
 10
33.7219
 20
70.8339
 10
33.5307
 20
70.7793
 10
33.3419
 20
70.7171
 10
33.1557
 20
70.6474
 10
32.9724
 20
70.5704
 10
32.7923
 20
70.4862
 10
32.6157
 20
70.3949
 10
32.4428
 20
70.2966
 10
32.274
 20
70.1915
 10
32.1095
 20
70.0798
 10
31.9496
 20
69.9617
 10
31.7945
 20
69.8373
 10
31.6445
 20
69.7068
 10
31.4998
 20
69.5705
 10
31.3606
 20
69.4285
 10
31.2272
 20
69.2811
 10
31.0997
 20
69.1285
 10
30.9784
 20
68.971
 10
30.8635
 20
68.8088
 10
30.7551
 20
68.6421
 10
30.6534
 20
68.4712
 10
30.5586
 20
68.2965
 10
30.4708
 20
68.1181
 10
30.3902
 20
67.9364
 10
30.3168
 20
67.7515
 10
30.2509
 20
67.564
 10
30.1925
 20
67.3739
 10
30.1416
 20
67.1817
 10
30.0985
 20
66.9876
 10
30.0631
 20
66.792
 10
30.0355
 20
66.5951
 10
30.0158
 20
66.3972
 10
30.004
 20
66.1988
 10
30.0
 20
66.0
 10
30.004
 20
65.8012
 10
30.0158
 20
65.6027
 10
30.0355
 20
65.4049
 10
30.0631
 20
65.208
 10
30.0985
 20
65.0124
 10
30.1416
 20
64.8183
 10
30.1925
 20
64.6261
 10
30.2509
 20
64.436
 10
30.3168
 20
64.2484
 10
30.3902
 20
64.0636
 10
30.4708
 20
63.8819
 10
30.5586
 20
63.7035
 10
30.6534
 20
63.5287
 10
30.7551
 20
63.3579
 10
30.8635
 20
63.1912
 10
30.9784
 20
63.029
 10
31.0997
 20
62.8714
 10
31.2272
 20
62.7189
 10
31.3606
 20
62.5715
 10
31.4998
 20
62.4295
 10
31.6445
 20
62.2932
 10
31.7945
 20
62.1627
 10
31.9496
 20
62.0383
 10
32.1095
 20
61.9201
 10
32.274
 20
61.8084
 10
32.4428
 20
61.7034
 10
32.6157
 20
61.6051
 10
32.7923
 20
61.5138
 10
32.9724
 20
61.4296
 10
33.1557
 20
61.3526
 10
33.3419
 20
61.2829
 10
33.5307
 20
61.2207
 10
33.7219
 20
61.1661
 10
33.9151
 20
61.1191
 10
34.11
 20
61.0798
 10
34.3063
 20
61.0483
 10
34.5037
 20
61.0247
 10
34.7019
 20
61.0089
 10
34.9006
 20
61.001
 10
35.0994
 20
61.001
 10
35.2981
 20
61.0089
 10
35.4963
 20
61.0247
 10
35.6937
 20
61.0483
 10
35.89
 20
61.0798
 10
36.0849
 20
61.1191
 10
36.2781
 20
61.1661
 10
36.4692
 20
61.2207
 10
36.6581
 20
61.2829
 10
36.8443
 20
61.3526
 10
37.0276
 20
61.4296
 10
37.2077
 20
61.5138
 10
37.3843
 20
61.6051
 10
37.5572
 20
61.7034
 10
37.726
 20
61.8084
 10
37.8905
 20
61.9201
 10
38.0504
 20
62.0383
 10
38.2055
 20
62.1627
 10
38.3555
 20
62.2932
 10
38.5002
 20
62.4295
 10
38.6394
 20
62.5715
 10
38.7728
 20
62.7189
 10
38.9003
 20
62.8714
 10
39.0216
 20
63.029
 10
39.1365
 20
63.1912
 10
39.2449
 20
63.3579
 10
39.3466
 20
63.5287
 10
39.4414
 20
63.7035
 10
39.5292
 20
63.8819
 10
39.6098
 20
64.0636
 10
39.6832
 20
64.2484
 10
39.7491
 20
64.436
 10
39.8075
 20
64.6261
 10
39.8583
 20
64.8183
 10
39.9015
 20
65.0124
 10
39.9369
 20
65.208
 10
39.9644
 20
65.4049
 10
39.9842
 20
65.6027
 10
39.996
 20
65.8012
 10
40.0
 20
66.0
 10
39.996
 20
66.1988
 10
39.9842
 20
66.3972
 10
39.9644
 20
66.5951
 10
39.9369
 20
66.792
 10
39.9015
 20
66.9876
 10
39.8583
 20
67.1817
 10
39.8075
 20
67.3739
 10
39.7491
 20
67.564
 10
39.6832
 20
67.7515
 10
39.6098
 20
67.9364
 10
39.5292
 20
68.1181
 10
39.4414
 20
68.2965
 10
39.3466
 20
68.4712
 10
39.2449
 20
68.6421
 10
39.1365
 20
68.8088
 10
39.0216
 20
68.971
 10
38.9003
 20
69.1285
 10
38.7728
 20
69.2811
 10
38.6394
 20
69.4285
 10
38.5002
 20
69.5705
 10
38.3555
 20
69.7068
 10
38.2055
 20
69.8373
 10
38.0504
 20
69.9617
 10
37.8905
 20
70.0798
 10
37.726
 20
70.1915
 10
37.5572
 20
70.2966
 10
37.3843
 20
70.3949
 10
37.2077
 20
70.4862
 10
37.0276
 20
70.5704
 10
36.8443
 20
70.6474
 10
36.6581
 20
70.7171
 10
36.4692
 20
70.7793
 10
36.2781
 20
70.8339
 10
36.0849
 20
70.8809
 10
35.89
 20
70.9202
 10
35.6937
 20
70.9516
 10
35.4963
 20
70.9753
 10
35.2981
 20
70.9911
 10
35.0994
 20
70.999
 10
34.9006
 20
70.999
  0
LWPOLYLINE
  5
40
330
17
100
AcDbEntity
  8
0
100
AcDbPolyline
 90
45
 70
0
 43
0.0
 10
434.295
 20
70.9781
 10
434.101
 20
70.9502
 10
433.913
 20
70.8949
 10
433.734
 20
70.8134
 10
433.569
 20
70.7073
 10
433.421
 20
70.5789
 10
433.293
 20
70.4306
 10
433.187
 20
70.2656
 10
433.105
 20
70.0871
 10
433.05
 20
69.8989
 10
433.022
 20
69.7047
 10
433.022
 20
69.5085
 10
433.05
 20
69.3143
 10
433.105
 20
69.1261
 10
433.187
 20
68.9476
 10
433.293
 20
68.7826
 10
433.421
 20
68.6343
 10
433.569
 20
68.5058
 10
433.734
 20
68.3998
 10
433.913
 20
68.3183
 10
434.101
 20
68.263
 10
434.295
 20
68.2351
 10
434.492
 20
68.2351
 10
434.686
 20
68.263
 10
434.874
 20
68.3183
 10
435.052
 20
68.3998
 10
435.217
 20
68.5058
 10
435.366
 20
68.6343
 10
435.494
 20
68.7826
 10
435.6
 20
68.9476
 10
435.682
 20
69.1261
 10
435.737
 20
69.3143
 10
435.765
 20
69.5085
 10
435.765
 20
69.7047
 10
435.737
 20
69.8989
 10
435.682
 20
70.0871
 10
435.6
 20
70.2656
 10
435.494
 20
70.4306
 10
435.366
 20
70.5789
 10
435.217
 20
70.7073
 10
435.052
 20
70.8134
 10
434.874
 20
70.8949
 10
434.686
 20
70.9502
 10
434.492
 20
70.9781
 10
434.295
 20
70.9781
  0
LWPOLYLINE
  5
41
330
17
100
AcDbEntity
  8
0
100
AcDbPolyline
 90
45
 70
0
 43
0.0
 10
412.804
 20
75.861
 10
412.613
 20
75.8193
 10
412.429
 20
75.7507
 10
412.257
 20
75.6567
 10
412.1
 20
75.5392
 10
411.961
 20
75.4004
 10
411.843
 20
75.2434
 10
411.749
 20
75.0712
 10
411.681
 20
74.8874
 10
411.639
 20
74.6957
 10
411.625
 20
74.5
 10
411.639
 20
74.3043
 10
411.681
 20
74.1126
 10
411.749
 20
73.9288
 10
411.843
 20
73.7566
 10
411.961
 20
73.5996
 10
412.1
 20
73.4608
 10
412.257
 20
73.3433
 10
412.429
 20
73.2493
 10
412.613
 20
73.1807
 10
412.804
 20
73.139
 10
413.0
 20
73.125
 10
413.196
 20
73.139
 10
413.387
 20
73.1807
 10
413.571
 20
73.2493
 10
413.743
 20
73.3433
 10
413.9
 20
73.4608
 10
414.039
 20
73.5996
 10
414.157
 20
73.7566
 10
414.251
 20
73.9288
 10
414.319
 20
74.1126
 10
414.361
 20
74.3043
 10
414.375
 20
74.5
 10
414.361
 20
74.6957
 10
414.319
 20
74.8874
 10
414.251
 20
75.0712
 10
414.157
 20
75.2434
 10
414.039
 20
75.4004
 10
413.9
 20
75.5392
 10
413.743
 20
75.6567
 10
413.571
 20
75.7507
 10
413.387
 20
75.8193
 10
413.196
 20
75.861
 10
413.0
 20
75.875
 10
412.804
 20
75.861
  0
LWPOLYLINE
  5
42
330
17
100
AcDbEntity
  8
0
100
AcDbPolyline
 90
45
 70
0
 43
0.0
 10
53.4043
 20
77.661
 10
53.2126
 20
77.6193
 10
53.0288
 20
77.5507
 10
52.8566
 20
77.4567
 10
52.6996
 20
77.3391
 10
52.5609
 20
77.2004
 10
52.4433
 20
77.0434
 10
52.3493
 20
76.8712
 10
52.2807
 20
76.6874
 10
52.239
 20
76.4957
 10
52.225
 20
76.3
 10
52.239
 20
76.1043
 10
52.2807
 20
75.9126
 10
52.3493
 20
75.7288
 10
52.4433
 20
75.5566
 10
52.5609
 20
75.3996
 10
52.6996
 20
75.2608
 10
52.8566
 20
75.1433
 10
53.0288
 20
75.0493
 10
53.2126
 20
74.9807
 10
53.4043
 20
74.939
 10
53.6
 20
74.925
 10
53.7957
 20
74.939
 10
53.9874
 20
74.9807
 10
54.1712
 20
75.0493
 10
54.3434
 20
75.1433
 10
54.5004
 20
75.2608
 10
54.6392
 20
75.3996
 10
54.7567
 20
75.5566
 10
54.8508
 20
75.7288
 10
54.9193
 20
75.9126
 10
54.961
 20
76.1043
 10
54.975
 20
76.3
 10
54.961
 20
76.4957
 10
54.9193
 20
76.6874
 10
54.8508
 20
76.8712
 10
54.7567
 20
77.0434
 10
54.6392
 20
77.2004
 10
54.5004
 20
77.3391
 10
54.3434
 20
77.4567
 10
54.1712
 20
77.5507
 10
53.9874
 20
77.6193
 10
53.7957
 20
77.661
 10
53.6
 20
77.675
 10
53.4043
 20
77.661
  0
LWPOLYLINE
  5
43
330
17
100
AcDbEntity
  8
0
100
AcDbPolyline
 90
45
 70
0
 43
0.0
 10
166.204
 20
77.661
 10
166.013
 20
77.6193
 10
165.829
 20
77.5507
 10
165.657
 20
77.4567
 10
165.5
 20
77.3391
 10
165.361
 20
77.2004
 10
165.243
 20
77.0434
 10
165.149
 20
76.8712
 10
165.081
 20
76.6874
 10
165.039
 20
76.4957
 10
165.025
 20
76.3
 10
165.039
 20
76.1043
 10
165.081
 20
75.9126
 10
165.149
 20
75.7288
 10
165.243
 20
75.5566
 10
165.361
 20
75.3996
 10
165.5
 20
75.2608
 10
165.657
 20
75.1433
 10
165.829
 20
75.0493
 10
166.013
 20
74.9807
 10
166.204
 20
74.939
 10
166.4
 20
74.925
 10
166.596
 20
74.939
 10
166.787
 20
74.9807
 10
166.971
 20
75.0493
 10
167.143
 20
75.1433
 10
167.3
 20
75.2608
 10
167.439
 20
75.3996
 10
167.557
 20
75.5566
 10
167.651
 20
75.7288
 10
167.719
 20
75.9126
 10
167.761
 20
76.1043
 10
167.775
 20
76.3
 10
167.761
 20
76.4957
 10
167.719
 20
76.6874
 10
167.651
 20
76.8712
 10
167.557
 20
77.0434
 10
167.439
 20
77.2004
 10
167.3
 20
77.3391
 10
167.143
 20
77.4567
 10
166.971
 20
77.5507
 10
166.787
 20
77.6193
 10
166.596
 20
77.661
 10
166.4
 20
77.675
 10
166.204
 20
77.661
  0
LWPOLYLINE
  5
44
330
17
100
AcDbEntity
  8
0
100
AcDbPolyline
 90
45
 70
0
 43
0.0
 10
191.304
 20
77.661
 10
191.113
 20
77.6193
 10
190.929
 20
77.5507
 10
190.757
 20
77.4567
 10
190.6
 20
77.3391
 10
190.461
 20
77.2004
 10
190.343
 20
77.0434
 10
190.249
 20
76.8712
 10
190.181
 20
76.6874
 10
190.139
 20
76.4957
 10
190.125
 20
76.3
 10
190.139
 20
76.1043
 10
190.181
 20
75.9126
 10
190.249
 20
75.7288
 10
190.343
 20
75.5566
 10
190.461
 20
75.3996
 10
190.6
 20
75.2608
 10
190.757
 20
75.1433
 10
190.929
 20
75.0493
 10
191.113
 20
74.9807
 10
191.304
 20
74.939
 10
191.5
 20
74.925
 10
191.696
 20
74.939
 10
191.887
 20
74.9807
 10
192.071
 20
75.0493
 10
192.243
 20
75.1433
 10
192.4
 20
75.2608
 10
192.539
 20
75.3996
 10
192.657
 20
75.5566
 10
192.751
 20
75.7288
 10
192.819
 20
75.9126
 10
192.861
 20
76.1043
 10
192.875
 20
76.3
 10
192.861
 20
76.4957
 10
192.819
 20
76.6874
 10
192.751
 20
76.8712
 10
192.657
 20
77.0434
 10
192.539
 20
77.2004
 10
192.4
 20
77.3391
 10
192.243
 20
77.4567
 10
192.071
 20
77.5507
 10
191.887
 20
77.6193
 10
191.696
 20
77.661
 10
191.5
 20
77.675
 10
191.304
 20
77.661
  0
LWPOLYLINE
  5
45
330
17
100
AcDbEntity
  8
0
100
AcDbPolyline
 90
45
 70
0
 43
0.0
 10
380.304
 20
77.661
 10
380.113
 20
77.6193
 10
379.929
 20
77.5507
 10
379.757
 20
77.4567
 10
379.6
 20
77.3391
 10
379.461
 20
77.2004
 10
379.343
 20
77.0434
 10
379.249
 20
76.8712
 10
379.181
 20
76.6874
 10
379.139
 20
76.4957
 10
379.125
 20
76.3
 10
379.139
 20
76.1043
 10
379.181
 20
75.9126
 10
379.249
 20
75.7288
 10
379.343
 20
75.5566
 10
379.461
 20
75.3996
 10
379.6
 20
75.2608
 10
379.757
 20
75.1433
 10
379.929
 20
75.0493
 10
380.113
 20
74.9807
 10
380.304
 20
74.939
 10
380.5
 20
74.925
 10
380.696
 20
74.939
 10
380.887
 20
74.9807
 10
381.071
 20
75.0493
 10
381.243
 20
75.1433
 10
381.4
 20
75.2608
 10
381.539
 20
75.3996
 10
381.657
 20
75.5566
 10
381.751
 20
75.7288
 10
381.819
 20
75.9126
 10
381.861
 20
76.1043
 10
381.875
 20
76.3
 10
381.861
 20
76.4957
 10
381.819
 20
76.6874
 10
381.751
 20
76.8712
 10
381.657
 20
77.0434
 10
381.539
 20
77.2004
 10
381.4
 20
77.3391
 10
381.243
 20
77.4567
 10
381.071
 20
77.5507
 10
380.887
 20
77.6193
 10
380.696
 20
77.661
 10
380.5
 20
77.675
 10
380.304
 20
77.661
  0
LWPOLYLINE
  5
46
330
17
100
AcDbEntity
  8
0
100
AcDbPolyline
 90
104
 70
0
 43
0.0
 10
7.74976
 20
85.1996
 10
7.55075
 20
85.1965
 10
7.35231
 20
85.181
 10
7.15521
 20
85.1533
 10
6.96024
 20
85.1133
 10
6.76811
 20
85.0613
 10
6.57959
 20
84.9974
 10
6.3954
 20
84.922
 10
6.21626
 20
84.8352
 10
6.04288
 20
84.7375
 10
5.87589
 20
84.6292
 10
5.71596
 20
84.5107
 10
5.56371
 20
84.3825
 10
5.41972
 20
84.2451
 10
5.28456
 20
84.099
 10
5.15874
 20
83.9447
 10
5.04276
 20
83.783
 10
4.93704
 20
83.6143
 10
4.84203
 20
83.4394
 10
4.75806
 20
83.259
 10
4.68549
 20
83.0736
 10
4.62457
 20
82.8842
 10
4.57555
 20
82.6913
 10
4.53862
 20
82.4957
 10
4.51392
 20
82.2982
 10
4.50154
 20
82.0995
 10
4.50154
 20
81.9005
 10
4.51392
 20
81.7018
 10
4.53862
 20
81.5043
 10
4.57555
 20
81.3087
 10
4.62457
 20
81.1158
 10
4.68549
 20
80.9263
 10
4.75806
 20
80.741
 10
4.84203
 20
80.5605
 10
4.93704
 20
80.3857
 10
5.04276
 20
80.217
 10
5.15874
 20
80.0553
 10
5.28456
 20
79.901
 10
5.41972
 20
79.7549
 10
5.56371
 20
79.6175
 10
5.71596
 20
79.4893
 10
5.87589
 20
79.3708
 10
6.04288
 20
79.2625
 10
6.21626
 20
79.1647
 10
6.3954
 20
79.078
 10
6.57959
 20
79.0025
 10
6.76811
 20
78.9387
 10
6.96024
 20
78.8867
 10
7.15521
 20
78.8467
 10
7.35231
 20
78.8189
 10
7.55075
 20
78.8035
 10
7.74976
 20
78.8004
 10
11.0498
 20
78.8004
 10
11.2486
 20
78.8097
 10
11.4464
 20
78.8313
 10
11.6426
 20
78.8652
 10
11.8362
 20
78.9112
 10
12.0266
 20
78.9691
 10
12.2131
 20
79.0388
 10
12.3948
 20
79.12
 10
12.5712
 20
79.2123
 10
12.7414
 20
79.3153
 10
12.905
 20
79.4288
 10
13.0611
 20
79.5522
 10
13.2093
 20
79.6851
 10
13.349
 20
79.8269
 10
13.4795
 20
79.9772
 10
13.6005
 20
80.1352
 10
13.7114
 20
80.3005
 10
13.8118
 20
80.4724
 10
13.9014
 20
80.6501
 10
13.9797
 20
80.8331
 10
14.0464
 20
81.0206
 10
14.1014
 20
81.2119
 10
14.1444
 20
81.4062
 10
14.1753
 20
81.6029
 10
14.1938
 20
81.8011
 10
14.2
 20
82.0
 10
14.1938
 20
82.1989
 10
14.1753
 20
82.3971
 10
14.1444
 20
82.5938
 10
14.1014
 20
82.7881
 10
14.0464
 20
82.9794
 10
13.9797
 20
83.1669
 10
13.9014
 20
83.3499
 10
13.8118
 20
83.5276
 10
13.7114
 20
83.6995
 10
13.6005
 20
83.8648
 10
13.4795
 20
84.0228
 10
13.349
 20
84.1731
 10
13.2093
 20
84.3149
 10
13.0611
 20
84.4478
 10
12.905
 20
84.5712
 10
12.7414
 20
84.6846
 10
12.5712
 20
84.7877
 10
12.3948
 20
84.88
 10
12.2131
 20
84.9612
 10
12.0266
 20
85.0308
 10
11.8362
 20
85.0888
 10
11.6426
 20
85.1348
 10
11.4464
 20
85.1687
 10
11.2486
 20
85.1903
 10
11.0498
 20
85.1996
 10
7.74976
 20
85.1996
  0
LWPOLYLINE
  5
47
330
17
100
AcDbEntity
  8
0
100
AcDbPolyline
 90
104
 70
0
 43
0.0
 10
471.65
 20
85.1996
 10
471.451
 20
85.1965
 10
471.252
 20
85.181
 10
471.055
 20
85.1533
 10
470.86
 20
85.1133
 10
470.668
 20
85.0613
 10
470.48
 20
84.9974
 10
470.295
 20
84.922
 10
470.116
 20
84.8352
 10
469.943
 20
84.7375
 10
469.776
 20
84.6292
 10
469.616
 20
84.5107
 10
469.464
 20
84.3825
 10
469.32
 20
84.2451
 10
469.185
 20
84.099
 10
469.059
 20
83.9447
 10
468.943
 20
83.783
 10
468.837
 20
83.6143
 10
468.742
 20
83.4394
 10
468.658
 20
83.259
 10
468.585
 20
83.0736
 10
468.525
 20
82.8842
 10
468.476
 20
82.6913
 10
468.439
 20
82.4957
 10
468.414
 20
82.2982
 10
468.402
 20
82.0995
 10
468.402
 20
81.9005
 10
468.414
 20
81.7018
 10
468.439
 20
81.5043
 10
468.476
 20
81.3087
 10
468.525
 20
81.1158
 10
468.585
 20
80.9263
 10
468.658
 20
80.741
 10
468.742
 20
80.5605
 10
468.837
 20
80.3857
 10
468.943
 20
80.217
 10
469.059
 20
80.0553
 10
469.185
 20
79.901
 10
469.32
 20
79.7549
 10
469.464
 20
79.6175
 10
469.616
 20
79.4893
 10
469.776
 20
79.3708
 10
469.943
 20
79.2625
 10
470.116
 20
79.1647
 10
470.295
 20
79.078
 10
470.48
 20
79.0025
 10
470.668
 20
78.9387
 10
470.86
 20
78.8867
 10
471.055
 20
78.8467
 10
471.252
 20
78.8189
 10
471.451
 20
78.8035
 10
471.65
 20
78.8004
 10
474.95
 20
78.8004
 10
475.149
 20
78.8097
 10
475.346
 20
78.8313
 10
475.543
 20
78.8652
 10
475.736
 20
78.9112
 10
475.927
 20
78.9691
 10
476.113
 20
79.0388
 10
476.295
 20
79.12
 10
476.471
 20
79.2123
 10
476.641
 20
79.3153
 10
476.805
 20
79.4288
 10
476.961
 20
79.5522
 10
477.109
 20
79.6851
 10
477.249
 20
79.8269
 10
477.38
 20
79.9772
 10
477.501
 20
80.1352
 10
477.611
 20
80.3005
 10
477.712
 20
80.4724
 10
477.801
 20
80.6501
 10
477.88
 20
80.8331
 10
477.946
 20
81.0206
 10
478.001
 20
81.2119
 10
478.044
 20
81.4062
 10
478.075
 20
81.6029
 10
478.094
 20
81.8011
 10
478.1
 20
82.0
 10
478.094
 20
82.1989
 10
478.075
 20
82.3971
 10
478.044
 20
82.5938
 10
478.001
 20
82.7881
 10
477.946
 20
82.9794
 10
477.88
 20
83.1669
 10
477.801
 20
83.3499
 10
477.712
 20
83.5276
 10
477.611
 20
83.6995
 10
477.501
 20
83.8648
 10
477.38
 20
84.0228
 10
477.249
 20
84.1731
 10
477.109
 20
84.3149
 10
476.961
 20
84.4478
 10
476.805
 20
84.5712
 10
476.641
 20
84.6846
 10
476.471
 20
84.7877
 10
476.295
 20
84.88
 10
476.113
 20
84.9612
 10
475.927
 20
85.0308
 10
475.736
 20
85.0888
 10
475.543
 20
85.1348
 10
475.346
 20
85.1687
 10
475.149
 20
85.1903
 10
474.95
 20
85.1996
 10
471.65
 20
85.1996
  0
ENDSEC
  0
SECTION
  2
OBJECTS
  0
DICTIONARY
  5
A
330
0
100
AcDbDictionary
281
1
  3
ACAD_COLOR
350
B
  3
ACAD_GROUP
350
C
  3
ACAD_LAYOUT
350
D
  3
ACAD_MATERIAL
350
E
  3
ACAD_MLEADERSTYLE
350
F
  3
ACAD_MLINESTYLE
350
10
  3
ACAD_PLOTSETTINGS
350
11
  3
ACAD_PLOTSTYLENAME
350
12
  3
ACAD_SCALELIST
350
14
  3
ACAD_TABLESTYLE
350
15
  3
ACAD_VISUALSTYLE
350
16
  0
DICTIONARY
  5
B
330
A
100
AcDbDictionary
281
1
  0
DICTIONARY
  5
C
330
A
100
AcDbDictionary
281
1
  0
DICTIONARY
  5
D
330
A
100
AcDbDictionary
281
1
  3
Model
350
1A
  3
Layout1
350
1E
  0
DICTIONARY
  5
E
330
A
100
AcDbDictionary
281
1
  3
ByBlock
350
1F
  3
ByLayer
350
20
  3
Global
350
21
  0
DICTIONARY
  5
F
330
A
100
AcDbDictionary
281
1
  3
Standard
350
2C
  0
DICTIONARY
  5
10
330
A
100
AcDbDictionary
281
1
  3
Standard
350
22
  0
DICTIONARY
  5
11
330
A
100
AcDbDictionary
281
1
  0
ACDBDICTIONARYWDFLT
  5
12
330
A
100
AcDbDictionary
281
1
  3
Normal
350
13
100
AcDbDictionaryWithDefault
340
13
  0
ACDBPLACEHOLDER
  5
13
330
12
  0
DICTIONARY
  5
14
330
A
100
AcDbDictionary
281
1
  0
DICTIONARY
  5
15
330
A
100
AcDbDictionary
281
1
  0
DICTIONARY
  5
16
330
A
100
AcDbDictionary
281
1
  0
LAYOUT
  5
1A
330
D
100
AcDbPlotSettings
  1

  2
Adobe PDF
  4
A4
  6

 40
3.175
 41
3.175
 42
3.175
 43
3.175
 44
209.91
 45
297.03
 46
0.0
 47
0.0
 48
0.0
 49
0.0
140
0.0
141
0.0
142
1.0
143
1.0
 70
688
 72
0
 73
1
 74
5
  7

 75
16
 76
0
 77
2
 78
300
147
1.0
148
0.0
149
0.0
100
AcDbLayout
  1
Model
 70
1
 71
0
 10
-3.175
 20
-3.175
 11
293.857
 21
206.735
 12
0.0
 22
0.0
 32
0.0
 14
29.068
 24
20.356
 34
0.0
 15
261.614
 25
183.204
 35
0.0
146
0.0
 13
0.0
 23
0.0
 33
0.0
 16
1.0
 26
0.0
 36
0.0
 17
0.0
 27
1.0
 37
0.0
 76
1
330
17
  0
LAYOUT
  5
1E
330
D
100
AcDbPlotSettings
  1

  2
Adobe PDF
  4
A4
  6

 40
3.175
 41
3.175
 42
3.175
 43
3.175
 44
209.91
 45
297.03
 46
0.0
 47
0.0
 48
0.0
 49
0.0
140
0.0
141
0.0
142
1.0
143
1.0
 70
688
 72
0
 73
1
 74
5
  7

 75
16
 76
0
 77
2
 78
300
147
1.0
148
0.0
149
0.0
100
AcDbLayout
  1
Layout1
 70
1
 71
1
 10
-3.175
 20
-3.175
 11
293.857
 21
206.735
 12
0.0
 22
0.0
 32
0.0
 14
29.068
 24
20.356
 34
0.0
 15
261.614
 25
183.204
 35
0.0
146
0.0
 13
0.0
 23
0.0
 33
0.0
 16
1.0
 26
0.0
 36
0.0
 17
0.0
 27
1.0
 37
0.0
 76
1
330
1B
  0
MATERIAL
  5
1F
102
{ACAD_REACTORS
330
E
102
}
330
E
100
AcDbMaterial
  1
ByBlock
  2

 70
0
 40
1.0
 71
1
 41
1.0
 91
-1023410177
 42
1.0
 72
1
  3

 73
1
 74
1
 75
1
 44
0.5
 73
0
 45
1.0
 46
1.0
 77
1
  4

 78
1
 79
1
170
1
 48
1.0
171
1
  6

172
1
173
1
174
1
140
1.0
141
1.0
175
1
  7

176
1
177
1
178
1
143
1.0
179
1
  8

270
1
271
1
272
1
145
1.0
146
1.0
273
1
  9

274
1
275
1
276
1
 42
1.0
 72
1
  3

 73
1
 74
1
 75
1
 94
63
  0
MATERIAL
  5
20
102
{ACAD_REACTORS
330
E
102
}
330
E
100
AcDbMaterial
  1
ByLayer
  2

 70
0
 40
1.0
 71
1
 41
1.0
 91
-1023410177
 42
1.0
 72
1
  3

 73
1
 74
1
 75
1
 44
0.5
 73
0
 45
1.0
 46
1.0
 77
1
  4

 78
1
 79
1
170
1
 48
1.0
171
1
  6

172
1
173
1
174
1
140
1.0
141
1.0
175
1
  7

176
1
177
1
178
1
143
1.0
179
1
  8

270
1
271
1
272
1
145
1.0
146
1.0
273
1
  9

274
1
275
1
276
1
 42
1.0
 72
1
  3

 73
1
 74
1
 75
1
 94
63
  0
MATERIAL
  5
21
102
{ACAD_REACTORS
330
E
102
}
330
E
100
AcDbMaterial
  1
Global
  2

 70
0
 40
1.0
 71
1
 41
1.0
 91
-1023410177
 42
1.0
 72
1
  3

 73
1
 74
1
 75
1
 44
0.5
 73
0
 45
1.0
 46
1.0
 77
1
  4

 78
1
 79
1
170
1
 48
1.0
171
1
  6

172
1
173
1
174
1
140
1.0
141
1.0
175
1
  7

176
1
177
1
178
1
143
1.0
179
1
  8

270
1
271
1
272
1
145
1.0
146
1.0
273
1
  9

274
1
275
1
276
1
 42
1.0
 72
1
  3

 73
1
 74
1
 75
1
 94
63
  0
MLINESTYLE
  5
22
102
{ACAD_REACTORS
330
10
102
}
330
10
100
AcDbMlineStyle
  2
Standard
 70
0
  3

 62
256
 51
90.0
 52
90.0
 71
2
 49
0.5
 62
256
  6
BYLAYER
 49
-0.5
 62
256
  6
BYLAYER
  0
ENDSEC
  0
EOF
