<?xml version="1.0" encoding="UTF-8" standalone="no"?>
<svg
   xmlns:dc="http://purl.org/dc/elements/1.1/"
   xmlns:cc="http://creativecommons.org/ns#"
   xmlns:rdf="http://www.w3.org/1999/02/22-rdf-syntax-ns#"
   xmlns:svg="http://www.w3.org/2000/svg"
   xmlns="http://www.w3.org/2000/svg"
   xmlns:sodipodi="http://sodipodi.sourceforge.net/DTD/sodipodi-0.dtd"
   xmlns:inkscape="http://www.inkscape.org/namespaces/inkscape"
   width="483mm"
   height="88mm"
   viewBox="0 -44 483 88"
   version="1.1"
   id="svg838"
   sodipodi:docname="plate-combined.svg"
   inkscape:version="0.92.2 5c3e80d, 2017-08-06">
  <metadata
     id="metadata844">
    <rdf:RDF>
      <cc:Work
         rdf:about="">
        <dc:format>image/svg+xml</dc:format>
        <dc:type
           rdf:resource="http://purl.org/dc/dcmitype/StillImage" />
        <dc:title>OpenSCAD Model</dc:title>
      </cc:Work>
    </rdf:RDF>
  </metadata>
  <defs
     id="defs842" />
  <sodipodi:namedview
     pagecolor="#ffffff"
     bordercolor="#666666"
     borderopacity="1"
     objecttolerance="10"
     gridtolerance="10"
     guidetolerance="10"
     inkscape:pageopacity="0"
     inkscape:pageshadow="2"
     inkscape:window-width="2465"
     inkscape:window-height="1347"
     id="namedview840"
     showgrid="false"
     inkscape:zoom="1.1262595"
     inkscape:cx="912.75591"
     inkscape:cy="166.29921"
     inkscape:window-x="0"
     inkscape:window-y="0"
     inkscape:window-maximized="0"
     inkscape:current-layer="svg838" />
  <title
     id="title834">OpenSCAD Model</title>
  <path
     d=" M 482.6,-44 L 0,-44 L 0,44 L 482.6,44 z M 7.74976,-34.8004 L 7.55075,-34.8035 L 7.35231,-34.8189 L 7.15521,-34.8467 L 6.96024,-34.8867 L 6.76811,-34.9387  L 6.57959,-35.0025 L 6.3954,-35.078 L 6.21626,-35.1647 L 6.04288,-35.2625 L 5.87589,-35.3708 L 5.71596,-35.4893  L 5.56371,-35.6175 L 5.41972,-35.7549 L 5.28456,-35.901 L 5.15874,-36.0553 L 5.04276,-36.217 L 4.93704,-36.3857  L 4.84203,-36.5605 L 4.75806,-36.741 L 4.68549,-36.9263 L 4.62457,-37.1158 L 4.57555,-37.3087 L 4.53862,-37.5043  L 4.51392,-37.7018 L 4.50154,-37.9005 L 4.50154,-38.0995 L 4.51392,-38.2982 L 4.53862,-38.4957 L 4.57555,-38.6913  L 4.62457,-38.8842 L 4.68549,-39.0736 L 4.75806,-39.259 L 4.84203,-39.4394 L 4.93704,-39.6143 L 5.04276,-39.783  L 5.15874,-39.9447 L 5.28456,-40.099 L 5.41972,-40.2451 L 5.56371,-40.3825 L 5.71596,-40.5107 L 5.87589,-40.6292  L 6.04288,-40.7375 L 6.21626,-40.8352 L 6.3954,-40.922 L 6.57959,-40.9974 L 6.76811,-41.0613 L 6.96024,-41.1133  L 7.15521,-41.1533 L 7.35231,-41.181 L 7.55075,-41.1965 L 7.74976,-41.1996 L 11.0498,-41.1996 L 11.2486,-41.1903  L 11.4464,-41.1687 L 11.6426,-41.1348 L 11.8362,-41.0888 L 12.0266,-41.0308 L 12.2131,-40.9612 L 12.3948,-40.88  L 12.5712,-40.7877 L 12.7414,-40.6846 L 12.905,-40.5712 L 13.0611,-40.4478 L 13.2093,-40.3149 L 13.349,-40.1731  L 13.4795,-40.0228 L 13.6005,-39.8648 L 13.7114,-39.6995 L 13.8118,-39.5276 L 13.9014,-39.3499 L 13.9797,-39.1669  L 14.0464,-38.9794 L 14.1014,-38.7881 L 14.1444,-38.5938 L 14.1753,-38.3971 L 14.1938,-38.1989 L 14.2,-38  L 14.1938,-37.8011 L 14.1753,-37.6029 L 14.1444,-37.4062 L 14.1014,-37.2119 L 14.0464,-37.0206 L 13.9797,-36.8331  L 13.9014,-36.6501 L 13.8118,-36.4724 L 13.7114,-36.3005 L 13.6005,-36.1352 L 13.4795,-35.9772 L 13.349,-35.8269  L 13.2093,-35.6851 L 13.0611,-35.5522 L 12.905,-35.4288 L 12.7414,-35.3153 L 12.5712,-35.2123 L 12.3948,-35.12  L 12.2131,-35.0388 L 12.0266,-34.9691 L 11.8362,-34.9112 L 11.6426,-34.8652 L 11.4464,-34.8313 L 11.2486,-34.8097  L 11.0498,-34.8004 z M 471.65,-34.8004 L 471.451,-34.8035 L 471.252,-34.8189 L 471.055,-34.8467 L 470.86,-34.8867 L 470.668,-34.9387  L 470.48,-35.0025 L 470.295,-35.078 L 470.116,-35.1647 L 469.943,-35.2625 L 469.776,-35.3708 L 469.616,-35.4893  L 469.464,-35.6175 L 469.32,-35.7549 L 469.185,-35.901 L 469.059,-36.0553 L 468.943,-36.217 L 468.837,-36.3857  L 468.742,-36.5605 L 468.658,-36.741 L 468.585,-36.9263 L 468.525,-37.1158 L 468.476,-37.3087 L 468.439,-37.5043  L 468.414,-37.7018 L 468.402,-37.9005 L 468.402,-38.0995 L 468.414,-38.2982 L 468.439,-38.4957 L 468.476,-38.6913  L 468.525,-38.8842 L 468.585,-39.0736 L 468.658,-39.259 L 468.742,-39.4394 L 468.837,-39.6143 L 468.943,-39.783  L 469.059,-39.9447 L 469.185,-40.099 L 469.32,-40.2451 L 469.464,-40.3825 L 469.616,-40.5107 L 469.776,-40.6292  L 469.943,-40.7375 L 470.116,-40.8352 L 470.295,-40.922 L 470.48,-40.9974 L 470.668,-41.0613 L 470.86,-41.1133  L 471.055,-41.1533 L 471.252,-41.181 L 471.451,-41.1965 L 471.65,-41.1996 L 474.95,-41.1996 L 475.149,-41.1903  L 475.346,-41.1687 L 475.543,-41.1348 L 475.736,-41.0888 L 475.927,-41.0308 L 476.113,-40.9612 L 476.295,-40.88  L 476.471,-40.7877 L 476.641,-40.6846 L 476.805,-40.5712 L 476.961,-40.4478 L 477.109,-40.3149 L 477.249,-40.1731  L 477.38,-40.0228 L 477.501,-39.8648 L 477.611,-39.6995 L 477.712,-39.5276 L 477.801,-39.3499 L 477.88,-39.1669  L 477.946,-38.9794 L 478.001,-38.7881 L 478.044,-38.5938 L 478.075,-38.3971 L 478.094,-38.1989 L 478.1,-38  L 478.094,-37.8011 L 478.075,-37.6029 L 478.044,-37.4062 L 478.001,-37.2119 L 477.946,-37.0206 L 477.88,-36.8331  L 477.801,-36.6501 L 477.712,-36.4724 L 477.611,-36.3005 L 477.501,-36.1352 L 477.38,-35.9772 L 477.249,-35.8269  L 477.109,-35.6851 L 476.961,-35.5522 L 476.805,-35.4288 L 476.641,-35.3153 L 476.471,-35.2123 L 476.295,-35.12  L 476.113,-35.0388 L 475.927,-34.9691 L 475.736,-34.9112 L 475.543,-34.8652 L 475.346,-34.8313 L 475.149,-34.8097  L 474.95,-34.8004 z M 191.304,-30.939 L 191.113,-30.9807 L 190.929,-31.0493 L 190.757,-31.1433 L 190.6,-31.2608 L 190.461,-31.3996  L 190.343,-31.5566 L 190.249,-31.7288 L 190.181,-31.9126 L 190.139,-32.1043 L 190.125,-32.3 L 190.139,-32.4957  L 190.181,-32.6874 L 190.249,-32.8712 L 190.343,-33.0434 L 190.461,-33.2004 L 190.6,-33.3391 L 190.757,-33.4567  L 190.929,-33.5507 L 191.113,-33.6193 L 191.304,-33.661 L 191.5,-33.675 L 191.696,-33.661 L 191.887,-33.6193  L 192.071,-33.5507 L 192.243,-33.4567 L 192.4,-33.3391 L 192.539,-33.2004 L 192.657,-33.0434 L 192.751,-32.8712  L 192.819,-32.6874 L 192.861,-32.4957 L 192.875,-32.3 L 192.861,-32.1043 L 192.819,-31.9126 L 192.751,-31.7288  L 192.657,-31.5566 L 192.539,-31.3996 L 192.4,-31.2608 L 192.243,-31.1433 L 192.071,-31.0493 L 191.887,-30.9807  L 191.696,-30.939 L 191.5,-30.925 z M 380.304,-30.939 L 380.113,-30.9807 L 379.929,-31.0493 L 379.757,-31.1433 L 379.6,-31.2608 L 379.461,-31.3996  L 379.343,-31.5566 L 379.249,-31.7288 L 379.181,-31.9126 L 379.139,-32.1043 L 379.125,-32.3 L 379.139,-32.4957  L 379.181,-32.6874 L 379.249,-32.8712 L 379.343,-33.0434 L 379.461,-33.2004 L 379.6,-33.3391 L 379.757,-33.4567  L 379.929,-33.5507 L 380.113,-33.6193 L 380.304,-33.661 L 380.5,-33.675 L 380.696,-33.661 L 380.887,-33.6193  L 381.071,-33.5507 L 381.243,-33.4567 L 381.4,-33.3391 L 381.539,-33.2004 L 381.657,-33.0434 L 381.751,-32.8712  L 381.819,-32.6874 L 381.861,-32.4957 L 381.875,-32.3 L 381.861,-32.1043 L 381.819,-31.9126 L 381.751,-31.7288  L 381.657,-31.5566 L 381.539,-31.3996 L 381.4,-31.2608 L 381.243,-31.1433 L 381.071,-31.0493 L 380.887,-30.9807  L 380.696,-30.939 L 380.5,-30.925 z M 166.204,-30.939 L 166.013,-30.9807 L 165.829,-31.0493 L 165.657,-31.1433 L 165.5,-31.2608 L 165.361,-31.3996  L 165.243,-31.5566 L 165.149,-31.7288 L 165.081,-31.9126 L 165.039,-32.1043 L 165.025,-32.3 L 165.039,-32.4957  L 165.081,-32.6874 L 165.149,-32.8712 L 165.243,-33.0434 L 165.361,-33.2004 L 165.5,-33.3391 L 165.657,-33.4567  L 165.829,-33.5507 L 166.013,-33.6193 L 166.204,-33.661 L 166.4,-33.675 L 166.596,-33.661 L 166.787,-33.6193  L 166.971,-33.5507 L 167.143,-33.4567 L 167.3,-33.3391 L 167.439,-33.2004 L 167.557,-33.0434 L 167.651,-32.8712  L 167.719,-32.6874 L 167.761,-32.4957 L 167.775,-32.3 L 167.761,-32.1043 L 167.719,-31.9126 L 167.651,-31.7288  L 167.557,-31.5566 L 167.439,-31.3996 L 167.3,-31.2608 L 167.143,-31.1433 L 166.971,-31.0493 L 166.787,-30.9807  L 166.596,-30.939 L 166.4,-30.925 z M 53.4043,-30.939 L 53.2126,-30.9807 L 53.0288,-31.0493 L 52.8566,-31.1433 L 52.6996,-31.2608 L 52.5609,-31.3996  L 52.4433,-31.5566 L 52.3493,-31.7288 L 52.2807,-31.9126 L 52.239,-32.1043 L 52.225,-32.3 L 52.239,-32.4957  L 52.2807,-32.6874 L 52.3493,-32.8712 L 52.4433,-33.0434 L 52.5609,-33.2004 L 52.6996,-33.3391 L 52.8566,-33.4567  L 53.0288,-33.5507 L 53.2126,-33.6193 L 53.4043,-33.661 L 53.6,-33.675 L 53.7957,-33.661 L 53.9874,-33.6193  L 54.1712,-33.5507 L 54.3434,-33.4567 L 54.5004,-33.3391 L 54.6392,-33.2004 L 54.7567,-33.0434 L 54.8508,-32.8712  L 54.9193,-32.6874 L 54.961,-32.4957 L 54.975,-32.3 L 54.961,-32.1043 L 54.9193,-31.9126 L 54.8508,-31.7288  L 54.7567,-31.5566 L 54.6392,-31.3996 L 54.5004,-31.2608 L 54.3434,-31.1433 L 54.1712,-31.0493 L 53.9874,-30.9807  L 53.7957,-30.939 L 53.6,-30.925 z M 412.804,-29.139 L 412.613,-29.1807 L 412.429,-29.2493 L 412.257,-29.3433 L 412.1,-29.4608 L 411.961,-29.5996  L 411.843,-29.7566 L 411.749,-29.9288 L 411.681,-30.1126 L 411.639,-30.3043 L 411.625,-30.5 L 411.639,-30.6957  L 411.681,-30.8874 L 411.749,-31.0712 L 411.843,-31.2434 L 411.961,-31.4004 L 412.1,-31.5392 L 412.257,-31.6567  L 412.429,-31.7507 L 412.613,-31.8193 L 412.804,-31.861 L 413,-31.875 L 413.196,-31.861 L 413.387,-31.8193  L 413.571,-31.7507 L 413.743,-31.6567 L 413.9,-31.5392 L 414.039,-31.4004 L 414.157,-31.2434 L 414.251,-31.0712  L 414.319,-30.8874 L 414.361,-30.6957 L 414.375,-30.5 L 414.361,-30.3043 L 414.319,-30.1126 L 414.251,-29.9288  L 414.157,-29.7566 L 414.039,-29.5996 L 413.9,-29.4608 L 413.743,-29.3433 L 413.571,-29.2493 L 413.387,-29.1807  L 413.196,-29.139 L 413,-29.125 z M 444.572,-2.75746 L 444.145,-2.77983 L 443.72,-2.81709 L 443.295,-2.8692 L 442.873,-2.9361 L 442.453,-3.01768  L 442.036,-3.11388 L 441.623,-3.22453 L 441.215,-3.34955 L 440.81,-3.48875 L 440.411,-3.64198 L 440.017,-3.80907  L 439.63,-3.98976 L 439.249,-4.18388 L 438.875,-4.39117 L 438.508,-4.6114 L 438.15,-4.84428 L 437.8,-5.08954  L 437.458,-5.34686 L 437.126,-5.61595 L 436.803,-5.89647 L 436.49,-6.18808 L 436.188,-6.49043 L 435.896,-6.80315  L 435.616,-7.12584 L 435.347,-7.45815 L 435.09,-7.79962 L 434.844,-8.14987 L 434.611,-8.50848 L 434.391,-8.875  L 434.184,-9.24896 L 433.99,-9.62994 L 433.809,-10.0175 L 433.642,-10.4111 L 433.489,-10.8102 L 433.35,-11.2145  L 433.225,-11.6234 L 433.114,-12.0365 L 433.018,-12.4531 L 432.936,-12.8728 L 432.869,-13.2951 L 432.817,-13.7195  L 432.78,-14.1455 L 432.757,-14.5725 L 432.75,-15 L 432.757,-15.4275 L 432.78,-15.8545 L 432.817,-16.2805  L 432.869,-16.7049 L 432.936,-17.1272 L 433.018,-17.5469 L 433.114,-17.9635 L 433.225,-18.3766 L 433.35,-18.7854  L 433.489,-19.1897 L 433.642,-19.5889 L 433.809,-19.9825 L 433.99,-20.37 L 434.184,-20.751 L 434.391,-21.125  L 434.611,-21.4915 L 434.844,-21.8501 L 435.09,-22.2004 L 435.347,-22.5418 L 435.616,-22.8741 L 435.896,-23.1968  L 436.188,-23.5096 L 436.49,-23.8119 L 436.803,-24.1035 L 437.126,-24.384 L 437.458,-24.6531 L 437.8,-24.9104  L 438.15,-25.1557 L 438.508,-25.3886 L 438.875,-25.6088 L 439.249,-25.8161 L 439.63,-26.0102 L 440.017,-26.1909  L 440.411,-26.358 L 440.81,-26.5112 L 441.215,-26.6504 L 441.623,-26.7755 L 442.036,-26.8861 L 442.453,-26.9823  L 442.873,-27.0639 L 443.295,-27.1308 L 443.72,-27.1829 L 444.145,-27.2202 L 444.572,-27.2425 L 445,-27.25  L 445.428,-27.2425 L 445.855,-27.2202 L 446.28,-27.1829 L 446.705,-27.1308 L 447.127,-27.0639 L 447.547,-26.9823  L 447.964,-26.8861 L 448.377,-26.7755 L 448.785,-26.6504 L 449.19,-26.5112 L 449.589,-26.358 L 449.983,-26.1909  L 450.37,-26.0102 L 450.751,-25.8161 L 451.125,-25.6088 L 451.492,-25.3886 L 451.85,-25.1557 L 452.2,-24.9104  L 452.542,-24.6531 L 452.874,-24.384 L 453.197,-24.1035 L 453.51,-23.8119 L 453.812,-23.5096 L 454.104,-23.1968  L 454.384,-22.8741 L 454.653,-22.5418 L 454.91,-22.2004 L 455.156,-21.8501 L 455.389,-21.4915 L 455.609,-21.125  L 455.816,-20.751 L 456.01,-20.37 L 456.191,-19.9825 L 456.358,-19.5889 L 456.511,-19.1897 L 456.65,-18.7854  L 456.775,-18.3766 L 456.886,-17.9635 L 456.982,-17.5469 L 457.064,-17.1272 L 457.131,-16.7049 L 457.183,-16.2805  L 457.22,-15.8545 L 457.243,-15.4275 L 457.25,-15 L 457.243,-14.5725 L 457.22,-14.1455 L 457.183,-13.7195  L 457.131,-13.2951 L 457.064,-12.8728 L 456.982,-12.4531 L 456.886,-12.0365 L 456.775,-11.6234 L 456.65,-11.2145  L 456.511,-10.8102 L 456.358,-10.4111 L 456.191,-10.0175 L 456.01,-9.62994 L 455.816,-9.24896 L 455.609,-8.875  L 455.389,-8.50848 L 455.156,-8.14987 L 454.91,-7.79962 L 454.653,-7.45815 L 454.384,-7.12584 L 454.104,-6.80315  L 453.812,-6.49043 L 453.51,-6.18808 L 453.197,-5.89647 L 452.874,-5.61595 L 452.542,-5.34686 L 452.2,-5.08954  L 451.85,-4.84428 L 451.492,-4.6114 L 451.125,-4.39117 L 450.751,-4.18388 L 450.37,-3.98976 L 449.983,-3.80907  L 449.589,-3.64198 L 449.19,-3.48875 L 448.785,-3.34955 L 448.377,-3.22453 L 447.964,-3.11388 L 447.547,-3.01768  L 447.127,-2.9361 L 446.705,-2.8692 L 446.28,-2.81709 L 445.855,-2.77983 L 445.428,-2.75746 L 445,-2.75  z M 34.9006,-17.001 L 34.7019,-17.0089 L 34.5037,-17.0247 L 34.3063,-17.0483 L 34.11,-17.0798 L 33.9151,-17.1191  L 33.7219,-17.1661 L 33.5307,-17.2207 L 33.3419,-17.2829 L 33.1557,-17.3526 L 32.9724,-17.4296 L 32.7923,-17.5138  L 32.6157,-17.6051 L 32.4428,-17.7034 L 32.274,-17.8084 L 32.1095,-17.9201 L 31.9496,-18.0383 L 31.7945,-18.1627  L 31.6445,-18.2932 L 31.4998,-18.4295 L 31.3606,-18.5715 L 31.2272,-18.7189 L 31.0997,-18.8714 L 30.9784,-19.029  L 30.8635,-19.1912 L 30.7551,-19.3579 L 30.6534,-19.5287 L 30.5586,-19.7035 L 30.4708,-19.8819 L 30.3902,-20.0636  L 30.3168,-20.2484 L 30.2509,-20.436 L 30.1925,-20.6261 L 30.1416,-20.8183 L 30.0985,-21.0124 L 30.0631,-21.208  L 30.0355,-21.4049 L 30.0158,-21.6027 L 30.004,-21.8012 L 30,-22 L 30.004,-22.1988 L 30.0158,-22.3972  L 30.0355,-22.5951 L 30.0631,-22.792 L 30.0985,-22.9876 L 30.1416,-23.1817 L 30.1925,-23.3739 L 30.2509,-23.564  L 30.3168,-23.7515 L 30.3902,-23.9364 L 30.4708,-24.1181 L 30.5586,-24.2965 L 30.6534,-24.4712 L 30.7551,-24.6421  L 30.8635,-24.8088 L 30.9784,-24.971 L 31.0997,-25.1285 L 31.2272,-25.2811 L 31.3606,-25.4285 L 31.4998,-25.5705  L 31.6445,-25.7068 L 31.7945,-25.8373 L 31.9496,-25.9617 L 32.1095,-26.0798 L 32.274,-26.1915 L 32.4428,-26.2966  L 32.6157,-26.3949 L 32.7923,-26.4862 L 32.9724,-26.5704 L 33.1557,-26.6474 L 33.3419,-26.7171 L 33.5307,-26.7793  L 33.7219,-26.8339 L 33.9151,-26.8809 L 34.11,-26.9202 L 34.3063,-26.9516 L 34.5037,-26.9753 L 34.7019,-26.9911  L 34.9006,-26.999 L 35.0994,-26.999 L 35.2981,-26.9911 L 35.4963,-26.9753 L 35.6937,-26.9516 L 35.89,-26.9202  L 36.0849,-26.8809 L 36.2781,-26.8339 L 36.4692,-26.7793 L 36.6581,-26.7171 L 36.8443,-26.6474 L 37.0276,-26.5704  L 37.2077,-26.4862 L 37.3843,-26.3949 L 37.5572,-26.2966 L 37.726,-26.1915 L 37.8905,-26.0798 L 38.0504,-25.9617  L 38.2055,-25.8373 L 38.3555,-25.7068 L 38.5002,-25.5705 L 38.6394,-25.4285 L 38.7728,-25.2811 L 38.9003,-25.1285  L 39.0216,-24.971 L 39.1365,-24.8088 L 39.2449,-24.6421 L 39.3466,-24.4712 L 39.4414,-24.2965 L 39.5292,-24.1181  L 39.6098,-23.9364 L 39.6832,-23.7515 L 39.7491,-23.564 L 39.8075,-23.3739 L 39.8583,-23.1817 L 39.9015,-22.9876  L 39.9369,-22.792 L 39.9644,-22.5951 L 39.9842,-22.3972 L 39.996,-22.1988 L 40,-22 L 39.996,-21.8012  L 39.9842,-21.6027 L 39.9644,-21.4049 L 39.9369,-21.208 L 39.9015,-21.0124 L 39.8583,-20.8183 L 39.8075,-20.6261  L 39.7491,-20.436 L 39.6832,-20.2484 L 39.6098,-20.0636 L 39.5292,-19.8819 L 39.4414,-19.7035 L 39.3466,-19.5287  L 39.2449,-19.3579 L 39.1365,-19.1912 L 39.0216,-19.029 L 38.9003,-18.8714 L 38.7728,-18.7189 L 38.6394,-18.5715  L 38.5002,-18.4295 L 38.3555,-18.2932 L 38.2055,-18.1627 L 38.0504,-18.0383 L 37.8905,-17.9201 L 37.726,-17.8084  L 37.5572,-17.7034 L 37.3843,-17.6051 L 37.2077,-17.5138 L 37.0276,-17.4296 L 36.8443,-17.3526 L 36.6581,-17.2829  L 36.4692,-17.2207 L 36.2781,-17.1661 L 36.0849,-17.1191 L 35.89,-17.0798 L 35.6937,-17.0483 L 35.4963,-17.0247  L 35.2981,-17.0089 L 35.0994,-17.001 z M 434.295,-24.2351 L 434.101,-24.263 L 433.913,-24.3183 L 433.734,-24.3998 L 433.569,-24.5058 L 433.421,-24.6343  L 433.293,-24.7826 L 433.187,-24.9476 L 433.105,-25.1261 L 433.05,-25.3143 L 433.022,-25.5085 L 433.022,-25.7047  L 433.05,-25.8989 L 433.105,-26.0871 L 433.187,-26.2656 L 433.293,-26.4306 L 433.421,-26.5789 L 433.569,-26.7073  L 433.734,-26.8134 L 433.913,-26.8949 L 434.101,-26.9502 L 434.295,-26.9781 L 434.492,-26.9781 L 434.686,-26.9502  L 434.874,-26.8949 L 435.052,-26.8134 L 435.217,-26.7073 L 435.366,-26.5789 L 435.494,-26.4306 L 435.6,-26.2656  L 435.682,-26.0871 L 435.737,-25.8989 L 435.765,-25.7047 L 435.765,-25.5085 L 435.737,-25.3143 L 435.682,-25.1261  L 435.6,-24.9476 L 435.494,-24.7826 L 435.366,-24.6343 L 435.217,-24.5058 L 435.052,-24.3998 L 434.874,-24.3183  L 434.686,-24.263 L 434.492,-24.2351 z M 183.5,26.8 L 183.291,26.7963 L 183.081,26.7854 L 182.873,26.7671 L 182.665,26.7416 L 182.458,26.7088  L 182.253,26.6689 L 182.048,26.6218 L 181.846,26.5676 L 181.646,26.5063 L 181.448,26.4381 L 181.252,26.3631  L 181.06,26.2813 L 180.87,26.1927 L 180.683,26.0977 L 180.5,25.9961 L 180.32,25.8883 L 180.145,25.7742  L 179.973,25.6541 L 179.806,25.528 L 179.643,25.3963 L 179.485,25.2589 L 179.332,25.116 L 179.184,24.9679  L 179.041,24.8148 L 178.904,24.6567 L 178.772,24.494 L 178.646,24.3267 L 178.526,24.1552 L 178.412,23.9795  L 178.304,23.8 L 178.202,23.6168 L 178.107,23.4302 L 178.019,23.2404 L 177.937,23.0476 L 177.862,22.8521  L 177.794,22.6541 L 177.732,22.4538 L 177.678,22.2515 L 177.631,22.0475 L 177.591,21.8419 L 177.558,21.635  L 177.533,21.4272 L 177.515,21.2185 L 177.504,21.0094 L 177.5,20.8 L 177.5,-20.8 L 177.504,-21.0094  L 177.515,-21.2185 L 177.533,-21.4272 L 177.558,-21.635 L 177.591,-21.8419 L 177.631,-22.0475 L 177.678,-22.2515  L 177.732,-22.4538 L 177.794,-22.6541 L 177.862,-22.8521 L 177.937,-23.0476 L 178.019,-23.2404 L 178.107,-23.4302  L 178.202,-23.6168 L 178.304,-23.8 L 178.412,-23.9795 L 178.526,-24.1552 L 178.646,-24.3267 L 178.772,-24.494  L 178.904,-24.6567 L 179.041,-24.8148 L 179.184,-24.9679 L 179.332,-25.116 L 179.485,-25.2589 L 179.643,-25.3963  L 179.806,-25.528 L 179.973,-25.6541 L 180.145,-25.7742 L 180.32,-25.8883 L 180.5,-25.9961 L 180.683,-26.0977  L 180.87,-26.1927 L 181.06,-26.2813 L 181.252,-26.3631 L 181.448,-26.4381 L 181.646,-26.5063 L 181.846,-26.5676  L 182.048,-26.6218 L 182.253,-26.6689 L 182.458,-26.7088 L 182.665,-26.7416 L 182.873,-26.7671 L 183.081,-26.7854  L 183.291,-26.7963 L 183.5,-26.8 L 388.5,-26.8 L 388.709,-26.7963 L 388.919,-26.7854 L 389.127,-26.7671  L 389.335,-26.7416 L 389.542,-26.7088 L 389.747,-26.6689 L 389.952,-26.6218 L 390.154,-26.5676 L 390.354,-26.5063  L 390.552,-26.4381 L 390.748,-26.3631 L 390.94,-26.2813 L 391.13,-26.1927 L 391.317,-26.0977 L 391.5,-25.9961  L 391.68,-25.8883 L 391.855,-25.7742 L 392.027,-25.6541 L 392.194,-25.528 L 392.357,-25.3963 L 392.515,-25.2589  L 392.668,-25.116 L 392.816,-24.9679 L 392.959,-24.8148 L 393.096,-24.6567 L 393.228,-24.494 L 393.354,-24.3267  L 393.474,-24.1552 L 393.588,-23.9795 L 393.696,-23.8 L 393.798,-23.6168 L 393.893,-23.4302 L 393.981,-23.2404  L 394.063,-23.0476 L 394.138,-22.8521 L 394.206,-22.6541 L 394.268,-22.4538 L 394.322,-22.2515 L 394.369,-22.0475  L 394.409,-21.8419 L 394.442,-21.635 L 394.467,-21.4272 L 394.485,-21.2185 L 394.496,-21.0094 L 394.5,-20.8  L 394.5,20.8 L 394.496,21.0094 L 394.485,21.2185 L 394.467,21.4272 L 394.442,21.635 L 394.409,21.8419  L 394.369,22.0475 L 394.322,22.2515 L 394.268,22.4538 L 394.206,22.6541 L 394.138,22.8521 L 394.063,23.0476  L 393.981,23.2404 L 393.893,23.4302 L 393.798,23.6168 L 393.696,23.8 L 393.588,23.9795 L 393.474,24.1552  L 393.354,24.3267 L 393.228,24.494 L 393.096,24.6567 L 392.959,24.8148 L 392.816,24.9679 L 392.668,25.116  L 392.515,25.2589 L 392.357,25.3963 L 392.194,25.528 L 392.027,25.6541 L 391.855,25.7742 L 391.68,25.8883  L 391.5,25.9961 L 391.317,26.0977 L 391.13,26.1927 L 390.94,26.2813 L 390.748,26.3631 L 390.552,26.4381  L 390.354,26.5063 L 390.154,26.5676 L 389.952,26.6218 L 389.747,26.6689 L 389.542,26.7088 L 389.335,26.7416  L 389.127,26.7671 L 388.919,26.7854 L 388.709,26.7963 L 388.5,26.8 z M 408.5,-11.5 L 408.304,-11.5128 L 408.112,-11.5511 L 407.926,-11.6142 L 407.75,-11.701 L 407.587,-11.81  L 407.439,-11.9393 L 407.31,-12.0869 L 407.201,-12.25 L 407.114,-12.426 L 407.051,-12.6118 L 407.013,-12.8042  L 407,-13 L 407,-23 L 407.013,-23.1958 L 407.051,-23.3882 L 407.114,-23.574 L 407.201,-23.75  L 407.31,-23.9131 L 407.439,-24.0607 L 407.587,-24.19 L 407.75,-24.299 L 407.926,-24.3858 L 408.112,-24.4489  L 408.304,-24.4872 L 408.5,-24.5 L 417.5,-24.5 L 417.696,-24.4872 L 417.888,-24.4489 L 418.074,-24.3858  L 418.25,-24.299 L 418.413,-24.19 L 418.561,-24.0607 L 418.69,-23.9131 L 418.799,-23.75 L 418.886,-23.574  L 418.949,-23.3882 L 418.987,-23.1958 L 419,-23 L 419,-13 L 418.987,-12.8042 L 418.949,-12.6118  L 418.886,-12.426 L 418.799,-12.25 L 418.69,-12.0869 L 418.561,-11.9393 L 418.413,-11.81 L 418.25,-11.701  L 418.074,-11.6142 L 417.888,-11.5511 L 417.696,-11.5128 L 417.5,-11.5 z M 61.1,14.7 L 60.9042,14.6872 L 60.7118,14.6489 L 60.526,14.5858 L 60.35,14.499 L 60.1869,14.39  L 60.0394,14.2607 L 59.91,14.1131 L 59.801,13.95 L 59.7142,13.774 L 59.6511,13.5882 L 59.6128,13.3958  L 59.6,13.2 L 59.6,-13.2 L 59.6128,-13.3958 L 59.6511,-13.5882 L 59.7142,-13.774 L 59.801,-13.95  L 59.91,-14.1131 L 60.0394,-14.2607 L 60.1869,-14.39 L 60.35,-14.499 L 60.526,-14.5858 L 60.7118,-14.6489  L 60.9042,-14.6872 L 61.1,-14.7 L 114.9,-14.7 L 115.096,-14.6872 L 115.288,-14.6489 L 115.474,-14.5858  L 115.65,-14.499 L 115.813,-14.39 L 115.961,-14.2607 L 116.09,-14.1131 L 116.199,-13.95 L 116.286,-13.774  L 116.349,-13.5882 L 116.387,-13.3958 L 116.4,-13.2 L 116.4,13.2 L 116.387,13.3958 L 116.349,13.5882  L 116.286,13.774 L 116.199,13.95 L 116.09,14.1131 L 115.961,14.2607 L 115.813,14.39 L 115.65,14.499  L 115.474,14.5858 L 115.288,14.6489 L 115.096,14.6872 L 114.9,14.7 z M 455.508,-3.0219 L 455.314,-3.04982 L 455.126,-3.10509 L 454.948,-3.18658 L 454.783,-3.29265 L 454.634,-3.42111  L 454.506,-3.56938 L 454.4,-3.73442 L 454.318,-3.91287 L 454.263,-4.10112 L 454.235,-4.2953 L 454.235,-4.49149  L 454.263,-4.68567 L 454.318,-4.8739 L 454.4,-5.05235 L 454.506,-5.21739 L 454.634,-5.36566 L 454.783,-5.49414  L 454.948,-5.6002 L 455.126,-5.6817 L 455.314,-5.73697 L 455.508,-5.76489 L 455.705,-5.76489 L 455.899,-5.73697  L 456.087,-5.6817 L 456.266,-5.6002 L 456.431,-5.49414 L 456.579,-5.36566 L 456.707,-5.21739 L 456.813,-5.05235  L 456.895,-4.8739 L 456.95,-4.68567 L 456.978,-4.49149 L 456.978,-4.2953 L 456.95,-4.10112 L 456.895,-3.91287  L 456.813,-3.73442 L 456.707,-3.56938 L 456.579,-3.42111 L 456.431,-3.29265 L 456.266,-3.18658 L 456.087,-3.10509  L 455.899,-3.04982 L 455.705,-3.0219 z M 147.901,3.59863 L 147.703,3.58769 L 147.506,3.56587 L 147.31,3.53322 L 147.116,3.48984 L 146.925,3.43585  L 146.738,3.37143 L 146.554,3.29678 L 146.374,3.21211 L 146.2,3.11769 L 146.031,3.01379 L 145.868,2.90074  L 145.711,2.77888 L 145.562,2.64861 L 145.42,2.51025 L 145.285,2.3643 L 145.159,2.21115 L 145.042,2.0513  L 144.933,1.88521 L 144.834,1.71341 L 144.744,1.53639 L 144.665,1.35471 L 144.595,1.16891 L 144.536,0.979568  L 144.487,0.787247 L 144.449,0.592529 L 144.422,0.396027 L 144.405,0.198303 L 144.4,-0 L 144.405,-0.198303  L 144.422,-0.396027 L 144.449,-0.592529 L 144.487,-0.787247 L 144.536,-0.979568 L 144.595,-1.16891 L 144.665,-1.35471  L 144.744,-1.53639 L 144.834,-1.71341 L 144.933,-1.88521 L 145.042,-2.0513 L 145.159,-2.21115 L 145.285,-2.3643  L 145.42,-2.51025 L 145.562,-2.64861 L 145.711,-2.77888 L 145.868,-2.90074 L 146.031,-3.01379 L 146.2,-3.11769  L 146.374,-3.21211 L 146.554,-3.29678 L 146.738,-3.37143 L 146.925,-3.43585 L 147.116,-3.48984 L 147.31,-3.53322  L 147.506,-3.56587 L 147.703,-3.58769 L 147.901,-3.59863 L 148.099,-3.59863 L 148.297,-3.58769 L 148.494,-3.56587  L 148.69,-3.53322 L 148.884,-3.48984 L 149.075,-3.43585 L 149.262,-3.37143 L 149.446,-3.29678 L 149.626,-3.21211  L 149.8,-3.11769 L 149.969,-3.01379 L 150.132,-2.90074 L 150.289,-2.77888 L 150.438,-2.64861 L 150.58,-2.51025  L 150.715,-2.3643 L 150.841,-2.21115 L 150.958,-2.0513 L 151.067,-1.88521 L 151.166,-1.71341 L 151.256,-1.53639  L 151.335,-1.35471 L 151.405,-1.16891 L 151.464,-0.979568 L 151.513,-0.787247 L 151.551,-0.592529 L 151.578,-0.396027  L 151.595,-0.198303 L 151.6,-0 L 151.595,0.198303 L 151.578,0.396027 L 151.551,0.592529 L 151.513,0.787247  L 151.464,0.979568 L 151.405,1.16891 L 151.335,1.35471 L 151.256,1.53639 L 151.166,1.71341 L 151.067,1.88521  L 150.958,2.0513 L 150.841,2.21115 L 150.715,2.3643 L 150.58,2.51025 L 150.438,2.64861 L 150.289,2.77888  L 150.132,2.90074 L 149.969,3.01379 L 149.8,3.11769 L 149.626,3.21211 L 149.446,3.29678 L 149.262,3.37143  L 149.075,3.43585 L 148.884,3.48984 L 148.69,3.53322 L 148.494,3.56587 L 148.297,3.58769 L 148.099,3.59863  z M 444.572,27.2425 L 444.145,27.2202 L 443.72,27.1829 L 443.295,27.1308 L 442.873,27.0639 L 442.453,26.9823  L 442.036,26.8861 L 441.623,26.7755 L 441.215,26.6504 L 440.81,26.5112 L 440.411,26.358 L 440.017,26.1909  L 439.63,26.0102 L 439.249,25.8161 L 438.875,25.6088 L 438.508,25.3886 L 438.15,25.1557 L 437.8,24.9104  L 437.458,24.6531 L 437.126,24.384 L 436.803,24.1035 L 436.49,23.8119 L 436.188,23.5096 L 435.896,23.1968  L 435.616,22.8741 L 435.347,22.5418 L 435.09,22.2004 L 434.844,21.8501 L 434.611,21.4915 L 434.391,21.125  L 434.184,20.751 L 433.99,20.37 L 433.809,19.9825 L 433.642,19.5889 L 433.489,19.1897 L 433.35,18.7854  L 433.225,18.3766 L 433.114,17.9635 L 433.018,17.5469 L 432.936,17.1272 L 432.869,16.7049 L 432.817,16.2805  L 432.78,15.8545 L 432.757,15.4275 L 432.75,15 L 432.757,14.5725 L 432.78,14.1455 L 432.817,13.7195  L 432.869,13.2951 L 432.936,12.8728 L 433.018,12.4531 L 433.114,12.0365 L 433.225,11.6234 L 433.35,11.2146  L 433.489,10.8103 L 433.642,10.4111 L 433.809,10.0175 L 433.99,9.62996 L 434.184,9.24898 L 434.391,8.875  L 434.611,8.5085 L 434.844,8.14989 L 435.09,7.79964 L 435.347,7.45816 L 435.616,7.12585 L 435.896,6.80316  L 436.188,6.49045 L 436.49,6.1881 L 436.803,5.89648 L 437.126,5.61597 L 437.458,5.34688 L 437.8,5.08955  L 438.15,4.8443 L 438.508,4.61142 L 438.875,4.39119 L 439.249,4.1839 L 439.63,3.98978 L 440.017,3.80908  L 440.411,3.642 L 440.81,3.48877 L 441.215,3.34956 L 441.623,3.22455 L 442.036,3.11389 L 442.453,3.0177  L 442.873,2.93611 L 443.295,2.86922 L 443.72,2.81711 L 444.145,2.77985 L 444.572,2.75748 L 445,2.75  L 445.428,2.75748 L 445.855,2.77985 L 446.28,2.81711 L 446.705,2.86922 L 447.127,2.93611 L 447.547,3.0177  L 447.964,3.11389 L 448.377,3.22455 L 448.785,3.34956 L 449.19,3.48877 L 449.589,3.642 L 449.983,3.80908  L 450.37,3.98978 L 450.751,4.1839 L 451.125,4.39119 L 451.492,4.61142 L 451.85,4.8443 L 452.2,5.08955  L 452.542,5.34688 L 452.874,5.61597 L 453.197,5.89648 L 453.51,6.1881 L 453.812,6.49045 L 454.104,6.80316  L 454.384,7.12585 L 454.653,7.45816 L 454.91,7.79964 L 455.156,8.14989 L 455.389,8.5085 L 455.609,8.875  L 455.816,9.24898 L 456.01,9.62996 L 456.191,10.0175 L 456.358,10.4111 L 456.511,10.8103 L 456.65,11.2146  L 456.775,11.6234 L 456.886,12.0365 L 456.982,12.4531 L 457.064,12.8728 L 457.131,13.2951 L 457.183,13.7195  L 457.22,14.1455 L 457.243,14.5725 L 457.25,15 L 457.243,15.4275 L 457.22,15.8545 L 457.183,16.2805  L 457.131,16.7049 L 457.064,17.1272 L 456.982,17.5469 L 456.886,17.9635 L 456.775,18.3766 L 456.65,18.7854  L 456.511,19.1897 L 456.358,19.5889 L 456.191,19.9825 L 456.01,20.37 L 455.816,20.751 L 455.609,21.125  L 455.389,21.4915 L 455.156,21.8501 L 454.91,22.2004 L 454.653,22.5418 L 454.384,22.8741 L 454.104,23.1968  L 453.812,23.5096 L 453.51,23.8119 L 453.197,24.1035 L 452.874,24.384 L 452.542,24.6531 L 452.2,24.9104  L 451.85,25.1557 L 451.492,25.3886 L 451.125,25.6088 L 450.751,25.8161 L 450.37,26.0102 L 449.983,26.1909  L 449.589,26.358 L 449.19,26.5112 L 448.785,26.6504 L 448.377,26.7755 L 447.964,26.8861 L 447.547,26.9823  L 447.127,27.0639 L 446.705,27.1308 L 446.28,27.1829 L 445.855,27.2202 L 445.428,27.2425 L 445,27.25  z M 434.295,5.76491 L 434.101,5.73698 L 433.913,5.68172 L 433.734,5.60022 L 433.569,5.49416 L 433.421,5.36568  L 433.293,5.21741 L 433.187,5.05237 L 433.105,4.87392 L 433.05,4.68568 L 433.022,4.4915 L 433.022,4.29532  L 433.05,4.10114 L 433.105,3.91289 L 433.187,3.73444 L 433.293,3.5694 L 433.421,3.42113 L 433.569,3.29266  L 433.734,3.1866 L 433.913,3.1051 L 434.101,3.04984 L 434.295,3.02191 L 434.492,3.02191 L 434.686,3.04984  L 434.874,3.1051 L 435.052,3.1866 L 435.217,3.29266 L 435.366,3.42113 L 435.494,3.5694 L 435.6,3.73444  L 435.682,3.91289 L 435.737,4.10114 L 435.765,4.29532 L 435.765,4.4915 L 435.737,4.68568 L 435.682,4.87392  L 435.6,5.05237 L 435.494,5.21741 L 435.366,5.36568 L 435.217,5.49416 L 435.052,5.60022 L 434.874,5.68172  L 434.686,5.73698 L 434.492,5.76491 z M 34.9006,22.999 L 34.7019,22.9911 L 34.5037,22.9753 L 34.3063,22.9516 L 34.11,22.9202 L 33.9151,22.8809  L 33.7219,22.8339 L 33.5307,22.7793 L 33.3419,22.7171 L 33.1557,22.6474 L 32.9724,22.5704 L 32.7923,22.4862  L 32.6157,22.3949 L 32.4428,22.2966 L 32.274,22.1915 L 32.1095,22.0798 L 31.9496,21.9617 L 31.7945,21.8373  L 31.6445,21.7068 L 31.4998,21.5705 L 31.3606,21.4285 L 31.2272,21.2811 L 31.0997,21.1285 L 30.9784,20.971  L 30.8635,20.8088 L 30.7551,20.6421 L 30.6534,20.4712 L 30.5586,20.2965 L 30.4708,20.1181 L 30.3902,19.9364  L 30.3168,19.7515 L 30.2509,19.564 L 30.1925,19.3739 L 30.1416,19.1817 L 30.0985,18.9876 L 30.0631,18.792  L 30.0355,18.5951 L 30.0158,18.3972 L 30.004,18.1988 L 30,18 L 30.004,17.8012 L 30.0158,17.6027  L 30.0355,17.4049 L 30.0631,17.208 L 30.0985,17.0124 L 30.1416,16.8183 L 30.1925,16.6261 L 30.2509,16.436  L 30.3168,16.2484 L 30.3902,16.0636 L 30.4708,15.8819 L 30.5586,15.7035 L 30.6534,15.5287 L 30.7551,15.3579  L 30.8635,15.1912 L 30.9784,15.029 L 31.0997,14.8714 L 31.2272,14.7189 L 31.3606,14.5715 L 31.4998,14.4295  L 31.6445,14.2932 L 31.7945,14.1627 L 31.9496,14.0383 L 32.1095,13.9201 L 32.274,13.8084 L 32.4428,13.7034  L 32.6157,13.6051 L 32.7923,13.5138 L 32.9724,13.4296 L 33.1557,13.3526 L 33.3419,13.2829 L 33.5307,13.2207  L 33.7219,13.1661 L 33.9151,13.1191 L 34.11,13.0798 L 34.3063,13.0483 L 34.5037,13.0247 L 34.7019,13.0089  L 34.9006,13.001 L 35.0994,13.001 L 35.2981,13.0089 L 35.4963,13.0247 L 35.6937,13.0483 L 35.89,13.0798  L 36.0849,13.1191 L 36.2781,13.1661 L 36.4692,13.2207 L 36.6581,13.2829 L 36.8443,13.3526 L 37.0276,13.4296  L 37.2077,13.5138 L 37.3843,13.6051 L 37.5572,13.7034 L 37.726,13.8084 L 37.8905,13.9201 L 38.0504,14.0383  L 38.2055,14.1627 L 38.3555,14.2932 L 38.5002,14.4295 L 38.6394,14.5715 L 38.7728,14.7189 L 38.9003,14.8714  L 39.0216,15.029 L 39.1365,15.1912 L 39.2449,15.3579 L 39.3466,15.5287 L 39.4414,15.7035 L 39.5292,15.8819  L 39.6098,16.0636 L 39.6832,16.2484 L 39.7491,16.436 L 39.8075,16.6261 L 39.8583,16.8183 L 39.9015,17.0124  L 39.9369,17.208 L 39.9644,17.4049 L 39.9842,17.6027 L 39.996,17.8012 L 40,18 L 39.996,18.1988  L 39.9842,18.3972 L 39.9644,18.5951 L 39.9369,18.792 L 39.9015,18.9876 L 39.8583,19.1817 L 39.8075,19.3739  L 39.7491,19.564 L 39.6832,19.7515 L 39.6098,19.9364 L 39.5292,20.1181 L 39.4414,20.2965 L 39.3466,20.4712  L 39.2449,20.6421 L 39.1365,20.8088 L 39.0216,20.971 L 38.9003,21.1285 L 38.7728,21.2811 L 38.6394,21.4285  L 38.5002,21.5705 L 38.3555,21.7068 L 38.2055,21.8373 L 38.0504,21.9617 L 37.8905,22.0798 L 37.726,22.1915  L 37.5572,22.2966 L 37.3843,22.3949 L 37.2077,22.4862 L 37.0276,22.5704 L 36.8443,22.6474 L 36.6581,22.7171  L 36.4692,22.7793 L 36.2781,22.8339 L 36.0849,22.8809 L 35.89,22.9202 L 35.6937,22.9516 L 35.4963,22.9753  L 35.2981,22.9911 L 35.0994,22.999 z M 412.752,24.9897 L 412.555,24.9668 L 412.36,24.931 L 412.168,24.8822 L 411.979,24.821 L 411.795,24.7473  L 411.616,24.6617 L 411.443,24.5644 L 411.277,24.4559 L 411.118,24.3366 L 410.968,24.2072 L 410.827,24.0681  L 410.695,23.9199 L 410.573,23.7634 L 410.462,23.5991 L 410.362,23.4278 L 410.273,23.2503 L 410.196,23.0674  L 410.132,22.8797 L 410.08,22.6883 L 410.041,22.4938 L 410.015,22.2971 L 410.002,22.0992 L 410.002,21.9008  L 410.015,21.7029 L 410.041,21.5062 L 410.08,21.3117 L 410.132,21.1202 L 410.196,20.9326 L 410.273,20.7496  L 410.362,20.5721 L 410.462,20.4009 L 410.573,20.2366 L 410.695,20.0801 L 410.827,19.9319 L 410.968,19.7928  L 411.118,19.6634 L 411.277,19.5441 L 411.443,19.4356 L 411.616,19.3383 L 411.795,19.2527 L 411.979,19.179  L 412.168,19.1177 L 412.36,19.069 L 412.555,19.0331 L 412.752,19.0102 L 412.95,19.0004 L 413.149,19.0037  L 413.346,19.0201 L 413.543,19.0495 L 413.736,19.0918 L 413.927,19.1468 L 414.114,19.2143 L 414.295,19.294  L 414.471,19.3855 L 414.641,19.4885 L 414.803,19.6024 L 414.958,19.7269 L 415.104,19.8612 L 415.24,20.0049  L 415.367,20.1573 L 415.484,20.3178 L 415.59,20.4857 L 415.684,20.6602 L 415.767,20.8405 L 415.837,21.0259  L 415.896,21.2155 L 415.941,21.4086 L 415.974,21.6043 L 415.993,21.8017 L 416,22 L 415.993,22.1983  L 415.974,22.3957 L 415.941,22.5913 L 415.896,22.7844 L 415.837,22.9741 L 415.767,23.1595 L 415.684,23.3398  L 415.59,23.5143 L 415.484,23.6821 L 415.367,23.8426 L 415.24,23.9951 L 415.104,24.1388 L 414.958,24.2731  L 414.803,24.3976 L 414.641,24.5115 L 414.471,24.6144 L 414.295,24.706 L 414.114,24.7857 L 413.927,24.8532  L 413.736,24.9082 L 413.543,24.9505 L 413.346,24.9799 L 413.149,24.9963 L 412.95,24.9996 z M 455.508,26.9781 L 455.314,26.9502 L 455.126,26.8949 L 454.948,26.8134 L 454.783,26.7073 L 454.634,26.5789  L 454.506,26.4306 L 454.4,26.2656 L 454.318,26.0871 L 454.263,25.8989 L 454.235,25.7047 L 454.235,25.5085  L 454.263,25.3143 L 454.318,25.1261 L 454.4,24.9476 L 454.506,24.7826 L 454.634,24.6343 L 454.783,24.5058  L 454.948,24.3998 L 455.126,24.3183 L 455.314,24.263 L 455.508,24.2351 L 455.705,24.2351 L 455.899,24.263  L 456.087,24.3183 L 456.266,24.3998 L 456.431,24.5058 L 456.579,24.6343 L 456.707,24.7826 L 456.813,24.9476  L 456.895,25.1261 L 456.95,25.3143 L 456.978,25.5085 L 456.978,25.7047 L 456.95,25.8989 L 456.895,26.0871  L 456.813,26.2656 L 456.707,26.4306 L 456.579,26.5789 L 456.431,26.7073 L 456.266,26.8134 L 456.087,26.8949  L 455.899,26.9502 L 455.705,26.9781 z M 191.304,33.661 L 191.113,33.6193 L 190.929,33.5507 L 190.757,33.4567 L 190.6,33.3391 L 190.461,33.2004  L 190.343,33.0434 L 190.249,32.8712 L 190.181,32.6874 L 190.139,32.4957 L 190.125,32.3 L 190.139,32.1043  L 190.181,31.9126 L 190.249,31.7288 L 190.343,31.5566 L 190.461,31.3996 L 190.6,31.2608 L 190.757,31.1433  L 190.929,31.0493 L 191.113,30.9807 L 191.304,30.939 L 191.5,30.925 L 191.696,30.939 L 191.887,30.9807  L 192.071,31.0493 L 192.243,31.1433 L 192.4,31.2608 L 192.539,31.3996 L 192.657,31.5566 L 192.751,31.7288  L 192.819,31.9126 L 192.861,32.1043 L 192.875,32.3 L 192.861,32.4957 L 192.819,32.6874 L 192.751,32.8712  L 192.657,33.0434 L 192.539,33.2004 L 192.4,33.3391 L 192.243,33.4567 L 192.071,33.5507 L 191.887,33.6193  L 191.696,33.661 L 191.5,33.675 z M 380.304,33.661 L 380.113,33.6193 L 379.929,33.5507 L 379.757,33.4567 L 379.6,33.3391 L 379.461,33.2004  L 379.343,33.0434 L 379.249,32.8712 L 379.181,32.6874 L 379.139,32.4957 L 379.125,32.3 L 379.139,32.1043  L 379.181,31.9126 L 379.249,31.7288 L 379.343,31.5566 L 379.461,31.3996 L 379.6,31.2608 L 379.757,31.1433  L 379.929,31.0493 L 380.113,30.9807 L 380.304,30.939 L 380.5,30.925 L 380.696,30.939 L 380.887,30.9807  L 381.071,31.0493 L 381.243,31.1433 L 381.4,31.2608 L 381.539,31.3996 L 381.657,31.5566 L 381.751,31.7288  L 381.819,31.9126 L 381.861,32.1043 L 381.875,32.3 L 381.861,32.4957 L 381.819,32.6874 L 381.751,32.8712  L 381.657,33.0434 L 381.539,33.2004 L 381.4,33.3391 L 381.243,33.4567 L 381.071,33.5507 L 380.887,33.6193  L 380.696,33.661 L 380.5,33.675 z M 166.204,33.661 L 166.013,33.6193 L 165.829,33.5507 L 165.657,33.4567 L 165.5,33.3391 L 165.361,33.2004  L 165.243,33.0434 L 165.149,32.8712 L 165.081,32.6874 L 165.039,32.4957 L 165.025,32.3 L 165.039,32.1043  L 165.081,31.9126 L 165.149,31.7288 L 165.243,31.5566 L 165.361,31.3996 L 165.5,31.2608 L 165.657,31.1433  L 165.829,31.0493 L 166.013,30.9807 L 166.204,30.939 L 166.4,30.925 L 166.596,30.939 L 166.787,30.9807  L 166.971,31.0493 L 167.143,31.1433 L 167.3,31.2608 L 167.439,31.3996 L 167.557,31.5566 L 167.651,31.7288  L 167.719,31.9126 L 167.761,32.1043 L 167.775,32.3 L 167.761,32.4957 L 167.719,32.6874 L 167.651,32.8712  L 167.557,33.0434 L 167.439,33.2004 L 167.3,33.3391 L 167.143,33.4567 L 166.971,33.5507 L 166.787,33.6193  L 166.596,33.661 L 166.4,33.675 z M 53.4043,33.661 L 53.2126,33.6193 L 53.0288,33.5507 L 52.8566,33.4567 L 52.6996,33.3391 L 52.5609,33.2004  L 52.4433,33.0434 L 52.3493,32.8712 L 52.2807,32.6874 L 52.239,32.4957 L 52.225,32.3 L 52.239,32.1043  L 52.2807,31.9126 L 52.3493,31.7288 L 52.4433,31.5566 L 52.5609,31.3996 L 52.6996,31.2608 L 52.8566,31.1433  L 53.0288,31.0493 L 53.2126,30.9807 L 53.4043,30.939 L 53.6,30.925 L 53.7957,30.939 L 53.9874,30.9807  L 54.1712,31.0493 L 54.3434,31.1433 L 54.5004,31.2608 L 54.6392,31.3996 L 54.7567,31.5566 L 54.8508,31.7288  L 54.9193,31.9126 L 54.961,32.1043 L 54.975,32.3 L 54.961,32.4957 L 54.9193,32.6874 L 54.8508,32.8712  L 54.7567,33.0434 L 54.6392,33.2004 L 54.5004,33.3391 L 54.3434,33.4567 L 54.1712,33.5507 L 53.9874,33.6193  L 53.7957,33.661 L 53.6,33.675 z M 7.74976,41.1996 L 7.55075,41.1965 L 7.35231,41.1811 L 7.15521,41.1533 L 6.96024,41.1133 L 6.76811,41.0613  L 6.57959,40.9975 L 6.3954,40.922 L 6.21626,40.8353 L 6.04288,40.7375 L 5.87589,40.6292 L 5.71596,40.5107  L 5.56371,40.3825 L 5.41972,40.2451 L 5.28456,40.099 L 5.15874,39.9447 L 5.04276,39.783 L 4.93704,39.6143  L 4.84203,39.4395 L 4.75806,39.259 L 4.68549,39.0737 L 4.62457,38.8842 L 4.57555,38.6913 L 4.53862,38.4957  L 4.51392,38.2982 L 4.50154,38.0995 L 4.50154,37.9005 L 4.51392,37.7018 L 4.53862,37.5043 L 4.57555,37.3087  L 4.62457,37.1158 L 4.68549,36.9264 L 4.75806,36.741 L 4.84203,36.5606 L 4.93704,36.3857 L 5.04276,36.217  L 5.15874,36.0553 L 5.28456,35.901 L 5.41972,35.7549 L 5.56371,35.6175 L 5.71596,35.4893 L 5.87589,35.3708  L 6.04288,35.2625 L 6.21626,35.1648 L 6.3954,35.078 L 6.57959,35.0026 L 6.76811,34.9387 L 6.96024,34.8867  L 7.15521,34.8467 L 7.35231,34.819 L 7.55075,34.8035 L 7.74976,34.8004 L 11.0498,34.8004 L 11.2486,34.8097  L 11.4464,34.8313 L 11.6426,34.8652 L 11.8362,34.9112 L 12.0266,34.9692 L 12.2131,35.0388 L 12.3948,35.12  L 12.5712,35.2123 L 12.7414,35.3154 L 12.905,35.4288 L 13.0611,35.5522 L 13.2093,35.6851 L 13.349,35.8269  L 13.4795,35.9772 L 13.6005,36.1352 L 13.7114,36.3005 L 13.8118,36.4724 L 13.9014,36.6501 L 13.9797,36.8331  L 14.0464,37.0206 L 14.1014,37.2119 L 14.1444,37.4062 L 14.1753,37.6029 L 14.1938,37.8011 L 14.2,38  L 14.1938,38.1989 L 14.1753,38.3971 L 14.1444,38.5938 L 14.1014,38.7881 L 14.0464,38.9794 L 13.9797,39.1669  L 13.9014,39.3499 L 13.8118,39.5276 L 13.7114,39.6995 L 13.6005,39.8648 L 13.4795,40.0228 L 13.349,40.1731  L 13.2093,40.3149 L 13.0611,40.4478 L 12.905,40.5712 L 12.7414,40.6847 L 12.5712,40.7877 L 12.3948,40.88  L 12.2131,40.9612 L 12.0266,41.0309 L 11.8362,41.0888 L 11.6426,41.1348 L 11.4464,41.1687 L 11.2486,41.1903  L 11.0498,41.1996 z M 471.65,41.1996 L 471.451,41.1965 L 471.252,41.1811 L 471.055,41.1533 L 470.86,41.1133 L 470.668,41.0613  L 470.48,40.9975 L 470.295,40.922 L 470.116,40.8353 L 469.943,40.7375 L 469.776,40.6292 L 469.616,40.5107  L 469.464,40.3825 L 469.32,40.2451 L 469.185,40.099 L 469.059,39.9447 L 468.943,39.783 L 468.837,39.6143  L 468.742,39.4395 L 468.658,39.259 L 468.585,39.0737 L 468.525,38.8842 L 468.476,38.6913 L 468.439,38.4957  L 468.414,38.2982 L 468.402,38.0995 L 468.402,37.9005 L 468.414,37.7018 L 468.439,37.5043 L 468.476,37.3087  L 468.525,37.1158 L 468.585,36.9264 L 468.658,36.741 L 468.742,36.5606 L 468.837,36.3857 L 468.943,36.217  L 469.059,36.0553 L 469.185,35.901 L 469.32,35.7549 L 469.464,35.6175 L 469.616,35.4893 L 469.776,35.3708  L 469.943,35.2625 L 470.116,35.1648 L 470.295,35.078 L 470.48,35.0026 L 470.668,34.9387 L 470.86,34.8867  L 471.055,34.8467 L 471.252,34.819 L 471.451,34.8035 L 471.65,34.8004 L 474.95,34.8004 L 475.149,34.8097  L 475.346,34.8313 L 475.543,34.8652 L 475.736,34.9112 L 475.927,34.9692 L 476.113,35.0388 L 476.295,35.12  L 476.471,35.2123 L 476.641,35.3154 L 476.805,35.4288 L 476.961,35.5522 L 477.109,35.6851 L 477.249,35.8269  L 477.38,35.9772 L 477.501,36.1352 L 477.611,36.3005 L 477.712,36.4724 L 477.801,36.6501 L 477.88,36.8331  L 477.946,37.0206 L 478.001,37.2119 L 478.044,37.4062 L 478.075,37.6029 L 478.094,37.8011 L 478.1,38  L 478.094,38.1989 L 478.075,38.3971 L 478.044,38.5938 L 478.001,38.7881 L 477.946,38.9794 L 477.88,39.1669  L 477.801,39.3499 L 477.712,39.5276 L 477.611,39.6995 L 477.501,39.8648 L 477.38,40.0228 L 477.249,40.1731  L 477.109,40.3149 L 476.961,40.4478 L 476.805,40.5712 L 476.641,40.6847 L 476.471,40.7877 L 476.295,40.88  L 476.113,40.9612 L 475.927,41.0309 L 475.736,41.0888 L 475.543,41.1348 L 475.346,41.1687 L 475.149,41.1903  L 474.95,41.1996 z "
     stroke="black"
     fill="lightgray"
     stroke-width="0.5"
     id="path836"
     style="stroke:none;fill:#000000;fill-opacity:1" />
  <path
     id="path867"
     d="m 462.435,-15.459998 h -0.957 v -1.71 h -0.256 v 1.92 h 1.213 z m -436.189701,2.5 h 0.6501 v -0.21 h -1.556 v 0.21 h 0.6499 v 1.71 h 0.256 z m 2.7507,0.431 -0.007,-0.228 -0.006,-0.133 1.013,1.64 h 0.309 v -1.92 h -0.231 v 1.262 l 2e-4,0.0323 8e-4,0.037 0.0012,0.0415 0.0018,0.0462 0.0022,0.0508 0.0028,0.0555 0.0032,0.06 0.0038,0.0647 -1.024,-1.65 h -0.298 v 1.92 h 0.228 z m 10.7358,1.2772 0.0687,-0.006 0.0662,-0.009 0.0638,-0.0129 0.0614,-0.0166 0.059,-0.0203 0.0567,-0.0239 0.0542,-0.0277 0.0517,-0.0311 0.0485,-0.0342 0.0454,-0.0374 0.0424,-0.0405 0.0391,-0.0437 0.0361,-0.0469 0.0329,-0.05 0.0299,-0.0532 0.0267,-0.0561 0.0231,-0.0584 0.0196,-0.0608 0.0161,-0.0629 0.0124,-0.0653 0.0089,-0.0675 0.0054,-0.0699 0.0018,-0.0721 -0.0018,-0.0723 -0.0052,-0.0698 -0.0088,-0.0674 -0.0122,-0.065 -0.0158,-0.0625 -0.0192,-0.0601 -0.0228,-0.0577 -0.0262,-0.0552 -0.0296,-0.0524 -0.0327,-0.0492 -0.0359,-0.0459 -0.0391,-0.0427 -0.0422,-0.0396 -0.0453,-0.0362 -0.0486,-0.0331 -0.0516,-0.0299 -0.0542,-0.0265 -0.0566,-0.0229 -0.0591,-0.0195 -0.0614,-0.0158 -0.0638,-0.0124 -0.0662,-0.009 -0.0687,-0.005 -0.071,-0.002 -0.108,0.004 -0.1019,0.0119 -0.0957,0.0196 -0.0897,0.0276 -0.0836,0.0355 -0.0774,0.0433 -0.0714,0.0511 -0.0653,0.0591 -0.0582,0.0661 -0.0503,0.0722 -0.0427,0.0783 -0.0348,0.0844 -0.0272,0.0906 -0.0193,0.0967 -0.0117,0.1028 -0.0038,0.1089 0.0017,0.0724 0.0052,0.07 0.0087,0.0678 0.0121,0.0656 0.0156,0.0632 0.0191,0.0609 0.0226,0.0587 0.026,0.0564 0.0295,0.0534 0.0327,0.0502 0.0357,0.0469 0.0388,0.0438 0.0419,0.0405 0.045,0.0373 0.0482,0.034 0.0512,0.0309 0.0542,0.0272 0.0568,0.0236 0.0592,0.0199 0.0618,0.0163 0.0642,0.0127 0.0668,0.009 0.0692,0.005 0.0718,0.002 z m -0.1484,-0.2094 -0.073,-0.01 -0.0687,-0.016 -0.0644,-0.0224 -0.0601,-0.0289 -0.0558,-0.0352 -0.0515,-0.0416 -0.0471,-0.0481 -0.042,-0.0535 -0.0363,-0.0581 -0.0308,-0.0625 -0.0252,-0.0671 -0.0196,-0.0717 -0.014,-0.0761 -0.0083,-0.0808 -0.0028,-0.0852 0.0027,-0.0855 0.0083,-0.0807 0.0139,-0.0757 0.0193,-0.0708 0.0249,-0.066 0.0304,-0.061 0.036,-0.0561 0.0415,-0.0512 0.0468,-0.0457 0.0514,-0.0396 0.0559,-0.0335 0.0606,-0.0274 0.0652,-0.0214 0.0698,-0.0152 0.0743,-0.009 0.079,-0.003 0.0784,0.003 0.0739,0.009 0.0692,0.0155 0.0647,0.0216 0.0601,0.0279 0.0555,0.034 0.0509,0.0402 0.0463,0.0464 0.0415,0.0518 0.0359,0.0565 0.0304,0.061 0.0249,0.0657 0.0194,0.0703 0.0138,0.075 0.0083,0.0795 0.0028,0.0842 -0.0028,0.0882 -0.0082,0.0831 -0.0138,0.0779 -0.0192,0.0728 -0.0248,0.0677 -0.0302,0.0626 -0.0358,0.0574 -0.0412,0.0523 -0.0462,0.0464 -0.0509,0.0402 -0.0557,0.0341 -0.0605,0.0278 -0.0652,0.0217 -0.0701,0.0154 -0.0748,0.009 -0.0796,0.003 z m -2.3182,-0.5458 h 0.556 l 0.0733,-0.002 0.0693,-0.007 0.0654,-0.0125 0.0615,-0.0173 0.0575,-0.0224 0.0536,-0.0273 0.0497,-0.0323 0.0457,-0.0373 0.0412,-0.0417 0.0358,-0.0452 0.0302,-0.0487 0.0248,-0.0521 0.0192,-0.0556 0.0138,-0.0591 0.0082,-0.0626 0.0028,-0.066 -0.0027,-0.0663 -0.0082,-0.0625 -0.0137,-0.0586 -0.0192,-0.0548 -0.0246,-0.051 -0.03,-0.0471 -0.0356,-0.0433 -0.041,-0.0394 -0.0458,-0.0351 -0.0503,-0.0305 -0.0548,-0.0258 -0.0593,-0.0211 -0.064,-0.0164 -0.0684,-0.0117 -0.0729,-0.007 -0.0775,-0.002 h -0.796 v 1.92 h 0.256 z m 0,-0.203 v -0.754 h 0.509 l 0.1033,0.006 0.0896,0.0173 0.0758,0.0289 0.062,0.0405 0.0483,0.052 0.0344,0.0636 0.0207,0.0752 0.0069,0.0867 -0.0067,0.09 -0.0202,0.078 -0.0336,0.066 -0.047,0.054 -0.0605,0.042 -0.0739,0.03 -0.0873,0.018 -0.1008,0.006 z m -12.78,0.9578 0.0851,-0.007 0.08,-0.011 0.0747,-0.0154 0.0695,-0.0199 0.0643,-0.0242 0.0591,-0.0286 0.0539,-0.0331 0.048,-0.0373 0.0417,-0.041 0.0352,-0.0446 0.0288,-0.0483 0.0224,-0.052 0.0161,-0.0556 0.0096,-0.0593 0.0032,-0.0629 -5e-4,-0.0251 -0.0013,-0.0242 -0.0023,-0.0234 -0.0032,-0.0225 -0.004,-0.0218 -0.005,-0.0208 -0.0059,-0.02 -0.0068,-0.0192 -0.0076,-0.0184 -0.0083,-0.0179 -0.009,-0.0173 -0.0096,-0.0166 -0.0104,-0.0161 -0.011,-0.0155 -0.0117,-0.0149 -0.0124,-0.0143 -0.0131,-0.0137 -0.0135,-0.0132 -0.0142,-0.0126 -0.0147,-0.012 -0.0153,-0.0115 -0.0158,-0.0109 -0.0164,-0.0103 -0.017,-0.01 -0.0174,-0.009 -0.0178,-0.009 -0.0181,-0.009 -0.0185,-0.008 -0.0188,-0.008 -0.0191,-0.008 -0.0195,-0.007 -0.0198,-0.007 -0.0199,-0.007 -0.0201,-0.007 -0.0204,-0.007 -0.0206,-0.006 -0.0209,-0.006 -0.0211,-0.006 -0.0214,-0.005 -0.0216,-0.005 -0.0431,-0.0104 -0.0432,-0.0103 -0.0433,-0.0102 -0.0434,-0.0101 -0.0626,-0.014 -0.0571,-0.0134 -0.0516,-0.0128 -0.0462,-0.0123 -0.0408,-0.0117 -0.0353,-0.0112 -0.03,-0.0106 -0.0244,-0.01 -0.0211,-0.01 -0.0199,-0.0106 -0.0186,-0.011 -0.0174,-0.0116 -0.0161,-0.0122 -0.0149,-0.0127 -0.0136,-0.0132 -0.0124,-0.0137 -0.0108,-0.0147 -0.0093,-0.0156 -0.0079,-0.0165 -0.0065,-0.0174 -0.0051,-0.0184 -0.0035,-0.0192 -0.0022,-0.0201 -7e-4,-0.0211 0.0018,-0.0351 0.0056,-0.0329 0.0093,-0.0306 0.013,-0.0284 0.0168,-0.0261 0.0204,-0.0239 0.0242,-0.0216 0.0279,-0.0194 0.0317,-0.0173 0.035,-0.0151 0.0383,-0.0127 0.0417,-0.0104 0.0451,-0.008 0.0484,-0.006 0.0517,-0.003 0.0551,-10e-4 0.0503,10e-4 0.0475,0.003 0.0446,0.005 0.0418,0.007 0.039,0.01 0.0361,0.0117 0.0333,0.0138 0.0304,0.0159 0.0281,0.0183 0.0257,0.0208 0.0234,0.0234 0.021,0.026 0.0187,0.0285 0.0164,0.0311 0.014,0.0337 0.0117,0.0362 0.253,-0.044 -0.0189,-0.0573 -0.022,-0.053 -0.0252,-0.0486 -0.0284,-0.0443 -0.0316,-0.04 -0.0348,-0.0356 -0.038,-0.0313 -0.0411,-0.0269 -0.0449,-0.0232 -0.0496,-0.0201 -0.0544,-0.017 -0.0591,-0.0139 -0.0639,-0.0109 -0.0686,-0.008 -0.0734,-0.005 -0.0781,-0.002 -0.0843,0.002 -0.0791,0.006 -0.0742,0.0102 -0.0692,0.0142 -0.0641,0.0183 -0.0591,0.0223 -0.054,0.0264 -0.049,0.0305 -0.0436,0.0342 -0.0378,0.0376 -0.032,0.041 -0.0261,0.0445 -0.0204,0.0478 -0.0145,0.0512 -0.0087,0.0547 -0.0029,0.058 5e-4,0.0259 0.0017,0.0251 0.0027,0.0244 0.0038,0.0236 0.0049,0.0229 0.0061,0.0221 0.0071,0.0214 0.0082,0.0206 0.0095,0.0199 0.0104,0.0193 0.0114,0.0186 0.0124,0.018 0.0134,0.0172 0.0143,0.0167 0.0153,0.016 0.0163,0.0153 0.0175,0.0148 0.019,0.0145 0.0206,0.0142 0.0221,0.0138 0.0237,0.0134 0.0251,0.0131 0.0267,0.0128 0.0283,0.0124 0.0309,0.0123 0.0343,0.0122 0.0376,0.0123 0.0409,0.0122 0.0443,0.0123 0.0477,0.0122 0.051,0.0123 0.0862,0.0194 0.0311,0.007 0.0305,0.007 0.0297,0.007 0.029,0.007 0.0283,0.007 0.0276,0.007 0.0269,0.006 0.026,0.006 0.0251,0.007 0.0242,0.007 0.0232,0.008 0.0223,0.008 0.0213,0.008 0.0204,0.009 0.0195,0.009 0.0187,0.01 0.0176,0.0102 0.0165,0.0108 0.0154,0.0114 0.0144,0.0121 0.0132,0.0127 0.0121,0.0133 0.0111,0.0139 0.0101,0.0148 0.0087,0.0158 0.0074,0.0169 0.006,0.018 0.0047,0.019 0.0034,0.0201 0.002,0.0212 7e-4,0.0222 -0.0021,0.039 -0.0064,0.0367 -0.0105,0.0342 -0.0148,0.0319 -0.019,0.0294 -0.0232,0.027 -0.0274,0.0246 -0.0316,0.0222 -0.0355,0.0195 -0.0391,0.0168 -0.0426,0.0143 -0.0461,0.0117 -0.0496,0.009 -0.0532,0.006 -0.0567,0.004 -0.0602,10e-4 -0.0587,-10e-4 -0.0555,-0.004 -0.0524,-0.006 -0.0492,-0.009 -0.046,-0.0112 -0.0429,-0.0138 -0.0397,-0.0162 -0.0366,-0.0188 -0.0333,-0.0214 -0.0302,-0.0243 -0.0273,-0.0271 -0.0242,-0.0299 -0.0213,-0.0328 -0.0182,-0.0357 -0.0153,-0.0385 -0.0122,-0.0413 -0.249,0.05 0.0366,0.1127 0.0548,0.0977 0.0729,0.0827 0.0912,0.0677 0.1093,0.0526 0.1276,0.0375 0.1457,0.0226 0.1639,0.008 z m 10.8283,-0.7938 0.731,-1.124 h -0.282 l -0.574,0.917 -0.576,-0.917 h -0.283 l 0.729,1.124 v 0.796 h 0.255 z m 6.3464,0.4986 0.0708,-0.2614 0.0608,-0.2253 0.0509,-0.1891 0.0409,-0.1531 0.0309,-0.117 0.0209,-0.0809 0.011,-0.0448 0.0268,-0.1197 0.0322,-0.1453 0.015,0.0712 0.0141,0.0655 0.0132,0.0599 0.0122,0.0542 0.0113,0.0485 0.0103,0.0429 0.0095,0.0372 0.3364,1.2546 h 0.306 l 0.558,-1.92 h -0.267 l -0.0835,0.3041 -0.0732,0.2669 -0.0628,0.2296 -0.0525,0.1924 -0.042,0.1551 -0.0317,0.1179 -0.0213,0.0806 -0.011,0.0434 -0.0338,0.1464 -0.0252,0.1096 -0.012,0.048 -0.0112,-0.0522 -0.0123,-0.055 -0.0132,-0.0578 -0.0143,-0.0607 -0.0152,-0.0636 -0.0163,-0.0664 -0.0172,-0.0692 -0.0183,-0.0721 -0.33,-1.197 h -0.246 l -0.078,0.2815 -0.069,0.2498 -0.0601,0.2183 -0.0511,0.1867 -0.0422,0.155 -0.0331,0.1235 -0.0243,0.0919 -0.0152,0.0603 -0.0103,0.0438 -0.0101,0.043 -0.0097,0.0422 -0.0094,0.0413 -0.0091,0.0404 -0.0088,0.0396 -0.0084,0.0388 -0.0082,0.0379 -0.0129,-0.0605 -0.0131,-0.0601 -0.0135,-0.0597 -0.0137,-0.0592 -0.014,-0.0588 -0.0143,-0.0583 -0.0146,-0.0579 -0.0149,-0.0575 -0.34,-1.222 h -0.268 l 0.558,1.92 h 0.306 z m -10.1574,0.2956 0.0655,-0.006 0.0635,-0.009 0.0615,-0.0129 0.0595,-0.0166 0.0575,-0.0203 0.0555,-0.0239 0.0535,-0.0277 0.051,-0.0314 0.048,-0.0346 0.045,-0.0379 0.042,-0.0411 0.039,-0.0444 0.036,-0.0476 0.033,-0.0509 0.03,-0.0541 0.0267,-0.0569 0.0232,-0.0592 0.0196,-0.0615 0.016,-0.0639 0.0125,-0.0662 0.0089,-0.0684 0.0053,-0.0708 0.0018,-0.0731 -0.0041,-0.1095 -0.0123,-0.1031 -0.0205,-0.0965 -0.0286,-0.0901 -0.0369,-0.0837 -0.045,-0.0772 -0.0532,-0.0707 -0.0614,-0.0642 -0.0687,-0.0574 -0.0756,-0.0498 -0.0824,-0.0421 -0.0893,-0.0344 -0.0962,-0.0268 -0.1031,-0.0192 -0.1099,-0.0115 -0.1168,-0.004 h -0.626 v 1.92 h 0.708 z m -0.5195,-0.2042 v -1.508 h 0.364 l 0.0888,0.003 0.0834,0.009 0.078,0.0146 0.0725,0.0206 0.0672,0.0265 0.0618,0.0323 0.0563,0.0381 0.051,0.0441 0.0452,0.0497 0.0392,0.0549 0.0332,0.0603 0.0271,0.0656 0.0211,0.0709 0.0151,0.0762 0.0091,0.0816 0.003,0.0868 -0.0013,0.0585 -0.004,0.0566 -0.0067,0.0546 -0.0093,0.0526 -0.0119,0.0506 -0.0146,0.0487 -0.0173,0.0467 -0.0199,0.0447 -0.0222,0.0425 -0.0244,0.0399 -0.0268,0.0373 -0.0291,0.0348 -0.0314,0.0322 -0.0337,0.0297 -0.0361,0.0271 -0.0383,0.0245 -0.0403,0.0218 -0.0419,0.0189 -0.0435,0.016 -0.0451,0.0131 -0.0466,0.0101 -0.0483,0.007 -0.0499,0.004 -0.0514,10e-4 z m 13.9977,-0.004 h -1.235 v -0.671 h 1.1 v -0.207 h -1.1 v -0.622 h 1.18 v -0.21 h -1.436 v 1.92 h 1.491 z m -11.447,0.2078 0.0753,-0.006 0.0707,-0.011 0.0663,-0.0153 0.0617,-0.0197 0.0573,-0.024 0.0527,-0.0285 0.0483,-0.0328 0.0431,-0.037 0.0374,-0.0404 0.0316,-0.044 0.0259,-0.0473 0.0201,-0.0509 0.0144,-0.0543 0.0086,-0.0578 0.0029,-0.0613 -0.0019,-0.0465 -0.0058,-0.0444 -0.0095,-0.0423 -0.0133,-0.0403 -0.0172,-0.0382 -0.021,-0.0362 -0.0247,-0.0341 -0.0286,-0.032 -0.0322,-0.0295 -0.0353,-0.0264 -0.0387,-0.0234 -0.0418,-0.0204 -0.0452,-0.0174 -0.0483,-0.0143 -0.0517,-0.0113 -0.0548,-0.008 0.0418,-0.0112 0.0393,-0.0136 0.0369,-0.016 0.0345,-0.0184 0.032,-0.0209 0.0296,-0.0232 0.0271,-0.0257 0.0248,-0.028 0.022,-0.0304 0.0191,-0.0321 0.0162,-0.0339 0.0132,-0.0356 0.0102,-0.0374 0.0074,-0.0391 0.0044,-0.0409 0.0015,-0.0426 -0.0104,-0.1108 -0.0313,-0.0961 -0.052,-0.0813 -0.0728,-0.0665 -0.0937,-0.0518 -0.1145,-0.0369 -0.1352,-0.0222 -0.1561,-0.007 h -0.688 v 1.92 h 0.768 z m -0.5917,-1.0858 v -0.626 h 0.431 l 0.0482,10e-4 0.0454,0.003 0.0424,0.005 0.0395,0.008 0.0365,0.01 0.0336,0.0118 0.0306,0.014 0.0278,0.0162 0.0246,0.0187 0.0213,0.0215 0.0181,0.0244 0.0147,0.0272 0.0115,0.03 0.0082,0.0329 0.0049,0.0357 0.0017,0.0386 -0.0016,0.0404 -0.0048,0.0377 -0.008,0.0351 -0.0111,0.0323 -0.0144,0.0297 -0.0175,0.0269 -0.0207,0.0243 -0.0239,0.0216 -0.0269,0.0188 -0.0302,0.0162 -0.0335,0.0138 -0.0367,0.0112 -0.04,0.009 -0.0433,0.006 -0.0466,0.004 -0.0498,10e-4 z m 0,0.882 v -0.682 h 0.479 l 0.1101,0.005 0.0955,0.0157 0.0808,0.0261 0.0661,0.0365 0.0514,0.047 0.0367,0.0574 0.022,0.0678 0.0074,0.0783 -0.0017,0.0419 -0.0051,0.0393 -0.0084,0.0366 -0.0118,0.034 -0.0152,0.0313 -0.0186,0.0286 -0.0219,0.026 -0.0253,0.0233 -0.0288,0.0204 -0.0327,0.0177 -0.0368,0.0149 -0.0407,0.0123 -0.0448,0.01 -0.0487,0.007 -0.0528,0.004 -0.0567,0.001 z m -5.7206,-0.362 h 0.863 l 0.216,0.568 h 0.262 l -0.76,-1.92 h -0.292 l -0.773,1.92 h 0.266 z m 0.078,-0.2 0.242,-0.631 0.0158,-0.0432 0.0148,-0.0413 0.0138,-0.0392 0.0129,-0.0373 0.0119,-0.0352 0.0109,-0.0333 0.0099,-0.0312 0.009,-0.0293 0.012,-0.038 0.036,0.113 0.0095,0.0294 0.0095,0.0285 0.0095,0.0278 0.0095,0.0271 0.0095,0.0262 0.0095,0.0254 0.0095,0.0247 0.0095,0.0239 0.243,0.633 z m 18.2558,-0.053 h 0.59 l 0.492,0.821 h 0.296 l -0.538,-0.851 0.0528,-0.0109 0.0499,-0.0142 0.0469,-0.0175 0.0439,-0.0209 0.0411,-0.0241 0.0381,-0.0275 0.0351,-0.0308 0.0322,-0.0341 0.0289,-0.0368 0.0249,-0.0388 0.0212,-0.0409 0.0173,-0.043 0.0134,-0.045 0.0096,-0.0471 0.0058,-0.0492 0.0019,-0.0512 -0.0027,-0.0615 -0.0081,-0.058 -0.0136,-0.0546 -0.0191,-0.0511 -0.0244,-0.0477 -0.0299,-0.0442 -0.0354,-0.0407 -0.0408,-0.0372 -0.0457,-0.0333 -0.0504,-0.0288 -0.0549,-0.0244 -0.0595,-0.02 -0.064,-0.0155 -0.0686,-0.0111 -0.0731,-0.007 -0.0778,-0.002 h -0.891 v 1.92 h 0.256 z m 0,-0.203 v -0.69 h 0.609 l 0.0512,10e-4 0.0481,0.004 0.0451,0.007 0.0419,0.009 0.0388,0.0121 0.0357,0.0148 0.0327,0.0175 0.0295,0.0201 0.0265,0.0225 0.023,0.0249 0.0194,0.0273 0.0159,0.0298 0.0124,0.0322 0.0088,0.0347 0.0053,0.0371 0.0017,0.0395 -0.0017,0.0411 -0.0052,0.0387 -0.0087,0.0364 -0.0121,0.0341 -0.0156,0.0317 -0.0191,0.0293 -0.0226,0.027 -0.026,0.0247 -0.0291,0.0218 -0.0321,0.0189 -0.0349,0.016 -0.0379,0.0131 -0.0407,0.0101 -0.0435,0.007 -0.0465,0.004 -0.0493,0.002 z m 370.711801,5.2450001 -0.007,-0.228 -0.006,-0.133 1.013,1.64 h 0.309 v -1.92 h -0.231 v 1.262 l 10e-4,0.0323 v 0.037 l 0.002,0.0415 10e-4,0.0462 0.003,0.0508 0.002,0.0555 0.004,0.06 0.003,0.0647 -1.024,-1.65 h -0.298 v 1.92 h 0.228 z m -6.498,1.2776 0.058,-0.004 0.055,-0.007 0.054,-0.01 0.051,-0.0124 0.05,-0.0151 0.047,-0.0179 0.046,-0.0206 0.043,-0.0232 0.04,-0.0257 0.039,-0.0281 0.035,-0.0305 0.033,-0.033 0.031,-0.0354 0.028,-0.0378 0.026,-0.0403 0.023,-0.0427 0.019,-0.0447 0.017,-0.0467 0.014,-0.0486 0.011,-0.0506 0.007,-0.0526 0.005,-0.0546 0.002,-0.0565 v -1.181 h -0.255 v 1.166 l -0.003,0.065 -0.006,0.0609 -0.011,0.057 -0.016,0.0529 -0.02,0.0488 -0.024,0.0448 -0.029,0.0408 -0.033,0.0368 -0.038,0.0326 -0.041,0.0282 -0.044,0.0239 -0.048,0.0196 -0.051,0.0152 -0.055,0.0108 -0.058,0.006 -0.062,0.002 -0.061,-0.002 -0.057,-0.006 -0.053,-0.0104 -0.049,-0.0147 -0.046,-0.0188 -0.042,-0.0231 -0.039,-0.0272 -0.034,-0.0314 -0.031,-0.0357 -0.027,-0.0395 -0.022,-0.0435 -0.019,-0.0473 -0.014,-0.0512 -0.01,-0.055 -0.006,-0.059 -0.002,-0.0628 v -1.184 h -0.257 v 1.205 l 10e-4,0.0548 0.004,0.0529 0.008,0.051 0.01,0.0491 0.014,0.0471 0.016,0.0453 0.019,0.0434 0.023,0.0414 0.025,0.0391 0.027,0.0367 0.03,0.0343 0.033,0.0319 0.035,0.0296 0.037,0.0272 0.04,0.0248 0.042,0.0224 0.044,0.0197 0.046,0.0171 0.048,0.0144 0.05,0.0118 0.052,0.009 0.053,0.007 0.055,0.004 0.058,0.001 z m 1.935,-8e-4 0.085,-0.007 0.08,-0.011 0.075,-0.0154 0.069,-0.0199 0.065,-0.0242 0.059,-0.0286 0.054,-0.0331 0.048,-0.0373 0.041,-0.041 0.035,-0.0446 0.029,-0.0483 0.023,-0.052 0.016,-0.0556 0.009,-0.0593 0.004,-0.0629 -0.001,-0.0251 -10e-4,-0.0242 -0.003,-0.0234 -0.003,-0.0225 -0.004,-0.0218 -0.005,-0.0208 -0.006,-0.02 -0.006,-0.0192 -0.008,-0.0184 -0.008,-0.0179 -0.009,-0.0173 -0.01,-0.0166 -0.01,-0.0161 -0.011,-0.0155 -0.012,-0.0149 -0.012,-0.0143 -0.014,-0.0137 -0.013,-0.0132 -0.014,-0.0126 -0.015,-0.012 -0.015,-0.0115 -0.016,-0.0109 -0.016,-0.0103 -0.017,-0.01 -0.018,-0.009 -0.018,-0.009 -0.018,-0.009 -0.018,-0.008 -0.019,-0.008 -0.019,-0.008 -0.02,-0.007 -0.019,-0.007 -0.02,-0.007 -0.02,-0.007 -0.021,-0.007 -0.02,-0.006 -0.021,-0.006 -0.021,-0.006 -0.022,-0.005 -0.021,-0.005 -0.044,-0.0104 -0.043,-0.0103 -0.043,-0.0102 -0.043,-0.0101 -0.063,-0.014 -0.057,-0.0134 -0.052,-0.0128 -0.046,-0.0123 -0.041,-0.0117 -0.035,-0.0112 -0.03,-0.0106 -0.024,-0.01 -0.022,-0.01 -0.019,-0.0106 -0.019,-0.011 -0.017,-0.0116 -0.017,-0.0122 -0.014,-0.0127 -0.014,-0.0132 -0.012,-0.0137 -0.011,-0.0147 -0.01,-0.0156 -0.007,-0.0165 -0.007,-0.0174 -0.005,-0.0184 -0.004,-0.0192 -0.002,-0.0201 v -0.0211 l 10e-4,-0.0351 0.006,-0.0329 0.009,-0.0306 0.013,-0.0284 0.017,-0.0261 0.02,-0.0239 0.025,-0.0216 0.028,-0.0194 0.031,-0.0173 0.035,-0.0151 0.039,-0.0127 0.041,-0.0104 0.045,-0.008 0.049,-0.006 0.051,-0.003 0.056,-10e-4 0.05,10e-4 0.047,0.003 0.045,0.005 0.042,0.007 0.039,0.01 0.036,0.0117 0.033,0.0138 0.031,0.0159 0.028,0.0183 0.025,0.0208 0.024,0.0234 0.021,0.026 0.018,0.0285 0.017,0.0311 0.014,0.0337 0.012,0.0362 0.253,-0.044 -0.019,-0.0573 -0.022,-0.053 -0.026,-0.0486 -0.028,-0.0443 -0.032,-0.04 -0.034,-0.0356 -0.038,-0.0313 -0.041,-0.0269 -0.045,-0.0232 -0.05,-0.0201 -0.054,-0.017 -0.059,-0.0139 -0.064,-0.0109 -0.069,-0.008 -0.073,-0.005 -0.078,-0.002 -0.085,0.002 -0.079,0.006 -0.074,0.0102 -0.069,0.0142 -0.064,0.0183 -0.059,0.0223 -0.054,0.0264 -0.049,0.0305 -0.044,0.0342 -0.038,0.0376 -0.032,0.041 -0.026,0.0445 -0.02,0.0478 -0.015,0.0512 -0.009,0.0547 -0.002,0.058 v 0.0259 l 0.002,0.0251 0.002,0.0244 0.004,0.0236 0.005,0.0229 0.006,0.0221 0.007,0.0214 0.009,0.0206 0.009,0.0199 0.01,0.0193 0.012,0.0186 0.012,0.018 0.014,0.0172 0.014,0.0167 0.015,0.016 0.017,0.0153 0.017,0.0148 0.019,0.0145 0.021,0.0142 0.022,0.0138 0.023,0.0134 0.026,0.0131 0.026,0.0128 0.029,0.0124 0.03,0.0123 0.035,0.0122 0.037,0.0123 0.041,0.0122 0.045,0.0123 0.047,0.0122 0.051,0.0123 0.086,0.0194 0.032,0.007 0.03,0.007 0.03,0.007 0.029,0.007 0.028,0.007 0.028,0.007 0.027,0.006 0.026,0.006 0.025,0.007 0.024,0.007 0.023,0.008 0.022,0.008 0.022,0.008 0.02,0.009 0.02,0.009 0.018,0.01 0.018,0.0102 0.016,0.0108 0.016,0.0114 0.014,0.0121 0.013,0.0127 0.012,0.0133 0.012,0.0139 0.01,0.0148 0.008,0.0158 0.008,0.0169 0.006,0.018 0.004,0.019 0.004,0.0201 0.002,0.0212 10e-4,0.0222 -0.003,0.039 -0.006,0.0367 -0.01,0.0342 -0.015,0.0319 -0.019,0.0294 -0.023,0.027 -0.028,0.0246 -0.031,0.0222 -0.036,0.0195 -0.039,0.0168 -0.043,0.0143 -0.046,0.0117 -0.049,0.009 -0.054,0.006 -0.056,0.004 -0.06,0.001 -0.059,-0.001 -0.056,-0.004 -0.052,-0.006 -0.049,-0.009 -0.046,-0.0112 -0.043,-0.0138 -0.04,-0.0162 -0.036,-0.0188 -0.034,-0.0214 -0.03,-0.0243 -0.027,-0.0271 -0.024,-0.0299 -0.022,-0.0328 -0.018,-0.0357 -0.015,-0.0385 -0.012,-0.0413 -0.249,0.05 0.036,0.1127 0.055,0.0977 0.073,0.0827 0.091,0.0677 0.109,0.0526 0.128,0.0375 0.146,0.0226 0.164,0.008 z m 3.867,-1.9178 h -0.257 v 1.92 h 0.257 z m -2.001,1.9178 0.075,-0.006 0.071,-0.011 0.066,-0.0153 0.062,-0.0197 0.057,-0.024 0.053,-0.0285 0.048,-0.0328 0.043,-0.037 0.038,-0.0404 0.031,-0.044 0.026,-0.0473 0.02,-0.0509 0.015,-0.0543 0.008,-0.0578 0.003,-0.0613 -0.002,-0.0465 -0.006,-0.0444 -0.009,-0.0423 -0.013,-0.0403 -0.018,-0.0382 -0.021,-0.0362 -0.024,-0.0341 -0.029,-0.032 -0.032,-0.0295 -0.035,-0.0264 -0.039,-0.0234 -0.042,-0.0204 -0.045,-0.0174 -0.048,-0.0143 -0.052,-0.0113 -0.055,-0.008 0.042,-0.0112 0.039,-0.0136 0.037,-0.016 0.035,-0.0184 0.032,-0.0209 0.029,-0.0232 0.027,-0.0257 0.025,-0.028 0.022,-0.0304 0.019,-0.0321 0.016,-0.0339 0.014,-0.0356 0.01,-0.0374 0.007,-0.0391 0.005,-0.0409 0.001,-0.0426 -0.01,-0.1108 -0.032,-0.0961 -0.052,-0.0813 -0.072,-0.0665 -0.094,-0.0518 -0.115,-0.0369 -0.135,-0.0222 -0.156,-0.007 h -0.688 v 1.92 h 0.768 z m -0.592,-1.0858 v -0.626 h 0.431 l 0.048,10e-4 0.046,0.003 0.042,0.005 0.04,0.008 0.036,0.01 0.034,0.0118 0.03,0.014 0.028,0.0162 0.025,0.0187 0.021,0.0215 0.018,0.0244 0.015,0.0272 0.011,0.03 0.009,0.0329 0.004,0.0357 0.002,0.0386 -0.002,0.0404 -0.004,0.0377 -0.008,0.0351 -0.011,0.0323 -0.015,0.0297 -0.017,0.0269 -0.021,0.0243 -0.024,0.0216 -0.027,0.0188 -0.03,0.0162 -0.033,0.0138 -0.037,0.0112 -0.04,0.009 -0.043,0.006 -0.047,0.004 -0.05,10e-4 z m 0,0.882 v -0.682 h 0.479 l 0.11,0.005 0.096,0.0157 0.08,0.0261 0.067,0.0365 0.051,0.047 0.037,0.0574 0.022,0.0678 0.007,0.0783 -0.002,0.0419 -0.005,0.0393 -0.008,0.0366 -0.012,0.034 -0.015,0.0313 -0.019,0.0286 -0.022,0.026 -0.025,0.0233 -0.029,0.0204 -0.032,0.0177 -0.037,0.0149 -0.041,0.0123 -0.045,0.01 -0.048,0.007 -0.053,0.004 -0.057,0.001 z m 0.334,20.2045999 0.058,-0.004 0.055,-0.007 0.054,-0.01 0.051,-0.0124 0.049,-0.0151 0.048,-0.0179 0.046,-0.0206 0.043,-0.0232 0.04,-0.0257 0.039,-0.0281 0.035,-0.0305 0.033,-0.033 0.031,-0.0354 0.028,-0.0378 0.025,-0.0403 0.023,-0.0427 0.02,-0.0447 0.017,-0.0467 0.014,-0.0486 0.011,-0.0506 0.007,-0.0526 0.005,-0.0546 0.002,-0.0565 v -1.181 h -0.256 v 1.166 l -0.002,0.065 -0.006,0.0609 -0.011,0.057 -0.016,0.0529 -0.02,0.0488 -0.024,0.0448 -0.029,0.0408 -0.034,0.0368 -0.037,0.0326 -0.041,0.0282 -0.044,0.0239 -0.048,0.0196 -0.051,0.0152 -0.055,0.0108 -0.059,0.007 -0.062,0.002 -0.06,-0.002 -0.057,-0.006 -0.053,-0.0104 -0.049,-0.0147 -0.046,-0.0188 -0.042,-0.0231 -0.039,-0.0272 -0.034,-0.0314 -0.031,-0.0357 -0.027,-0.0395 -0.022,-0.0435 -0.019,-0.0473 -0.014,-0.0512 -0.01,-0.055 -0.006,-0.059 -0.002,-0.0628 v -1.184 h -0.257 v 1.205 l 10e-4,0.0548 0.004,0.0529 0.008,0.051 0.01,0.0491 0.014,0.0471 0.016,0.0453 0.019,0.0434 0.023,0.0414 0.025,0.0391 0.027,0.0367 0.03,0.0343 0.033,0.0319 0.035,0.0296 0.037,0.0272 0.039,0.0248 0.043,0.0224 0.044,0.0197 0.046,0.0171 0.048,0.0144 0.05,0.0118 0.052,0.009 0.053,0.007 0.055,0.004 0.058,10e-4 z m -2.362,-0.5666 h 0.863 l 0.216,0.568 h 0.262 l -0.76,-1.92 h -0.292 l -0.773,1.92 h 0.266 z m 0.078,-0.2 0.242,-0.631 0.016,-0.0432 0.015,-0.0413 0.013,-0.0392 0.013,-0.0373 0.012,-0.0352 0.011,-0.0333 0.01,-0.0312 0.009,-0.0293 0.012,-0.038 0.036,0.113 0.009,0.0294 0.01,0.0285 0.009,0.0278 0.01,0.0271 0.009,0.0262 0.01,0.0254 0.009,0.0247 0.01,0.0239 0.243,0.633 z m 4.127,-0.071 0.568,0.839 h 0.284 l -0.703,-1.007 0.648,-0.913 h -0.284 l -0.512,0.754 -0.527,-0.754 h -0.283 l 0.665,0.923 -0.72,0.997 h 0.283 z m 46.098,1.018 h 0.589 l 0.493,0.821 h 0.295 l -0.538,-0.851 0.053,-0.0109 0.05,-0.0142 0.047,-0.0175 0.044,-0.0209 0.041,-0.0241 0.038,-0.0275 0.035,-0.0308 0.032,-0.0341 0.029,-0.0368 0.025,-0.0388 0.021,-0.0409 0.018,-0.043 0.013,-0.045 0.01,-0.0471 0.006,-0.0492 0.001,-0.0512 -0.002,-0.0615 -0.008,-0.058 -0.014,-0.0546 -0.019,-0.0511 -0.024,-0.0477 -0.03,-0.0442 -0.036,-0.0407 -0.04,-0.0372 -0.046,-0.0333 -0.051,-0.0288 -0.055,-0.0244 -0.059,-0.02 -0.064,-0.0155 -0.069,-0.0111 -0.073,-0.007 -0.078,-0.002 h -0.89 v 1.92 h 0.256 z m 0,-0.203 v -0.69 h 0.608 l 0.052,10e-4 0.048,0.004 0.045,0.007 0.042,0.009 0.039,0.0121 0.035,0.0148 0.033,0.0175 0.029,0.0201 0.027,0.0225 0.023,0.0249 0.019,0.0273 0.016,0.0298 0.013,0.0322 0.008,0.0347 0.006,0.0371 0.002,0.0395 -0.002,0.0411 -0.005,0.0387 -0.009,0.0364 -0.012,0.0341 -0.016,0.0317 -0.019,0.0293 -0.022,0.027 -0.027,0.0247 -0.029,0.0218 -0.032,0.0189 -0.035,0.016 -0.037,0.0131 -0.041,0.0101 -0.044,0.007 -0.046,0.004 -0.05,10e-4 z m -309.231,4.941 -0.005,-0.258 -0.004,-0.152 0.044,0.15 0.075,0.232 0.496,1.311 h 0.18 l 0.49,-1.311 0.013,-0.0362 0.014,-0.0394 0.014,-0.0428 0.014,-0.0461 0.015,-0.0494 0.016,-0.0527 0.016,-0.0561 0.016,-0.0593 -0.003,0.0495 -0.002,0.05 -0.002,0.0505 -0.002,0.051 -0.001,0.0515 -0.001,0.052 -0.001,0.0525 v 0.053 1.283 h 0.231 v -1.92 h -0.33 l -0.494,1.334 -0.003,0.008 -0.005,0.0111 -0.004,0.0137 -0.006,0.0162 -0.006,0.0188 -0.007,0.0213 -0.008,0.0239 -0.008,0.0265 -0.008,0.0269 -0.008,0.0251 -0.006,0.0234 -0.006,0.0216 -0.006,0.0199 -0.004,0.0181 -0.004,0.0164 -0.003,0.0146 -0.002,-0.011 -0.003,-0.0127 -0.004,-0.0142 -0.003,-0.0158 -0.005,-0.0175 -0.005,-0.019 -0.005,-0.0206 -0.006,-0.0222 -0.006,-0.0228 -0.006,-0.0225 -0.007,-0.0221 -0.006,-0.0218 -0.006,-0.0215 -0.007,-0.0211 -0.006,-0.0208 -0.007,-0.0204 -0.504,-1.334 h -0.337 v 1.92 h 0.228 z m 3.523,1.073 h -1.235 v -0.671 h 1.1 v -0.207 h -1.1 v -0.622 h 1.18 v -0.21 h -1.436 v 1.92 h 1.491 z m -6.006,0 h -0.957 v -1.71 h -0.256 v 1.92 h 1.213 z m -54.767001,-0.586 0.731,-1.124 h -0.282 l -0.574,0.917 -0.576,-0.917 h -0.283 l 0.729,1.124 v 0.796 h 0.255 z m -5.4878,0.039 h 0.556 l 0.0733,-0.002 0.0694,-0.007 0.0654,-0.0125 0.0614,-0.0173 0.0576,-0.0224 0.0536,-0.0273 0.0496,-0.0323 0.0457,-0.0373 0.0413,-0.0417 0.0357,-0.0452 0.0303,-0.0487 0.0247,-0.0521 0.0193,-0.0557 0.0137,-0.059 0.0083,-0.0626 0.0027,-0.066 -0.0027,-0.0663 -0.0082,-0.0625 -0.0137,-0.0586 -0.0191,-0.0549 -0.0246,-0.0509 -0.0301,-0.0471 -0.0355,-0.0433 -0.0411,-0.0394 -0.0457,-0.0351 -0.0503,-0.0305 -0.0548,-0.0258 -0.0594,-0.0211 -0.0639,-0.0164 -0.0684,-0.0117 -0.073,-0.007 -0.0775,-0.002 h -0.796 v 1.92 h 0.256 z m 0,-0.203 v -0.754 h 0.509 l 0.1034,0.006 0.0896,0.0173 0.0758,0.0289 0.062,0.0405 0.0482,0.052 0.0345,0.0636 0.0206,0.0752 0.0069,0.0867 -0.0067,0.09 -0.0201,0.078 -0.0336,0.066 -0.0471,0.054 -0.0604,0.042 -0.0739,0.03 -0.0874,0.018 -0.1008,0.006 z m -6.0012,-0.96 h -0.257 v 1.92 h 0.257 z m 1.9983,1.9182 0.0655,-0.006 0.0635,-0.009 0.0615,-0.0129 0.0595,-0.0166 0.0575,-0.0203 0.0555,-0.0239 0.0535,-0.0277 0.051,-0.0314 0.048,-0.0346 0.045,-0.0379 0.042,-0.0411 0.039,-0.0444 0.036,-0.0476 0.033,-0.0509 0.03,-0.0541 0.0267,-0.0569 0.0232,-0.0592 0.0196,-0.0616 0.016,-0.0638 0.0125,-0.0662 0.0089,-0.0684 0.0053,-0.0708 0.0018,-0.0731 -0.0041,-0.1095 -0.0123,-0.1031 -0.0204,-0.0965 -0.0287,-0.0901 -0.0369,-0.0837 -0.045,-0.0772 -0.0532,-0.0707 -0.0614,-0.0642 -0.0687,-0.0574 -0.0756,-0.0498 -0.0824,-0.0421 -0.0893,-0.0345 -0.0962,-0.0267 -0.1031,-0.0192 -0.1099,-0.0115 -0.1168,-0.004 h -0.626 v 1.92 h 0.708 z m -0.5195,-0.2042 v -1.508 h 0.364 l 0.0888,0.003 0.0834,0.009 0.078,0.0146 0.0725,0.0206 0.0672,0.0264 0.0618,0.0324 0.0563,0.0381 0.051,0.0441 0.0452,0.0497 0.0392,0.0549 0.0332,0.0603 0.0271,0.0656 0.0211,0.0709 0.0151,0.0762 0.0091,0.0816 0.003,0.0868 -0.0013,0.0585 -0.004,0.0566 -0.0067,0.0545 -0.0093,0.0527 -0.0119,0.0506 -0.0146,0.0487 -0.0173,0.0467 -0.0199,0.0447 -0.0222,0.0425 -0.0244,0.0399 -0.0268,0.0373 -0.0291,0.0348 -0.0314,0.0322 -0.0337,0.0297 -0.0361,0.0271 -0.0383,0.0245 -0.0403,0.0218 -0.0419,0.0189 -0.0435,0.016 -0.0451,0.013 -0.0466,0.0102 -0.0483,0.007 -0.0499,0.004 -0.0514,0.001 z m -3.3174,-0.551 h 0.556 l 0.0733,-0.002 0.0693,-0.007 0.0654,-0.0125 0.0615,-0.0173 0.0575,-0.0224 0.0536,-0.0273 0.0497,-0.0323 0.0457,-0.0373 0.0413,-0.0417 0.0357,-0.0452 0.0303,-0.0487 0.0247,-0.0521 0.0193,-0.0557 0.0137,-0.059 0.0083,-0.0626 0.0027,-0.066 -0.0027,-0.0663 -0.0082,-0.0625 -0.0137,-0.0586 -0.0191,-0.0549 -0.0247,-0.0509 -0.03,-0.0471 -0.0356,-0.0433 -0.041,-0.0394 -0.0458,-0.0351 -0.0503,-0.0305 -0.0548,-0.0258 -0.0593,-0.0211 -0.0639,-0.0164 -0.0685,-0.0117 -0.0729,-0.007 -0.0775,-0.002 h -0.796 v 1.92 h 0.256 z m 0,-0.203 v -0.754 h 0.509 l 0.1034,0.006 0.0895,0.0173 0.0758,0.0289 0.0621,0.0405 0.0482,0.052 0.0345,0.0636 0.0206,0.0752 0.0069,0.0867 -0.0067,0.09 -0.0202,0.078 -0.0336,0.066 -0.047,0.054 -0.0605,0.042 -0.0739,0.03 -0.0873,0.018 -0.1008,0.006 z m 5.3054,-0.96 h -0.257 v 1.92 h 0.257 z m 1.2603,1.9178 0.0851,-0.007 0.08,-0.011 0.0747,-0.0155 0.0695,-0.0198 0.0643,-0.0242 0.0591,-0.0286 0.0539,-0.0331 0.048,-0.0373 0.0416,-0.041 0.0353,-0.0446 0.0288,-0.0483 0.0224,-0.052 0.0161,-0.0556 0.0096,-0.0593 0.0032,-0.0629 -5e-4,-0.0251 -0.0013,-0.0242 -0.0023,-0.0234 -0.0032,-0.0225 -0.0041,-0.0218 -0.005,-0.0208 -0.0058,-0.02 -0.0068,-0.0192 -0.0076,-0.0184 -0.0083,-0.0179 -0.009,-0.0173 -0.0096,-0.0166 -0.0104,-0.0161 -0.011,-0.0155 -0.0117,-0.0149 -0.0124,-0.0143 -0.0131,-0.0137 -0.0136,-0.0132 -0.0141,-0.0126 -0.0147,-0.012 -0.0153,-0.0115 -0.0159,-0.0109 -0.0164,-0.0103 -0.0169,-0.01 -0.0175,-0.009 -0.0177,-0.009 -0.0181,-0.009 -0.0185,-0.008 -0.0188,-0.008 -0.0191,-0.008 -0.0195,-0.007 -0.0198,-0.007 -0.0199,-0.007 -0.0201,-0.007 -0.0204,-0.007 -0.0206,-0.006 -0.0209,-0.006 -0.0211,-0.006 -0.0214,-0.005 -0.0216,-0.005 -0.0431,-0.0104 -0.0432,-0.0103 -0.0433,-0.0102 -0.0434,-0.0101 -0.0626,-0.014 -0.057,-0.0134 -0.0517,-0.0128 -0.0462,-0.0123 -0.0408,-0.0117 -0.0353,-0.0112 -0.03,-0.0106 -0.0244,-0.01 -0.0211,-0.01 -0.0199,-0.0106 -0.0186,-0.011 -0.0174,-0.0116 -0.0161,-0.0122 -0.0149,-0.0127 -0.0136,-0.0132 -0.0124,-0.0137 -0.0108,-0.0147 -0.0093,-0.0156 -0.0079,-0.0165 -0.0065,-0.0174 -0.005,-0.0184 -0.0036,-0.0192 -0.0022,-0.0202 -7e-4,-0.021 0.0018,-0.0351 0.0056,-0.0329 0.0093,-0.0306 0.013,-0.0284 0.0168,-0.0261 0.0204,-0.0239 0.0242,-0.0216 0.0279,-0.0194 0.0317,-0.0173 0.035,-0.0151 0.0383,-0.0127 0.0417,-0.0104 0.0451,-0.008 0.0484,-0.006 0.0517,-0.003 0.0551,-0.001 0.0503,0.001 0.0475,0.003 0.0446,0.005 0.0418,0.007 0.039,0.01 0.0361,0.0117 0.0333,0.0138 0.0304,0.0159 0.028,0.0183 0.0258,0.0208 0.0234,0.0234 0.021,0.026 0.0187,0.0285 0.0164,0.0311 0.014,0.0337 0.0117,0.0362 0.253,-0.044 -0.0189,-0.0573 -0.022,-0.053 -0.0252,-0.0486 -0.0284,-0.0443 -0.0316,-0.04 -0.0348,-0.0356 -0.038,-0.0313 -0.0411,-0.0269 -0.0449,-0.0232 -0.0496,-0.0201 -0.0544,-0.017 -0.0591,-0.014 -0.0639,-0.0108 -0.0686,-0.008 -0.0734,-0.005 -0.0781,-0.002 -0.0843,0.002 -0.0791,0.006 -0.0742,0.0102 -0.0692,0.0142 -0.0641,0.0183 -0.0591,0.0223 -0.054,0.0264 -0.049,0.0305 -0.0436,0.0342 -0.0378,0.0376 -0.032,0.041 -0.0261,0.0445 -0.0204,0.0478 -0.0145,0.0512 -0.0087,0.0547 -0.0029,0.058 5e-4,0.0259 0.0017,0.0251 0.0027,0.0244 0.0038,0.0236 0.005,0.0229 0.006,0.0221 0.0071,0.0214 0.0082,0.0206 0.0095,0.0199 0.0104,0.0193 0.0114,0.0186 0.0124,0.018 0.0134,0.0172 0.0143,0.0167 0.0153,0.016 0.0163,0.0153 0.0175,0.0148 0.019,0.0145 0.0206,0.0142 0.0221,0.0138 0.0237,0.0134 0.0251,0.0131 0.0268,0.0128 0.0282,0.0124 0.0309,0.0122 0.0343,0.0123 0.0376,0.0123 0.0409,0.0122 0.0443,0.0123 0.0477,0.0122 0.051,0.0123 0.0862,0.0194 0.0311,0.007 0.0305,0.007 0.0297,0.007 0.0291,0.007 0.0282,0.007 0.0276,0.007 0.0269,0.006 0.026,0.006 0.0251,0.007 0.0242,0.007 0.0232,0.008 0.0223,0.008 0.0213,0.008 0.0204,0.009 0.0195,0.009 0.0187,0.01 0.0176,0.0102 0.0165,0.0108 0.0154,0.0114 0.0143,0.0121 0.0133,0.0126 0.0121,0.0134 0.0111,0.0139 0.01,0.0148 0.0088,0.0158 0.0074,0.0169 0.006,0.018 0.0047,0.019 0.0034,0.0201 0.002,0.0212 7e-4,0.0222 -0.0021,0.039 -0.0064,0.0367 -0.0105,0.0342 -0.0148,0.0319 -0.019,0.0294 -0.0232,0.027 -0.0274,0.0246 -0.0316,0.0222 -0.0356,0.0195 -0.039,0.0168 -0.0426,0.0143 -0.0461,0.0116 -0.0496,0.009 -0.0532,0.007 -0.0567,0.004 -0.0602,10e-4 -0.0587,-10e-4 -0.0555,-0.004 -0.0524,-0.006 -0.0492,-0.009 -0.046,-0.0112 -0.0429,-0.0138 -0.0397,-0.0162 -0.0366,-0.0188 -0.0333,-0.0214 -0.0302,-0.0243 -0.0273,-0.0271 -0.0242,-0.0299 -0.0213,-0.0328 -0.0182,-0.0357 -0.0153,-0.0385 -0.0122,-0.0413 -0.249,0.05 0.0366,0.1127 0.0548,0.0977 0.0729,0.0827 0.0912,0.0677 0.1093,0.0526 0.1276,0.0375 0.1457,0.0226 0.1639,0.008 z m 62.639901,8e-4 0.058,-0.004 0.055,-0.007 0.054,-0.01 0.051,-0.0124 0.05,-0.0151 0.047,-0.0179 0.046,-0.0206 0.043,-0.0232 0.041,-0.0257 0.038,-0.0281 0.036,-0.0305 0.033,-0.033 0.03,-0.0354 0.028,-0.0378 0.026,-0.0403 0.023,-0.0427 0.02,-0.0447 0.017,-0.0467 0.013,-0.0487 0.011,-0.0506 0.008,-0.0525 0.004,-0.0546 0.002,-0.0565 v -1.181 h -0.255 v 1.166 l -0.002,0.065 -0.007,0.0609 -0.011,0.057 -0.016,0.0528 -0.02,0.0489 -0.024,0.0448 -0.029,0.0408 -0.033,0.0368 -0.037,0.0326 -0.041,0.0282 -0.045,0.0239 -0.047,0.0196 -0.052,0.0152 -0.055,0.0108 -0.058,0.007 -0.062,0.002 -0.061,-0.002 -0.056,-0.006 -0.053,-0.0104 -0.05,-0.0147 -0.046,-0.0188 -0.042,-0.0231 -0.038,-0.0272 -0.035,-0.0314 -0.031,-0.0357 -0.026,-0.0395 -0.023,-0.0435 -0.018,-0.0473 -0.015,-0.0512 -0.01,-0.055 -0.006,-0.059 -0.002,-0.0628 v -1.184 h -0.257 v 1.205 l 0.001,0.0548 0.005,0.0529 0.007,0.051 0.011,0.049 0.013,0.0472 0.016,0.0453 0.02,0.0434 0.022,0.0414 0.025,0.0391 0.028,0.0367 0.03,0.0343 0.032,0.0319 0.035,0.0296 0.037,0.0272 0.04,0.0248 0.042,0.0224 0.044,0.0197 0.046,0.0171 0.049,0.0144 0.049,0.0118 0.052,0.009 0.054,0.007 0.055,0.004 0.057,0.001 z m -58.040401,-0.5666 h 0.863 l 0.216,0.568 h 0.262 l -0.76,-1.92 h -0.292 l -0.773,1.92 h 0.266 z m 0.078,-0.2 0.242,-0.631 0.0158,-0.0432 0.0148,-0.0413 0.0138,-0.0392 0.0128,-0.0373 0.0119,-0.0352 0.011,-0.0333 0.0099,-0.0312 0.009,-0.0293 0.012,-0.038 0.036,0.113 0.0095,0.0294 0.0095,0.0285 0.0095,0.0278 0.0095,0.0271 0.0095,0.0262 0.0095,0.0254 0.0095,0.0247 0.0095,0.0239 0.243,0.633 z m 54.441401,0.7662 0.068,-0.006 0.067,-0.009 0.063,-0.0129 0.062,-0.0166 0.059,-0.0203 0.057,-0.0239 0.054,-0.0277 0.051,-0.0311 0.049,-0.0342 0.045,-0.0374 0.043,-0.0405 0.039,-0.0437 0.036,-0.0469 0.033,-0.05 0.03,-0.0532 0.026,-0.0561 0.024,-0.0585 0.019,-0.0607 0.016,-0.0629 0.013,-0.0653 0.009,-0.0676 0.005,-0.0698 0.002,-0.0721 -0.002,-0.0723 -0.005,-0.0698 -0.009,-0.0674 -0.012,-0.065 -0.016,-0.0625 -0.019,-0.0601 -0.023,-0.0577 -0.026,-0.0552 -0.03,-0.0524 -0.033,-0.0492 -0.035,-0.0459 -0.04,-0.0427 -0.042,-0.0396 -0.045,-0.0363 -0.049,-0.033 -0.051,-0.0299 -0.054,-0.0265 -0.057,-0.0229 -0.059,-0.0195 -0.061,-0.0158 -0.064,-0.0124 -0.067,-0.009 -0.068,-0.005 -0.071,-0.002 -0.108,0.004 -0.102,0.0119 -0.096,0.0196 -0.09,0.0276 -0.083,0.0354 -0.078,0.0434 -0.071,0.0511 -0.065,0.0591 -0.058,0.0661 -0.051,0.0722 -0.042,0.0783 -0.035,0.0844 -0.027,0.0906 -0.02,0.0966 -0.011,0.1029 -0.004,0.1089 0.001,0.0724 0.006,0.07 0.008,0.0678 0.013,0.0656 0.015,0.0632 0.019,0.0609 0.023,0.0587 0.026,0.0564 0.029,0.0534 0.033,0.0502 0.036,0.0469 0.039,0.0438 0.041,0.0405 0.045,0.0373 0.049,0.034 0.051,0.0309 0.054,0.0272 0.057,0.0236 0.059,0.0199 0.062,0.0163 0.064,0.0127 0.067,0.009 0.069,0.005 0.072,0.002 z m -0.149,-0.2094 -0.073,-0.01 -0.068,-0.016 -0.065,-0.0224 -0.06,-0.0289 -0.056,-0.0352 -0.051,-0.0416 -0.047,-0.0481 -0.042,-0.0535 -0.037,-0.0581 -0.03,-0.0625 -0.025,-0.0671 -0.02,-0.0717 -0.014,-0.0762 -0.008,-0.0807 -0.003,-0.0852 0.003,-0.0855 0.008,-0.0807 0.014,-0.0757 0.019,-0.0708 0.025,-0.066 0.03,-0.061 0.036,-0.0561 0.042,-0.0512 0.047,-0.0457 0.051,-0.0396 0.056,-0.0335 0.061,-0.0274 0.065,-0.0214 0.069,-0.0152 0.075,-0.009 0.079,-0.003 0.078,0.003 0.074,0.009 0.069,0.0155 0.065,0.0216 0.06,0.0279 0.056,0.034 0.05,0.0402 0.047,0.0464 0.041,0.0518 0.036,0.0564 0.031,0.0611 0.025,0.0657 0.019,0.0703 0.014,0.075 0.008,0.0795 0.003,0.0842 -0.003,0.0882 -0.008,0.0831 -0.014,0.0779 -0.019,0.0728 -0.025,0.0677 -0.03,0.0625 -0.036,0.0575 -0.041,0.0523 -0.046,0.0464 -0.051,0.0402 -0.056,0.0341 -0.06,0.0278 -0.066,0.0217 -0.07,0.0154 -0.075,0.009 -0.079,0.003 z m -0.977,-1.7088 h -0.27 l -0.521,1.354 -0.113,0.34 -0.113,-0.34 -0.524,-1.354 h -0.27 l 0.773,1.92 h 0.266 z m -2.82,0 h -0.257 v 1.92 h 0.257 z m -1.838,1.163 h 0.556 l 0.073,-0.002 0.069,-0.007 0.066,-0.0125 0.061,-0.0173 0.058,-0.0224 0.053,-0.0273 0.05,-0.0323 0.046,-0.0373 0.041,-0.0417 0.036,-0.0452 0.03,-0.0487 0.025,-0.0521 0.019,-0.0557 0.014,-0.059 0.008,-0.0626 0.003,-0.066 -0.003,-0.0663 -0.008,-0.0625 -0.014,-0.0586 -0.019,-0.0549 -0.025,-0.0509 -0.03,-0.0471 -0.035,-0.0433 -0.041,-0.0394 -0.046,-0.0351 -0.05,-0.0305 -0.055,-0.0258 -0.059,-0.0211 -0.064,-0.0164 -0.069,-0.0117 -0.073,-0.007 -0.077,-0.002 h -0.796 v 1.92 h 0.256 z m 0,-0.203 v -0.754 h 0.509 l 0.103,0.006 0.09,0.0173 0.076,0.0289 0.062,0.0405 0.048,0.052 0.034,0.0636 0.021,0.0752 0.007,0.0867 -0.007,0.09 -0.02,0.078 -0.034,0.066 -0.047,0.054 -0.06,0.042 -0.074,0.03 -0.087,0.018 -0.101,0.006 z m -49.294201,0.75 h -0.957 v -1.71 h -0.256 v 1.92 h 1.213 z m -62.9446,7.941999 h 0.863 l 0.216,0.568 h 0.262 l -0.76,-1.92 h -0.292 l -0.773,1.92 h 0.266 z m 0.078,-0.2 0.242,-0.631 0.0158,-0.0432 0.0148,-0.0413 0.0138,-0.0392 0.0128,-0.0373 0.0119,-0.0352 0.011,-0.0333 0.0099,-0.0312 0.009,-0.0293 0.012,-0.038 0.036,0.113 0.0095,0.0294 0.0095,0.0285 0.0095,0.0278 0.0095,0.0271 0.0095,0.0262 0.0095,0.0254 0.0095,0.0247 0.0095,0.0239 0.243,0.633 z m 2.4505,-0.511 -0.007,-0.228 -0.006,-0.133 1.013,1.64 h 0.309 v -1.92 h -0.231 v 1.262 l 2e-4,0.0323 8e-4,0.037 0.0012,0.0415 0.0018,0.0462 0.0022,0.0508 0.0028,0.0555 0.0032,0.06 0.0038,0.0647 -1.024,-1.65 h -0.298 v 1.92 h 0.228 z m 7.1355,0.9816 0.0708,-0.2614 0.0609,-0.2253 0.0508,-0.1891 0.0409,-0.1531 0.0309,-0.117 0.021,-0.0809 0.011,-0.0448 0.0267,-0.1197 0.0323,-0.1453 0.015,0.0712 0.0141,0.0655 0.0131,0.0599 0.0123,0.0542 0.0112,0.0485 0.0104,0.0429 0.0094,0.0372 0.3365,1.2546 h 0.306 l 0.558,-1.92 h -0.267 l -0.0836,0.3041 -0.0732,0.2669 -0.0628,0.2296 -0.0524,0.1924 -0.0421,0.1551 -0.0317,0.1179 -0.0213,0.0806 -0.0109,0.0434 -0.0339,0.1464 -0.0251,0.1096 -0.012,0.048 -0.0113,-0.0522 -0.0122,-0.055 -0.0133,-0.0578 -0.0142,-0.0607 -0.0153,-0.0636 -0.0162,-0.0664 -0.0173,-0.0692 -0.0182,-0.0721 -0.33,-1.197 h -0.246 l -0.078,0.2815 -0.0691,0.2498 -0.0601,0.2183 -0.0511,0.1867 -0.0421,0.155 -0.0332,0.1235 -0.0242,0.0919 -0.0152,0.0603 -0.0104,0.0438 -0.01,0.043 -0.0097,0.0422 -0.0094,0.0413 -0.0091,0.0404 -0.0088,0.0396 -0.0085,0.0388 -0.0081,0.0379 -0.0129,-0.0605 -0.0132,-0.0601 -0.0134,-0.0597 -0.0138,-0.0592 -0.014,-0.0588 -0.0143,-0.0583 -0.0146,-0.0579 -0.0148,-0.0575 -0.34,-1.222 h -0.268 l 0.558,1.92 h 0.306 z m -4.3946,-0.4596 h 0.556 l 0.0732,-0.0025 0.0694,-0.0074 0.0654,-0.0125 0.0615,-0.0173 0.0575,-0.0224 0.0536,-0.0273 0.0496,-0.0323 0.0457,-0.0373 0.0413,-0.0417 0.0357,-0.0452 0.0303,-0.0487 0.0248,-0.0521 0.0192,-0.0556 0.0137,-0.0591 0.0083,-0.0626 0.0027,-0.066 -0.0027,-0.0663 -0.0082,-0.0625 -0.0137,-0.0586 -0.0191,-0.0548 -0.0246,-0.051 -0.0301,-0.0471 -0.0355,-0.0433 -0.041,-0.0394 -0.0458,-0.0351 -0.0503,-0.0305 -0.0548,-0.0258 -0.0594,-0.0211 -0.0639,-0.0164 -0.0684,-0.0117 -0.073,-0.007 -0.0774,-0.0024 h -0.796 v 1.92 h 0.256 z m 0,-0.203 v -0.754 h 0.509 l 0.1033,0.0058 0.0896,0.0173 0.0758,0.0289 0.062,0.0405 0.0482,0.052 0.0345,0.0636 0.0206,0.0752 0.0069,0.0867 -0.0067,0.09 -0.0201,0.078 -0.0336,0.066 -0.047,0.054 -0.0605,0.042 -0.0739,0.03 -0.0874,0.018 -0.1007,0.006 z m -3.4378,-0.96 h -0.257 v 1.92 h 0.257 z m 11.1532,1.71 h -1.235 v -0.671 h 1.1 v -0.207 h -1.1 v -0.622 h 1.18 v -0.21 h -1.436 v 1.92 h 1.491 z m -15.2796,-1.073 -0.005,-0.258 -0.004,-0.152 0.044,0.15 0.075,0.232 0.496,1.311 h 0.18 l 0.49,-1.311 0.0132,-0.0362 0.0137,-0.0394 0.0141,-0.0428 0.0145,-0.0461 0.015,-0.0494 0.0154,-0.0527 0.0158,-0.0561 0.0163,-0.0593 -0.0028,0.0495 -0.0024,0.05 -0.0021,0.0505 -0.0017,0.051 -0.0013,0.0515 -9e-4,0.052 -6e-4,0.0525 -2e-4,0.053 v 1.283 h 0.231 v -1.92 h -0.33 l -0.494,1.334 -0.0033,0.0085 -0.0041,0.0111 -0.0048,0.0137 -0.0055,0.0162 -0.0063,0.0188 -0.0069,0.0213 -0.0077,0.0239 -0.0084,0.0265 -0.0081,0.0269 -0.0074,0.0251 -0.0067,0.0234 -0.006,0.0216 -0.0053,0.0199 -0.0045,0.0181 -0.0039,0.0164 -0.0031,0.0146 -0.0022,-0.011 -0.0028,-0.0127 -0.0034,-0.0142 -0.0038,-0.0158 -0.0044,-0.0175 -0.0049,-0.019 -0.0055,-0.0206 -0.006,-0.0222 -0.006,-0.0228 -0.0062,-0.0225 -0.0062,-0.0221 -0.0063,-0.0218 -0.0064,-0.0215 -0.0066,-0.0211 -0.0066,-0.0208 -0.0067,-0.0204 -0.504,-1.334 h -0.337 v 1.92 h 0.228 z m 10.0308,1.2812 0.0686,-0.0056 0.0662,-0.0092 0.0639,-0.0129 0.0614,-0.0166 0.059,-0.0203 0.0566,-0.0239 0.0542,-0.0277 0.0517,-0.0311 0.0486,-0.0342 0.0454,-0.0374 0.0423,-0.0405 0.0392,-0.0437 0.0361,-0.0469 0.0329,-0.05 0.0298,-0.0532 0.0267,-0.0561 0.0232,-0.0584 0.0196,-0.0608 0.016,-0.0629 0.0125,-0.0653 0.0089,-0.0675 0.0053,-0.0699 0.0018,-0.0721 -0.0017,-0.0723 -0.0053,-0.0698 -0.0087,-0.0674 -0.0123,-0.065 -0.0157,-0.0625 -0.0193,-0.0601 -0.0227,-0.0577 -0.0263,-0.0552 -0.0296,-0.0524 -0.0327,-0.0492 -0.0359,-0.0459 -0.039,-0.0427 -0.0422,-0.0396 -0.0454,-0.0362 -0.0485,-0.0331 -0.0517,-0.0299 -0.0542,-0.0265 -0.0566,-0.0229 -0.059,-0.0195 -0.0614,-0.0158 -0.0639,-0.0124 -0.0662,-0.0088 -0.0686,-0.0053 -0.0711,-0.0018 -0.1079,0.0039 -0.1019,0.0119 -0.0958,0.0196 -0.0896,0.0276 -0.0836,0.0355 -0.0775,0.0433 -0.0714,0.0511 -0.0653,0.0591 -0.0581,0.0661 -0.0504,0.0722 -0.0426,0.0783 -0.0349,0.0844 -0.0271,0.0906 -0.0194,0.0967 -0.0116,0.1028 -0.0039,0.1089 0.0018,0.0724 0.0052,0.07 0.0086,0.0678 0.0122,0.0656 0.0156,0.0632 0.0191,0.0609 0.0225,0.0587 0.026,0.0564 0.0296,0.0534 0.0326,0.0502 0.0357,0.0469 0.0389,0.0438 0.0419,0.0405 0.045,0.0373 0.0481,0.034 0.0512,0.0309 0.0543,0.0272 0.0567,0.0236 0.0593,0.0199 0.0617,0.0163 0.0643,0.0127 0.0667,0.0091 0.0693,0.0054 0.0717,0.0018 z m -0.1484,-0.2094 -0.0731,-0.0096 -0.0687,-0.016 -0.0644,-0.0224 -0.0601,-0.0289 -0.0558,-0.0352 -0.0514,-0.0416 -0.0472,-0.0481 -0.0419,-0.0535 -0.0364,-0.0581 -0.0308,-0.0625 -0.0251,-0.0671 -0.0196,-0.0717 -0.014,-0.0761 -0.0084,-0.0808 -0.0028,-0.0852 0.0028,-0.0855 0.0083,-0.0807 0.0138,-0.0757 0.0194,-0.0708 0.0249,-0.066 0.0304,-0.061 0.0359,-0.0561 0.0415,-0.0512 0.0468,-0.0457 0.0514,-0.0396 0.056,-0.0335 0.0606,-0.0274 0.0651,-0.0214 0.0698,-0.0152 0.0744,-0.0091 0.0789,-0.0031 0.0785,0.0031 0.0738,0.0093 0.0693,0.0155 0.0647,0.0216 0.0601,0.0279 0.0554,0.034 0.0509,0.0402 0.0463,0.0464 0.0415,0.0518 0.036,0.0565 0.0304,0.061 0.0249,0.0657 0.0193,0.0703 0.0139,0.075 0.0083,0.0795 0.0027,0.0842 -0.0027,0.0882 -0.0083,0.0831 -0.0137,0.0779 -0.0193,0.0728 -0.0247,0.0677 -0.0303,0.0626 -0.0357,0.0574 -0.0413,0.0523 -0.0461,0.0464 -0.051,0.0402 -0.0556,0.0341 -0.0605,0.0278 -0.0653,0.0217 -0.07,0.0154 -0.0749,0.0093 -0.0796,0.0031 z m 5.9718,-0.6098 h 0.59 l 0.492,0.821 h 0.296 l -0.538,-0.851 0.0528,-0.0109 0.0498,-0.0142 0.0469,-0.0175 0.044,-0.0209 0.041,-0.0241 0.0381,-0.0275 0.0352,-0.0308 0.0322,-0.0341 0.0288,-0.0368 0.025,-0.0388 0.0211,-0.0409 0.0173,-0.043 0.0135,-0.045 0.0096,-0.0471 0.0058,-0.0492 0.0019,-0.0512 -0.0027,-0.0615 -0.0082,-0.058 -0.0136,-0.0546 -0.019,-0.0511 -0.0245,-0.0477 -0.0299,-0.0442 -0.0353,-0.0407 -0.0408,-0.0372 -0.0458,-0.0333 -0.0503,-0.0288 -0.0549,-0.0244 -0.0595,-0.02 -0.064,-0.0155 -0.0686,-0.0111 -0.0732,-0.0067 -0.0777,-0.0022 h -0.891 v 1.92 h 0.256 z m 0,-0.203 v -0.69 h 0.609 l 0.0512,0.0014 0.0481,0.004 0.045,0.0067 0.0419,0.0094 0.0389,0.0121 0.0357,0.0148 0.0326,0.0175 0.0296,0.0201 0.0265,0.0225 0.0229,0.0249 0.0194,0.0273 0.0159,0.0298 0.0124,0.0322 0.0088,0.0347 0.0053,0.0371 0.0018,0.0395 -0.0018,0.0411 -0.0052,0.0387 -0.0086,0.0364 -0.0122,0.0341 -0.0156,0.0317 -0.0191,0.0293 -0.0225,0.027 -0.026,0.0247 -0.0292,0.0218 -0.0321,0.0189 -0.0349,0.016 -0.0378,0.0131 -0.0407,0.0101 -0.0436,0.0073 -0.0464,0.0043 -0.0493,0.0015 z m 370.168401,2.456 h 0.863 l 0.216,0.568 h 0.262 l -0.76,-1.92 h -0.292 l -0.773,1.92 h 0.266 z m 0.078,-0.2 0.242,-0.631 0.016,-0.0432 0.015,-0.0413 0.014,-0.0392 0.012,-0.0373 0.012,-0.0352 0.011,-0.0333 0.01,-0.0312 0.009,-0.0293 0.012,-0.038 0.036,0.113 0.01,0.0294 0.009,0.0285 0.01,0.0278 0.009,0.0271 0.01,0.0262 0.009,0.0254 0.01,0.0247 0.009,0.0239 0.243,0.633 z m 2.375,0.7661 0.066,-0.0057 0.065,-0.0094 0.063,-0.0132 0.06,-0.0171 0.058,-0.0208 0.056,-0.0245 0.054,-0.0284 0.051,-0.0322 0.049,-0.0357 0.045,-0.0392 0.043,-0.0426 0.04,-0.0461 0.036,-0.0496 0.034,-0.0531 0.031,-0.0565 -0.21,-0.1 -0.053,0.0856 -0.06,0.0741 -0.065,0.0627 -0.072,0.0514 -0.078,0.0399 -0.084,0.0285 -0.09,0.0171 -0.096,0.0057 -0.076,-0.0032 -0.072,-0.0097 -0.067,-0.0162 -0.064,-0.0226 -0.06,-0.0292 -0.055,-0.0355 -0.052,-0.0421 -0.047,-0.0485 -0.043,-0.0541 -0.037,-0.0583 -0.031,-0.0624 -0.026,-0.0667 -0.02,-0.0708 -0.014,-0.0751 -0.008,-0.0792 -0.003,-0.0834 0.003,-0.0839 0.008,-0.0794 0.013,-0.0748 0.02,-0.0701 0.024,-0.0656 0.03,-0.061 0.036,-0.0564 0.041,-0.0518 0.046,-0.0466 0.05,-0.0405 0.055,-0.0342 0.059,-0.0279 0.063,-0.0218 0.067,-0.0156 0.072,-0.0093 0.077,-0.0031 0.049,0.0015 0.047,0.0044 0.046,0.0073 0.044,0.0103 0.043,0.0132 0.04,0.0162 0.039,0.0191 0.038,0.022 0.035,0.0248 0.033,0.0275 0.03,0.03 0.028,0.0327 0.025,0.0353 0.023,0.038 0.02,0.0405 0.018,0.0432 0.243,-0.084 -0.026,-0.0591 -0.028,-0.0554 -0.033,-0.0516 -0.035,-0.0479 -0.039,-0.0441 -0.042,-0.0404 -0.046,-0.0366 -0.049,-0.0329 -0.053,-0.0291 -0.055,-0.0251 -0.058,-0.0214 -0.062,-0.0174 -0.065,-0.0136 -0.067,-0.0096 -0.071,-0.0059 -0.074,-0.0019 -0.106,0.004 -0.099,0.0118 -0.094,0.0198 -0.087,0.0277 -0.082,0.0355 -0.076,0.0435 -0.07,0.0514 -0.064,0.0593 -0.057,0.0663 -0.05,0.0723 -0.042,0.0783 -0.034,0.0844 -0.027,0.0904 -0.019,0.0964 -0.011,0.1024 -0.004,0.1085 10e-4,0.0733 0.006,0.0707 0.008,0.0683 0.012,0.0657 0.015,0.0633 0.019,0.0607 0.022,0.0583 0.026,0.0557 0.029,0.0529 0.032,0.0498 0.035,0.0466 0.039,0.0435 0.041,0.0403 0.044,0.0371 0.048,0.034 0.051,0.0308 0.053,0.0274 0.056,0.0238 0.058,0.0201 0.061,0.0165 0.063,0.0128 0.066,0.0091 0.067,0.0055 0.071,0.0018 z m -3.899,1e-4 0.065,-0.0056 0.064,-0.0092 0.061,-0.0129 0.06,-0.0166 0.057,-0.0203 0.056,-0.0239 0.053,-0.0277 0.051,-0.0314 0.048,-0.0346 0.045,-0.0379 0.042,-0.0411 0.039,-0.0444 0.036,-0.0476 0.033,-0.0509 0.03,-0.0541 0.027,-0.0569 0.023,-0.0592 0.02,-0.0615 0.016,-0.0639 0.012,-0.0662 0.009,-0.0684 0.005,-0.0708 0.002,-0.0731 -0.004,-0.1095 -0.012,-0.1031 -0.021,-0.0965 -0.028,-0.0901 -0.037,-0.0837 -0.045,-0.0772 -0.053,-0.0707 -0.062,-0.0642 -0.068,-0.0574 -0.076,-0.0498 -0.082,-0.0421 -0.09,-0.0344 -0.096,-0.0268 -0.103,-0.0192 -0.11,-0.0115 -0.117,-0.0038 h -0.626 v 1.920001 h 0.708 z m -0.52,-0.2042 v -1.508 h 0.364 l 0.089,0.0029 0.083,0.0089 0.078,0.0146 0.073,0.0206 0.067,0.0265 0.062,0.0323 0.056,0.0381 0.051,0.0441 0.045,0.0497 0.04,0.0549 0.033,0.0603 0.027,0.0656 0.021,0.0709 0.015,0.0762 0.009,0.0816 0.003,0.0868 -10e-4,0.0585 -0.004,0.0566 -0.007,0.0546 -0.009,0.0526 -0.012,0.0506 -0.015,0.0487 -0.017,0.0467 -0.02,0.0447 -0.022,0.0425 -0.024,0.0399 -0.027,0.0373 -0.029,0.0348 -0.032,0.0322 -0.033,0.0297 -0.036,0.0271 -0.039,0.0245 -0.04,0.0218 -0.042,0.0189 -0.043,0.016 -0.046,0.0131 -0.046,0.0101 -0.048,0.0073 -0.05,0.0044 -0.052,0.0014 z m 32.711,1.7046 0.057,-0.0041 0.056,-0.0069 0.053,-0.0096 0.052,-0.0124 0.049,-0.0151 0.048,-0.0179 0.045,-0.0206 0.043,-0.0232 0.041,-0.0257 0.038,-0.0281 0.036,-0.0305 0.033,-0.033 0.031,-0.0354 0.028,-0.0378 0.025,-0.0403 0.023,-0.0427 0.02,-0.0447 0.017,-0.0467 0.014,-0.0486 0.01,-0.0506 0.008,-0.0526 0.005,-0.0546 0.001,-0.0565 v -1.181 h -0.255 v 1.166 l -0.002,0.065 -0.007,0.0609 -0.011,0.057 -0.015,0.0529 -0.02,0.0488 -0.025,0.0448 -0.029,0.0408 -0.033,0.0368 -0.037,0.0326 -0.041,0.0282 -0.044,0.0239 -0.048,0.0196 -0.052,0.0152 -0.054,0.0108 -0.059,0.0065 -0.062,0.0022 -0.06,-0.0021 -0.057,-0.0063 -0.053,-0.0104 -0.05,-0.0147 -0.045,-0.0188 -0.043,-0.0231 -0.038,-0.0272 -0.035,-0.0314 -0.031,-0.0357 -0.026,-0.0395 -0.023,-0.0435 -0.018,-0.0473 -0.014,-0.0512 -0.011,-0.055 -0.006,-0.059 -0.002,-0.0628 v -1.184 h -0.257 v 1.205 l 0.002,0.0548 0.004,0.0529 0.007,0.051 0.011,0.0491 0.013,0.0471 0.017,0.0453 0.019,0.0434 0.022,0.0414 0.025,0.0391 0.028,0.0367 0.03,0.0343 0.032,0.0319 0.035,0.0296 0.037,0.0272 0.04,0.0248 0.042,0.0224 0.045,0.0197 0.046,0.0171 0.048,0.0144 0.05,0.0118 0.051,0.0092 0.054,0.0066 0.055,0.0039 0.057,0.0013 z m 1.843,-0.8376 0.568,0.839 h 0.284 l -0.703,-1.007 0.648,-0.913 h -0.284 l -0.512,0.754 -0.527,-0.754 h -0.283 l 0.665,0.923 -0.72,0.997 h 0.283 z m 2.149,-1.081 h -0.257 v 1.92 h 0.257 z m 0.696,0.641 -0.007,-0.228 -0.006,-0.133 1.013,1.64 h 0.309 v -1.92 h -0.231 v 1.262 l 10e-4,0.0323 v 0.037 l 0.002,0.0415 10e-4,0.0462 0.003,0.0508 0.002,0.0555 0.004,0.06 0.003,0.0647 -1.024,-1.65 h -0.298 v 1.92 h 0.228 z m -7.05,0.711 h 0.863 l 0.216,0.568 h 0.262 l -0.76,-1.92 h -0.292 l -0.773,1.92 h 0.266 z m 0.078,-0.2 0.242,-0.631 0.015,-0.0432 0.015,-0.0413 0.014,-0.0392 0.013,-0.0373 0.012,-0.0352 0.011,-0.0333 0.01,-0.0312 0.009,-0.0293 0.012,-0.038 0.036,0.113 0.009,0.0294 0.01,0.0285 0.009,0.0278 0.01,0.0271 0.009,0.0262 0.01,0.0254 0.009,0.0247 0.01,0.0239 0.243,0.633 z m -149.845,0.5 h 0.863 l 0.216,0.568 h 0.262 l -0.76,-1.92 h -0.292 l -0.773,1.92 h 0.266 z m 0.078,-0.2 0.242,-0.631 0.016,-0.0433 0.014,-0.0412 0.014,-0.0392 0.013,-0.0373 0.012,-0.0353 0.011,-0.0332 0.01,-0.0313 0.009,-0.0292 0.012,-0.038 0.036,0.113 0.009,0.0293 0.01,0.0286 0.009,0.0278 0.01,0.0271 0.009,0.0262 0.01,0.0254 0.009,0.0247 0.01,0.0239 0.243,0.633 z m 1.697,-0.515 -0.006,-0.258 -0.004,-0.152 0.045,0.15 0.075,0.232 0.496,1.311 h 0.179 l 0.491,-1.311 0.013,-0.0362 0.013,-0.0394 0.014,-0.0428 0.015,-0.0461 0.015,-0.0494 0.015,-0.0527 0.016,-0.0561 0.016,-0.0593 -0.002,0.0495 -0.003,0.05 -0.002,0.0505 -0.002,0.051 -10e-4,0.0515 -10e-4,0.052 v 0.0525 0.053 1.283 h 0.23 v -1.92 h -0.329 l -0.494,1.334 -0.004,0.0085 -0.004,0.0111 -0.005,0.0137 -0.005,0.0162 -0.006,0.0188 -0.007,0.0213 -0.008,0.0239 -0.008,0.0265 -0.009,0.0269 -0.007,0.0251 -0.007,0.0234 -0.006,0.0216 -0.005,0.0199 -0.005,0.0181 -0.003,0.0164 -0.004,0.0146 -0.002,-0.0111 -0.003,-0.0126 -0.003,-0.0142 -0.004,-0.0159 -0.004,-0.0174 -0.005,-0.019 -0.006,-0.0206 -0.005,-0.0222 -0.007,-0.0228 -0.006,-0.0225 -0.006,-0.0222 -0.006,-0.0218 -0.007,-0.0214 -0.006,-0.0211 -0.007,-0.0208 -0.007,-0.0204 -0.504,-1.334 h -0.336 v 1.92 h 0.228 z m -8.263,0.526 h 0.556 l 0.073,-0.0025 0.069,-0.0074 0.066,-0.0125 0.061,-0.0173 0.058,-0.0224 0.053,-0.0273 0.05,-0.0323 0.045,-0.0373 0.042,-0.0417 0.035,-0.0452 0.031,-0.0487 0.025,-0.0522 0.019,-0.0556 0.013,-0.059 0.009,-0.0626 0.002,-0.066 -0.002,-0.0663 -0.008,-0.0625 -0.014,-0.0587 -0.019,-0.0548 -0.025,-0.0509 -0.03,-0.0471 -0.035,-0.0433 -0.041,-0.0394 -0.046,-0.0352 -0.051,-0.0304 -0.054,-0.0258 -0.06,-0.0211 -0.064,-0.0164 -0.068,-0.0117 -0.073,-0.0071 -0.078,-0.0023 h -0.795 v 1.92 h 0.256 z m 0,-0.203 v -0.754 h 0.509 l 0.103,0.0058 0.089,0.0173 0.076,0.0289 0.062,0.0405 0.048,0.052 0.035,0.0636 0.021,0.0752 0.006,0.0867 -0.006,0.09 -0.02,0.078 -0.034,0.066 -0.047,0.054 -0.06,0.042 -0.074,0.03 -0.088,0.018 -0.1,0.006 z m 10.55,0.203 h 0.556 l 0.074,-0.0025 0.069,-0.0074 0.065,-0.0125 0.062,-0.0173 0.057,-0.0224 0.054,-0.0273 0.05,-0.0323 0.045,-0.0373 0.042,-0.0417 0.035,-0.0452 0.031,-0.0487 0.024,-0.0522 0.02,-0.0556 0.013,-0.059 0.009,-0.0626 0.002,-0.066 -0.002,-0.0663 -0.009,-0.0625 -0.013,-0.0587 -0.019,-0.0548 -0.025,-0.0509 -0.03,-0.0471 -0.036,-0.0433 -0.041,-0.0394 -0.046,-0.0352 -0.05,-0.0304 -0.055,-0.0258 -0.059,-0.0211 -0.064,-0.0164 -0.068,-0.0117 -0.073,-0.0071 -0.078,-0.0023 h -0.796 v 1.92 h 0.256 z m 0,-0.203 v -0.754 h 0.509 l 0.104,0.0058 0.089,0.0173 0.076,0.0289 0.062,0.0405 0.048,0.052 0.035,0.0636 0.02,0.0752 0.007,0.0867 -0.006,0.09 -0.021,0.078 -0.033,0.066 -0.047,0.054 -0.061,0.042 -0.074,0.03 -0.087,0.018 -0.101,0.006 z m -18.85,0.9582 0.065,-0.0056 0.064,-0.0092 0.061,-0.0129 0.06,-0.0166 0.057,-0.0203 0.056,-0.0239 0.053,-0.0277 0.051,-0.0314 0.048,-0.0346 0.045,-0.0379 0.042,-0.0411 0.039,-0.0444 0.036,-0.0476 0.033,-0.0509 0.03,-0.0541 0.027,-0.0569 0.023,-0.0592 0.02,-0.0616 0.016,-0.0638 0.012,-0.0662 0.009,-0.0684 0.005,-0.0708 0.002,-0.0731 -0.004,-0.1095 -0.012,-0.1031 -0.021,-0.0966 -0.028,-0.0901 -0.037,-0.0836 -0.045,-0.0772 -0.053,-0.0707 -0.062,-0.0642 -0.069,-0.0574 -0.075,-0.0498 -0.083,-0.0421 -0.089,-0.0345 -0.096,-0.0268 -0.103,-0.0191 -0.11,-0.0115 -0.117,-0.0038 h -0.626 v 1.92 h 0.708 z m -0.52,-0.2042 v -1.508 h 0.364 l 0.089,0.0029 0.083,0.0088 0.078,0.0147 0.073,0.0206 0.067,0.0264 0.062,0.0323 0.056,0.0382 0.051,0.0441 0.045,0.0497 0.04,0.0549 0.033,0.0603 0.027,0.0656 0.021,0.0709 0.015,0.0762 0.009,0.0816 0.003,0.0868 -10e-4,0.0585 -0.004,0.0566 -0.007,0.0545 -0.009,0.0527 -0.012,0.0506 -0.015,0.0487 -0.017,0.0467 -0.02,0.0447 -0.022,0.0425 -0.024,0.0399 -0.027,0.0373 -0.029,0.0348 -0.032,0.0322 -0.033,0.0297 -0.036,0.0271 -0.039,0.0245 -0.04,0.0218 -0.042,0.0189 -0.044,0.016 -0.045,0.013 -0.046,0.0102 -0.049,0.0073 -0.049,0.0043 -0.052,0.0015 z m 1.966,-0.362 h 0.863 l 0.216,0.568 h 0.262 l -0.76,-1.92 h -0.292 l -0.773,1.92 h 0.266 z m 0.078,-0.2 0.242,-0.631 0.016,-0.0433 0.015,-0.0412 0.014,-0.0392 0.012,-0.0373 0.012,-0.0353 0.011,-0.0332 0.01,-0.0313 0.009,-0.0292 0.012,-0.038 0.036,0.113 0.01,0.0293 0.009,0.0286 0.01,0.0278 0.009,0.0271 0.01,0.0262 0.009,0.0254 0.01,0.0247 0.009,0.0239 0.243,0.633 z m 8.585,-0.053 h 0.59 l 0.492,0.821 h 0.296 l -0.538,-0.851 0.053,-0.0109 0.05,-0.0142 0.047,-0.0176 0.044,-0.0208 0.041,-0.0242 0.038,-0.0274 0.035,-0.0308 0.032,-0.0341 0.029,-0.0368 0.025,-0.0388 0.021,-0.0409 0.017,-0.043 0.014,-0.045 0.009,-0.0471 0.006,-0.0492 0.002,-0.0512 -0.003,-0.0615 -0.008,-0.0581 -0.013,-0.0545 -0.019,-0.0512 -0.025,-0.0476 -0.03,-0.0442 -0.035,-0.0407 -0.041,-0.0372 -0.046,-0.0333 -0.05,-0.0288 -0.055,-0.0244 -0.059,-0.02 -0.064,-0.0155 -0.069,-0.0111 -0.073,-0.0067 -0.078,-0.0022 h -0.891 v 1.92 h 0.256 z m 0,-0.203 v -0.69 h 0.609 l 0.051,0.0013 0.048,0.0041 0.045,0.0067 0.042,0.0094 0.039,0.0121 0.036,0.0148 0.033,0.0174 0.029,0.0202 0.027,0.0225 0.022,0.0249 0.02,0.0273 0.016,0.0298 0.012,0.0322 0.009,0.0347 0.005,0.0371 0.002,0.0395 -0.002,0.0411 -0.005,0.0387 -0.009,0.0364 -0.012,0.0341 -0.015,0.0316 -0.019,0.0294 -0.023,0.027 -0.026,0.0247 -0.029,0.0218 -0.032,0.0189 -0.035,0.016 -0.038,0.013 -0.041,0.0102 -0.043,0.0073 -0.047,0.0043 -0.049,0.0015 z m 3.194,0.814 h -1.235 v -0.671 h 1.1 v -0.207 h -1.1 v -0.622 h 1.18 v -0.21 h -1.436 v 1.92 h 1.491 z m -9.404,0.2081 0.066,-0.0057 0.065,-0.0094 0.062,-0.0133 0.061,-0.017 0.058,-0.0208 0.056,-0.0245 0.054,-0.0284 0.051,-0.0322 0.049,-0.0357 0.045,-0.0392 0.043,-0.0426 0.04,-0.0462 0.036,-0.0495 0.034,-0.0531 0.031,-0.0565 -0.21,-0.1 -0.053,0.0855 -0.06,0.0742 -0.065,0.0627 -0.072,0.0513 -0.078,0.04 -0.084,0.0285 -0.09,0.0171 -0.096,0.0057 -0.076,-0.0032 -0.072,-0.0097 -0.067,-0.0162 -0.064,-0.0227 -0.06,-0.0291 -0.055,-0.0355 -0.052,-0.0421 -0.047,-0.0485 -0.043,-0.0541 -0.037,-0.0583 -0.031,-0.0624 -0.026,-0.0667 -0.02,-0.0708 -0.014,-0.0751 -0.008,-0.0792 -0.003,-0.0834 0.002,-0.084 0.009,-0.0793 0.013,-0.0748 0.019,-0.0702 0.025,-0.0655 0.03,-0.061 0.036,-0.0564 0.041,-0.0518 0.046,-0.0466 0.05,-0.0405 0.055,-0.0342 0.058,-0.028 0.064,-0.0217 0.067,-0.0156 0.072,-0.0093 0.077,-0.0031 0.049,0.0015 0.047,0.0044 0.046,0.0073 0.044,0.0103 0.043,0.0132 0.04,0.0162 0.039,0.0191 0.038,0.022 0.035,0.0248 0.033,0.0275 0.03,0.03 0.028,0.0327 0.025,0.0353 0.023,0.0379 0.02,0.0406 0.018,0.0432 0.243,-0.084 -0.026,-0.0591 -0.029,-0.0554 -0.032,-0.0516 -0.035,-0.0479 -0.039,-0.0441 -0.043,-0.0404 -0.045,-0.0366 -0.049,-0.0329 -0.053,-0.0291 -0.055,-0.0251 -0.058,-0.0214 -0.062,-0.0174 -0.065,-0.0136 -0.067,-0.0097 -0.071,-0.0058 -0.074,-0.0019 -0.106,0.0039 -0.099,0.0119 -0.094,0.0198 -0.087,0.0277 -0.082,0.0355 -0.076,0.0435 -0.07,0.0514 -0.064,0.0593 -0.057,0.0663 -0.05,0.0723 -0.042,0.0783 -0.034,0.0843 -0.027,0.0904 -0.019,0.0965 -0.011,0.1024 -0.004,0.1085 10e-4,0.0732 0.006,0.0708 0.008,0.0683 0.012,0.0657 0.015,0.0632 0.019,0.0608 0.022,0.0583 0.026,0.0557 0.029,0.0529 0.032,0.0498 0.035,0.0466 0.038,0.0434 0.042,0.0403 0.044,0.0372 0.048,0.034 0.051,0.0308 0.053,0.0274 0.056,0.0238 0.058,0.0201 0.061,0.0165 0.063,0.0127 0.066,0.0092 0.067,0.0055 0.071,0.0018 z m 2.483,-0.8261 h 0.569 v -0.196 h -0.569 v -0.575 h -0.198 v 0.575 h -0.57 v 0.196 h 0.57 v 0.575 h 0.198 z m 7.808,-0.004 h -0.672 v 0.215 h 0.672 z M 0.34999,43.65001 H 0.25 V 43.75 h 0.09999 z"
     inkscape:connector-curvature="0"
     style="fill:#fffffa;stroke:none;stroke-width:0.5;fill-opacity:1" />
</svg>
